<?xml version="1.0" encoding="UTF-8"?>
<svg id="Layer_1" data-name="Layer 1" xmlns="http://www.w3.org/2000/svg" viewBox="0 0 900 900">
  <defs>
    <style>
      .cls-1, .cls-2, .cls-3 {
        fill: #fff;
      }

      .cls-2 {
        font-family: Alkatra-Regular, Alkatra;
        font-size: 50.63px;
      }

      .cls-3 {
        font-family: NotoSans-CondensedExtraBold, 'Noto Sans';
        font-size: 110px;
        font-weight: 700;
      }
    </style>
  </defs>
  <g>
    <path class="cls-1" d="M382.73,231.41c.04-1.13-.51-2.48-1.55-3.96-3.12-4.42-10.7-10.01-20.31-14.56-9.58-4.54-18.69-6.87-24.09-6.5,0,0,0,0-.02,0-1.82.12-3.22.56-4.08,1.31-.29.26-.52.56-.68.89-2.01,4.24,7.66,13.02,21.6,19.62,13.93,6.6,26.85,8.53,28.86,4.29.16-.34.25-.71.26-1.1ZM356.13,222.89c-6.5-3.08-11.12-6.92-10.34-8.58.79-1.66,6.69-.51,13.19,2.56,6.5,3.08,11.12,6.92,10.34,8.58s-6.69.51-13.19-2.56Z"/>
    <path class="cls-1" d="M330.08,279.7c-9.21-4.36-15.28-10.92-15.69-11.38-1.09-1.2-1.01-3.06.2-4.16,1.2-1.09,3.06-1.01,4.16.19h0c.15.16,15.16,16.31,32.59,12.82,1.59-.32,3.14.72,3.46,2.31s-.72,3.14-2.31,3.46c-8.4,1.68-16.13-.28-22.41-3.25Z"/>
    <g>
      <path class="cls-1" d="M364.22,236.94c-.34,2.98-.95,6.6-2.04,10.53-3.15,11.33-9.07,20.46-17.26,26.74,3.5.48,6.98.47,10.36,0,13.93-12.3,17.5-26.95,18.32-35.31-2.92-.29-6.12-.99-9.39-1.97Z"/>
      <path class="cls-1" d="M343.94,227.93c-2.46-1.46-4.81-3.02-6.92-4.65-5.84,5.63-16.07,17.64-18.79,34.72,2.21,3.16,4.96,6.03,8.17,8.48,1.73-18.32,11.68-31.97,17.54-38.56Z"/>
      <path class="cls-1" d="M334.48,221.21c-4.06-3.57-6.81-7.34-7.02-10.93-5.38,3.23-9.83,7.92-12.65,13.87-4.58,9.66-3.88,20.55.92,29.75,3.54-15.96,12.94-27.09,18.75-32.69Z"/>
      <path class="cls-1" d="M384.05,237.09c-1.81,1.31-4.29,1.91-7.19,1.96-.73,8.06-3.83,21.54-15.53,33.8,8.62-2.75,15.97-8.69,19.99-17.19,2.82-5.95,3.63-12.37,2.72-18.58Z"/>
      <path class="cls-1" d="M361.07,235.92c-3.16-1.1-6.32-2.41-9.29-3.82-1.65-.78-3.31-1.63-4.94-2.52-5.64,6.28-16.21,20.39-17.38,39.02,1.27.79,2.6,1.53,3.99,2.19,2.34,1.11,4.74,1.97,7.15,2.58,15.45-10.15,19.46-27.84,20.48-37.45Z"/>
    </g>
  </g>
  <g>
    <path class="cls-1" d="M272.3,518.75l6.69,5.5c-.02-.12-.04-.24-.05-.36-.16-1.63.33-3.22,1.36-4.48,1.04-1.26,2.5-2.04,4.13-2.2,1.63-.16,3.22.33,4.48,1.36s2.04,2.5,2.2,4.13c.16,1.63-.33,3.22-1.36,4.48-1.04,1.26-2.5,2.04-4.13,2.2-.12.01-.24.02-.35.02l6.69,5.5c9.1-11.41,9.22-21.43,9.16-23.29l-3.83-3.15-3.9-3.21c-1.84.3-11.64,2.35-21.08,13.49Z"/>
    <path class="cls-1" d="M261.41,534.44l2.63,2.16,2.7,2.22,4.91-5.97c.26-.32.63-.52,1.05-.56.41-.04.81.08,1.13.35l4.21,3.46c.66.54.75,1.52.21,2.18l-4.91,5.97,5.33,4.38,8.21-9.98-14.63-12.03-2.63-2.16-8.21,9.98Z"/>
    <path class="cls-1" d="M292.23,537.64c-.03-.36-.21-.68-.48-.91l-10.6-8.71s0,0,0,0c0,0,0,0,0,0l-10.6-8.71c-.23-.19-.51-.3-.81-.3-.06,0-.11,0-.17,0-.36.03-.68.21-.91.48l-.21.26c-.23.28-.33.63-.3.98.03.36.21.68.48.91l21.19,17.43c.28.23.63.33.98.3.36-.03.68-.21.91-.48l.21-.26c.23-.28.33-.62.3-.98Z"/>
    <path class="cls-1" d="M272.35,545.44h0s-6.6-5.43-6.6-5.43h0s-7.3-6-7.3-6c-.23-.19-.51-.3-.81-.3-.06,0-.11,0-.17,0-.36.03-.68.21-.91.48l-.21.26c-.23.28-.33.63-.3.98.03.36.21.68.48.91l21.19,17.43c.28.23.63.34.98.3.36-.03.68-.21.91-.48l.21-.26c.47-.57.39-1.42-.18-1.89l-7.3-6Z"/>
    <path class="cls-1" d="M282.13,526.83c.94.78,2.13,1.14,3.35,1.02,1.21-.12,2.31-.7,3.09-1.65.77-.94,1.14-2.13,1.02-3.35-.12-1.21-.7-2.31-1.65-3.08-.79-.65-1.75-1.01-2.76-1.04-.19,0-.39,0-.59.02-1.21.12-2.31.7-3.09,1.65-.77.94-1.14,2.13-1.02,3.35.12,1.21.7,2.31,1.65,3.08ZM283.01,521.64c.92-1.12,2.57-1.28,3.69-.36.54.44.88,1.07.94,1.77.07.7-.14,1.38-.58,1.92-.44.54-1.07.88-1.77.94-.11.01-.22.02-.34.01-.58-.02-1.13-.22-1.58-.6-1.12-.92-1.28-2.57-.36-3.69Z"/>
    <path class="cls-1" d="M284.2,522.62c-.38.46-.31,1.13.15,1.51.22.18.5.27.78.24.28-.03.54-.16.72-.39.18-.22.27-.5.24-.78-.03-.29-.16-.54-.39-.72-.19-.16-.42-.24-.65-.24-.32,0-.64.12-.86.39Z"/>
    <rect class="cls-1" x="268.63" y="535.83" width="7.73" height="5.45" transform="translate(-316.57 407.02) rotate(-50.58)"/>
    <path class="cls-1" d="M305.54,510.38c-.03-.3-.17-.57-.41-.76l-10.23-8.41c-.2-.16-.43-.25-.68-.26-.05,0-.1,0-.14,0-.3.03-.57.17-.76.41l-.19.23c-.39.48-.32,1.19.16,1.59l10.23,8.41c.23.19.53.28.83.25.3-.03.57-.17.76-.41l.19-.23c.19-.23.28-.53.25-.83Z"/>
    <path class="cls-1" d="M303.54,504.84l.19-.23c.19-.23.28-.53.25-.83-.03-.3-.17-.57-.41-.76l-1.9-1.56c-.23-.19-.53-.28-.83-.25-.3.03-.57.17-.76.41l-.19.23c-.39.48-.33,1.19.15,1.59l1.9,1.56c.48.39,1.19.33,1.59-.15Z"/>
  </g>
  <g>
    <rect class="cls-1" x="207.8" y="358.89" width="33.32" height="3" transform="translate(-85.63 70.38) rotate(-15)"/>
    <rect class="cls-1" x="213.8" y="357" width="20.43" height="3.45" transform="translate(-85.22 70.21) rotate(-15)"/>
    <rect class="cls-1" x="216.77" y="356.08" width="13.59" height="1.95" transform="translate(-84.8 70.03) rotate(-15)"/>
    <rect class="cls-1" x="214.93" y="361.23" width="23.91" height="16.44" transform="translate(-87.9 71.32) rotate(-15)"/>
    <rect class="cls-1" x="215.7" y="375.23" width="26.7" height="4.57" transform="translate(-89.91 72.15) rotate(-15)"/>
    <rect class="cls-1" x="217.6" y="379.54" width="26.7" height="10.14" transform="translate(-91.68 72.89) rotate(-15)"/>
    <rect class="cls-1" x="215.02" y="378.98" width="29.23" height="1.46" transform="translate(-90.46 72.38) rotate(-15)"/>
    <rect class="cls-1" x="214.71" y="383.33" width="32.69" height="3.35" transform="translate(-91.78 72.93) rotate(-15)"/>
    <rect class="cls-1" x="215.19" y="388.78" width="34.65" height="3.35" transform="translate(-93.14 73.49) rotate(-15)"/>
    <g>
      <g>
        <path class="cls-1" d="M240.7,388.15c-3.54.95-5.64,4.59-4.7,8.13.95,3.54,4.59,5.64,8.13,4.7,3.54-.95,5.64-4.59,4.7-8.13-.95-3.54-4.59-5.64-8.13-4.7ZM243.63,399.08c-2.49.67-5.05-.81-5.72-3.3s.81-5.05,3.3-5.72c2.49-.67,5.05.81,5.72,3.3.67,2.49-.81,5.05-3.3,5.72Z"/>
        <circle class="cls-1" cx="242.42" cy="394.56" r="2.02"/>
      </g>
      <g>
        <path class="cls-1" d="M224.27,392.55c-3.54.95-5.64,4.59-4.7,8.13s4.59,5.64,8.13,4.7c3.54-.95,5.64-4.59,4.7-8.13-.95-3.54-4.59-5.64-8.13-4.7ZM227.2,403.48c-2.49.67-5.05-.81-5.72-3.3-.67-2.49.81-5.05,3.3-5.72s5.05.81,5.72,3.3c.67,2.49-.81,5.05-3.3,5.72Z"/>
        <circle class="cls-1" cx="225.99" cy="398.97" r="2.02"/>
      </g>
    </g>
    <rect class="cls-1" x="217.79" y="404.94" width="48.73" height="2.32" transform="translate(-96.86 76.52) rotate(-15)"/>
    <rect class="cls-1" x="217.12" y="403.47" width="38.69" height="1.58" transform="translate(-96.58 74.98) rotate(-15)"/>
    <g>
      <path class="cls-1" d="M232.99,391.29l3.34,12.48,7.98-2.14-.41-1.53s-5.61,1.07-6.7-3.02c-1.09-4.09,1.1-7.22,1.1-7.22l-5.31,1.42Z"/>
      <path class="cls-1" d="M232.99,391.29l3.34,12.48-7.98,2.14-.41-1.53s5.39-1.88,4.3-5.96c-1.09-4.09-4.56-5.71-4.56-5.71l5.31-1.42Z"/>
    </g>
    <path class="cls-1" d="M222.58,403.56l-2.61,4.81,9.2-2.47-.65-1.76s-3.47,1.21-5.94-.58Z"/>
    <path class="cls-1" d="M247.47,396.89l4.66,2.86-9.2,2.47-.32-1.85s3.61-.69,4.86-3.48Z"/>
    <circle class="cls-1" cx="261.53" cy="388.94" r="2.51"/>
    <circle class="cls-1" cx="262.37" cy="392.09" r="2.51"/>
    <circle class="cls-1" cx="261.34" cy="394.96" r="2.51"/>
    <rect class="cls-1" x="260.56" y="395.28" width="1.74" height="4.73" transform="translate(-94.02 81.22) rotate(-15)"/>
    <rect class="cls-1" x="256.15" y="396.47" width="1.74" height="4.73" transform="translate(-94.47 80.12) rotate(-15)"/>
    <rect class="cls-1" x="262.56" y="394.75" width="1.74" height="4.73" transform="translate(-93.81 81.72) rotate(-15)"/>
    <rect class="cls-1" x="250.61" y="397.53" width="4.88" height="4.73" transform="translate(-94.88 79.13) rotate(-15)"/>
    <path class="cls-1" d="M266.72,390.82l-2.97,1.27c-.41.18-.89-.05-1-.49l-.53-1.97c-.12-.43.18-.87.63-.92l3.21-.38c.36-.04.7.19.8.54l.29,1.08c.09.35-.08.72-.42.87Z"/>
    <rect class="cls-1" x="247.78" y="390.96" width="14.17" height="6.39" transform="translate(-93.33 79.4) rotate(-15)"/>
    <rect class="cls-1" x="251.4" y="388.62" width="5.96" height="5.96" rx="2.98" ry="2.98" transform="translate(-211.94 416.11) rotate(-60)"/>
  </g>
  <g>
    <g>
      <path class="cls-1" d="M193.8,374.49c.33.21,1.07.78,1.85,2.15.65-1.9,2.15-5.44,5.02-8.06-.22-1.01-.47-1.9-.69-2.6h0s2.18-3.85,2.18-3.85c.08-.14-.1-.28-.22-.18l-1.89,2.26.98-2.96c.05-.16-.17-.26-.26-.11l-1.44,2.8.27-2.7c0-.16-.23-.19-.28-.03l-1.19,4.21h0c-1.39,1.59-3.59,4.68-4.35,9.09Z"/>
      <path class="cls-1" d="M193.63,375.8c-.02.23-.05.45-.06.69-.27,4.5.37,8.08.97,10.33.04.72.06,2.01-.22,3.48-.43,2.26-.44,2.48-.44,2.48l1.85.05s.32-2.91.83-4.73c.11-.15.23-.31.35-.48-.31-8.03-2.34-10.91-3.27-11.82Z"/>
      <path class="cls-1" d="M196.37,378.17c.7,1.74,1.32,4.26,1.58,7.87,1.17-1.94,2.44-4.65,3.05-7.93.54-2.91.34-5.81-.07-8.2-3.14,3.21-4.39,7.63-4.55,8.26Z"/>
    </g>
    <path class="cls-1" d="M198.36,387.48c-.2.14-.45-.11-.31-.31,1.03-1.42,3.01-4.48,3.62-7.83.85-4.6,1.68-9.97,2.86-10.31.81-.23,1.17,3.7,1.32,6.19.01.22-.3.27-.36.05-.41-1.73-.97-3.92-1.05-3.29-.11,1.01-.71,7.08-2.04,10.01-1.49,3.27-3.07,4.8-4.05,5.49Z"/>
    <path class="cls-1" d="M193.49,387.11c.16.21.49.03.4-.22-.59-1.68-1.59-5.13-1.24-8.48.49-4.65,1.21-10.04.17-10.7-.64-.4-1.87,2.49-2.72,4.78-.11.29.3.48.46.22.79-1.36,1.61-2.67,1.52-2.14-.18,1-1.32,7-.87,10.17.5,3.5,1.56,5.41,2.3,6.37Z"/>
  </g>
  <g>
    <rect class="cls-1" x="237.04" y="563.56" width="6.47" height="33.11" rx="3.24" ry="3.24" transform="translate(-381.76 665.75) rotate(-75.34)"/>
    <path class="cls-1" d="M242.34,589.93l-8.67-2.27c-4.22-1.1-6.75-5.42-5.64-9.64h0c.28-1.08,1.38-1.72,2.46-1.44l20.06,5.25c1.08.28,1.72,1.38,1.44,2.46h0c-1.1,4.22-5.42,6.75-9.64,5.64Z"/>
    <path class="cls-1" d="M248.53,581.3l.7-2.4.09-.3.02-.07c.25-.79-.02-1.69-.65-2.23-.28-.26-.57-.38-.95-.49-3.41-.95-6.84-1.87-10.26-2.78-.82-.25-1.94-.45-2.71-.84-6.43-3.49-2.48-12.81,4.56-10.68,2.87.72,6.87,1.75,9.7,2.44.33.06,1.36.38,1.69.35,1.83-.1,2.24-2.5.46-3.17-2.06-1.12-4.19-2.05-5.67-4.14-3.12-4.41.04-11.09,5.17-12.08,3.02-.65,6.08.06,8.59,1.69.97.64.51,2.18-.63,2.21-2.51.13-7.03.28-7.71,3.09-.64,2.82.45,4.66,2.94,6.12,4.27,2.92,2.45,9.68-2.71,10.03-.98.11-2.12-.27-3.06-.53-2.79-.77-6.82-1.85-9.66-2.62,0,0-.3-.08-.3-.08l-.15-.04c-.85-.27-1.81-.01-2.4.65-1.16,1.23-.53,3.42,1.13,3.81.06.02.36.1.44.11,3.63.93,7.27,1.87,10.91,2.76,2.35.42,4.32,1.96,4.98,4.31.27.96.3,1.99.09,2.96-.08.42-.59,2.49-.68,2.93-.72,2.64-4.58,1.65-3.91-1.02h0Z"/>
    <path class="cls-1" d="M248.67,559.11c-.18-.05-4.46-1.31-6.17-4.51-.79-1.49-.91-3.14-.34-4.9,1.74-5.41,8.02-5.45,11.11-4.72l-.35,1.47c-.31-.07-7.57-1.72-9.32,3.71-.44,1.38-.37,2.6.24,3.73,1.41,2.65,5.21,3.76,5.25,3.77l-.42,1.45Z"/>
  </g>
  <g>
    <path class="cls-1" d="M299.75,388.79c-1.81-5.8-4.33-13.44-10.41-14.36-6.08-.93-11.09,3.94-13.01,11.08-1.91,7.14-5.83,11.91-5.83,11.91,0,0,5.04,6.11,16.4,7.08,11.37.96,16.72-8.11,16.72-8.11,0,0-2.06-1.79-3.88-7.6ZM280.08,392.58c-.61-.06-1.06-.6-1-1.22s.6-1.06,1.22-1,1.06.6,1,1.22-.6,1.06-1.22,1ZM280.73,389.53c-.5-.05-.87-.5-.82-.99l.33-3.43c.05-.5.5-.87.99-.82s.87.5.82.99l.15-1.59c.08-.36.35-.86,1.2-.86,1.33,0,1.5-.77,1.99-1.87s1.34-.73,2.17.21,2.43,1.18,3.19.18c.76-.99,2.13-.2,2.57.81.44,1.01.59,2.6.59,2.6l-.16,1.65c.05-.5.5-.87.99-.82s.87.5.82.99l-.33,3.43c-.05.5-.5.87-.99.82s-.87-.5-.82-.99l-.02.2c-.31,3.23-3.18,5.59-6.41,5.28h0c-3.23-.31-5.59-3.18-5.28-6.41l.02-.2c-.05.5-.5.87-.99.82ZM283.85,395.15s3.68,2.97,7.36.3c0,0,.16,1.66.89,3.27-3.88,1.77-7.53.73-9.05.12.38-.9.7-2.1.8-3.7ZM281.22,401.24s.64-.35,1.29-1.37c.79.33,2.12.78,3.78.94,1.82.18,4.04,0,6.35-1.08.39.59.88,1.12,1.5,1.47,0,0-6.75,3.18-12.92.04ZM294.4,393.97c-.61-.06-1.06-.6-1-1.22s.6-1.06,1.22-1,1.06.6,1,1.22-.6,1.06-1.22,1Z"/>
    <path class="cls-1" d="M288.91,373.23c.2.02.41.04.61.08,1.31.2,2.47.67,3.5,1.33.19-.43.33-.91.37-1.41.24-2.48-1.58-4.68-4.05-4.92-2.48-.24-4.68,1.58-4.92,4.05-.05.47-.02.93.08,1.38,1.41-.48,2.89-.66,4.41-.51Z"/>
  </g>
  <g>
    <path class="cls-1" d="M354.67,410.46s-24.66,18.9-33.22,51.92c-8.56,33.02-4.77,71.14-4.77,71.14l9.21-.69s-4.65-35.19,4.76-70.83c6.83-25.89,24.02-51.53,24.02-51.53Z"/>
    <rect class="cls-1" x="306.88" y="512.15" width="26.08" height="6.58" rx="3.29" ry="3.29" transform="translate(-30.67 20.35) rotate(-3.48)"/>
    <rect class="cls-1" x="310.23" y="532.45" width="21.84" height="6.58" rx="3.29" ry="3.29" transform="translate(-31.89 20.46) rotate(-3.48)"/>
  </g>
  <g>
    <path class="cls-1" d="M254.58,516.99h0c.17-4.53-1.37-9.25-4.66-13.11-4.95-.62-9.57,2.74-10.45,7.7-.14.78-.18,1.56-.12,2.32-.7-1.63-.94-3.47-.61-5.35.73-4.12,4.04-7.14,7.98-7.69-6.61-4.95-15.58-5.14-21.66.04-2.25,1.93-3.84,4.36-4.74,7.04l2.96,3.65c1.5-.83,3.28-1.17,5.1-.85,4.2.75,7,4.77,6.25,8.97-.25,1.42-.88,2.68-1.76,3.7l2.18,2.68c.65-.86,1.46-1.72,2.4-2.52,1.82-1.56,3.78-2.59,5.42-2.97,1.44-.33,2.64-.17,3.28.59h0s.08.14.2.3c0,0,0,0,0,.01.21.27.57.69,1.08,1.08.99.76,2.58,1.43,4.79.87-.13.12-2.84,2.43-5.8.4-.49,1.7-1.92,3.77-4.02,5.56-.99.85-2.03,1.54-3.02,2.05l.95,1.16c3.12-.35,6.11-1.58,8.61-3.71,2.46-2.1,4.12-4.81,4.97-7.77.39-1.34.62-2.73.67-4.15ZM250.03,513.47c.89.16,1.47,1,1.32,1.89s-1,1.47-1.89,1.32c-.89-.16-1.47-1-1.32-1.89.16-.89,1-1.47,1.89-1.32Z"/>
    <line class="cls-1" x1="235.03" y1="526.1" x2="232.86" y2="523.42"/>
    <line class="cls-1" x1="240.33" y1="532.63" x2="239.38" y2="531.46"/>
    <path class="cls-1" d="M246.34,521.49c-.12-.16-.18-.27-.2-.3.08.09.15.19.2.3Z"/>
    <path class="cls-1" d="M254.58,516.99h0c.17-4.53-1.37-9.25-4.66-13.11-4.95-.62-9.57,2.74-10.45,7.7-.14.78-.18,1.56-.12,2.32.18,2.65,1.48,5.07,3.51,6.7,1.44-.33,2.64-.17,3.28.59h0s.08.14.2.3c0,0,0,0,0,.01.21.27.57.69,1.08,1.08,2.35.34,4.63-.23,6.49-1.44.39-1.34.62-2.73.67-4.15ZM250.03,513.47c.89.16,1.47,1,1.32,1.89s-1,1.47-1.89,1.32c-.89-.16-1.47-1-1.32-1.89.16-.89,1-1.47,1.89-1.32Z"/>
    <path class="cls-1" d="M249.92,503.88c-4.95-.62-9.57,2.74-10.45,7.7-.14.78-.18,1.56-.12,2.32,1.21,2.83,3.77,5.01,7.02,5.59,3.1.55,6.12-.48,8.22-2.51h0c.17-4.53-1.37-9.25-4.66-13.11ZM249.46,516.68c-.89-.16-1.47-1-1.32-1.89.16-.89,1-1.47,1.89-1.32s1.47,1,1.32,1.89-1,1.47-1.89,1.32Z"/>
  </g>
  <g>
    <rect class="cls-1" x="294.72" y="549.18" width="9.81" height="16.16" transform="translate(-293.42 777.74) rotate(-82.13)"/>
    <rect class="cls-1" x="292.11" y="551.38" width="16.36" height="2.04" transform="translate(-288.03 774.22) rotate(-82.13)"/>
    <rect class="cls-1" x="300.15" y="538.63" width="2.52" height="11.34" transform="translate(-279.04 768.33) rotate(-82.13)"/>
    <rect class="cls-1" x="299.51" y="543.31" width="2.52" height="11.34" transform="translate(-284.23 771.73) rotate(-82.13)"/>
    <g>
      <rect class="cls-1" x="295.31" y="575.83" width="2.52" height="6.93" transform="translate(-317.87 793.74) rotate(-82.13)"/>
      <rect class="cls-1" x="294.92" y="580.49" width="2.02" height="6.93" transform="translate(-323.05 797.13) rotate(-82.13)"/>
      <path class="cls-1" d="M318.63,585.84c1.11-9.26-2.15-17.9-7.96-23.25-2.81-2.59-6.23-4.41-10.03-5.16-.49-.1-.98-.17-1.49-.24-.18-.02-.36-.04-.53-.05-3.87-.36-7.64.42-11.04,2.11-7.35,3.65-12.96,11.53-14.11,21.19-.06.47-.1.94-.13,1.41l16.08,2.22.28-2-2.43-.34c-.67-.09-1.13-.71-1.04-1.37s.71-1.13,1.37-1.04l2.43.34.35-2.5-2.43-.34c-.67-.09-1.13-.71-1.04-1.37s.71-1.13,1.37-1.04l2.43.34.55-4c.1-.74.78-1.25,1.52-1.15l.29.04c.74.1,1.25.78,1.15,1.52l-.55,4,6.87.95.55-4c.1-.74.78-1.25,1.52-1.15l.29.04c.74.1,1.25.78,1.15,1.52l-.55,4,2.43.34c.67.09,1.13.71,1.04,1.37-.09.67-.71,1.13-1.37,1.04l-2.43-.34-.35,2.5,2.43.34c.67.09,1.13.71,1.04,1.37s-.71,1.13-1.37,1.04l-2.43-.34-.28,2,16.09,2.22c.15-.73.26-1.47.35-2.23Z"/>
    </g>
  </g>
  <g>
    <path class="cls-1" d="M339.42,598.37s-4.89-4.11-8.18-8.35c-2.19,3.83-5.91,8.45-5.91,8.45,0,0,2.98,1.54,6.62-1.01,0,0,3.6,2.46,7.48.91Z"/>
    <path class="cls-1" d="M337.06,566.9c-2.65-13.16-13.66-18.25-13.66-18.25l-.59,2.87-3.18-1.4s-1.69,16.46,3.85,27.66c2.39,4.83,5.26,9.02,7.76,12.23,3.41-5.95,7.44-15.12,5.82-23.12ZM324.68,554.94c-.07-.77.49-1.45,1.26-1.52s1.45.49,1.52,1.26-.49,1.45-1.26,1.52-1.45-.49-1.52-1.26ZM324.44,562.33l2.3-.5s1.43,5.96,4.83,8.43l-2.75.88c-.73-.92-1.76-2.22-1.76-2.22l.08,2.76-2.6.83s-2.12-6.5-.1-10.19Z"/>
  </g>
  <g>
    <path class="cls-1" d="M267.02,559.93l-2.59,12.46s-2.24-1.97-1.27-5.27,3.26-5.54,3.85-7.19Z"/>
    <path class="cls-1" d="M267.02,559.93l-2.59,12.46s2.84-.91,3.26-4.33c.42-3.42-.78-6.38-.67-8.13Z"/>
    <path class="cls-1" d="M264.45,572.3c-4.63,1.4-7.92-2.77-7.92-2.77-.71,8.66,6.25,10.12,6.39,10.15.15.03,7.11,1.46,9.91-6.76,0,0-4.68,2.52-8.37-.61Z"/>
  </g>
  <g>
    <rect class="cls-1" x="282.24" y="600.97" width="9.29" height="29.27" rx="4.64" ry="4.64" transform="translate(-336.8 884.48) rotate(-88.33)"/>
    <g>
      <path class="cls-1" d="M298.56,594.94c-1.29-.42-.98,1.16-3.37,4.03-2.32,2.79-6.03,3.19-7.89,3.2l-.19,6.59c4.19.01,9.47-.54,11.42-3.18,3.42-4.63,1.31-10.22.03-10.64Z"/>
      <path class="cls-1" d="M276.46,594.3c1.31-.34.91,1.22,3.13,4.22,2.16,2.92,5.84,3.53,7.69,3.65l-.19,6.59c-4.18-.23-9.42-1.09-11.22-3.84-3.15-4.83-.72-10.28.59-10.62Z"/>
    </g>
    <ellipse class="cls-1" cx="287.48" cy="595.33" rx="4.49" ry="7.03" transform="translate(-315.96 865.38) rotate(-88.33)"/>
    <rect class="cls-1" x="277.81" y="620.55" width="17.41" height="15.19" transform="translate(-349.69 896.29) rotate(-88.33)"/>
    <rect class="cls-1" x="282.43" y="617.7" width="8.18" height="22.86" rx="4.09" ry="4.09" transform="translate(-350.67 897.24) rotate(-88.33)"/>
    <g>
      <g>
        <ellipse class="cls-1" cx="315.7" cy="685.76" rx="6.48" ry="4.77" transform="translate(-270.06 209.5) rotate(-26.17)"/>
        <ellipse class="cls-1" cx="311.92" cy="680.3" rx="6.22" ry="3.54" transform="translate(-338.53 310.15) rotate(-35.73)"/>
      </g>
      <g>
        <ellipse class="cls-1" cx="254.05" cy="683.97" rx="4.77" ry="6.48" transform="translate(-466.35 568.29) rotate(-60.5)"/>
        <ellipse class="cls-1" cx="258.14" cy="678.74" rx="3.54" ry="6.22" transform="translate(-431.56 451.52) rotate(-50.94)"/>
      </g>
    </g>
    <g>
      <g>
        <path class="cls-1" d="M285.73,655.33l-.07,2.41c2.33.07,4.29-1.77,4.35-4.11s-1.77-4.29-4.11-4.35l-.07,2.41c1,.03,1.79.87,1.76,1.87s-.87,1.79-1.87,1.76Z"/>
        <path class="cls-1" d="M286.1,642.76l-.08,2.7c4.56-.03,13.74-.52,21.28-3.63,5.72-2.36,8.84-5.02,10.48-6.9-.72-.78-1.49-1.47-2.29-2.08-2.03,1.91-5.19,4.15-10.04,6.15-6.62,2.73-14.24,3.55-19.35,3.76Z"/>
        <path class="cls-1" d="M299.52,673.47c.23-.37.46-.81.7-1.28.93-1.84,2.21-4.36,5.54-4.46,2.41-.07,3.5,1.05,3.93,1.73.04.06.08.13.12.2,2.51-3.02,7.08-7.36,13.25-8.54.6-1.8,1-3.61,1.22-5.42-1.28,1.86-2.81,3.08-4.56,3.63-2.78.87-5.38-.17-6.9-1.04-1.12,2.52-4.17,7.31-11.55,8.49-1.52.24-2.88.33-4.11.29-6.15-.18-8.84-3.38-9.78-4.9-.67.03-1.28.05-1.84.06l-.29,9.96c1.19.04,2.82.03,4.26-.25,1.28-.48,3.55-.75,4.47,1.14.54,1.11.14,2.34-.43,3.33,1.82-.04,4.44-.56,5.97-2.96Z"/>
        <path class="cls-1" d="M310.34,645.23c-2.33-.07-4.29,1.77-4.35,4.11-.07,2.33,1.77,4.29,4.11,4.35s4.29-1.77,4.35-4.11-1.77-4.29-4.11-4.35ZM310.16,651.28c-1-.03-1.79-.87-1.76-1.87s.87-1.79,1.87-1.76,1.79.87,1.76,1.87-.87,1.79-1.87,1.76Z"/>
        <path class="cls-1" d="M303.6,649.27c.05-1.59.66-3.04,1.63-4.16-5.73,1.84-11.81,2.47-16.15,2.67,2.04,1.18,3.39,3.41,3.32,5.93-.08,2.81-1.91,5.15-4.41,6.04,5.97-.29,15.31-1.16,22.01-3.67-3.64-.11-6.51-3.16-6.41-6.81Z"/>
        <path class="cls-1" d="M304.54,636.79c4.24-1.75,7.05-3.67,8.89-5.3-8.02-4.54-18.75-2.78-26.94-2.36l-.33,11.22c4.93-.22,12.2-1.01,18.37-3.56Z"/>
        <path class="cls-1" d="M319,657.05c2.13-.67,3.91-2.96,5.23-6.66-2.16,1.82-5.28,4.06-9.54,6.19,1.14.53,2.72.97,4.31.47Z"/>
        <path class="cls-1" d="M309.63,673.91c-.33.55-1.04.74-1.6.43-.56-.31-.78-1.01-.49-1.58.38-.75.42-1.54.12-2.02-.35-.56-1.2-.65-1.85-.63-1.78.06-2.51,1.23-3.48,3.16-.25.5-.51,1.01-.81,1.48-2.31,3.63-6.27,4.12-8.62,4.05-1.06-.03-1.79-.18-1.88-.2-.43-.09-.77-.41-.9-.82-.13-.42-.01-.87.3-1.18.92-.93,1.55-2.15,1.4-2.46-.13-.26-1.02-.14-1.55.07-.07.03-.14.05-.21.06-1.68.33-3.54.36-4.89.31l-.31,10.64s19.13.94,31.76-13.21c2.32-2.6,4.09-5.35,5.35-8.17-7.58,2.29-12.29,9.97-12.35,10.06Z"/>
        <path class="cls-1" d="M300.88,664.43c5.13-.82,7.77-3.67,9.06-5.8-6.15,2.12-13.93,3.02-19.69,3.39,1.44,1.49,4.54,3.38,10.63,2.41Z"/>
        <path class="cls-1" d="M310.77,642.88c3.47.29,6.16,3.25,6.06,6.78-.04,1.45-.56,2.77-1.38,3.84,4.02-2.22,6.81-4.47,8.54-6.08-.74-3.87-2.34-7.5-4.67-10.62-1.62,1.78-4.28,3.99-8.55,6.08Z"/>
      </g>
      <g>
        <path class="cls-1" d="M285.73,655.33l-.07,2.41c-2.33-.07-4.18-2.02-4.11-4.35.07-2.33,2.02-4.18,4.35-4.11l-.07,2.41c-1-.03-1.84.76-1.87,1.76s.76,1.84,1.76,1.87Z"/>
        <path class="cls-1" d="M286.1,642.76l-.08,2.7c-4.55-.3-13.69-1.32-21.03-4.86-5.57-2.69-8.54-5.53-10.06-7.49.77-.74,1.57-1.38,2.41-1.94,1.91,2.02,4.94,4.44,9.67,6.72,6.45,3.11,14.01,4.37,19.1,4.88Z"/>
        <path class="cls-1" d="M270.92,672.64c-.21-.38-.41-.84-.62-1.32-.83-1.89-1.96-4.48-5.27-4.77-2.4-.21-3.55.85-4.02,1.5-.04.06-.09.13-.13.19-2.33-3.16-6.64-7.76-12.73-9.29-.49-1.83-.79-3.67-.91-5.48,1.17,1.93,2.62,3.24,4.34,3.89,2.73,1.03,5.38.14,6.95-.64.97,2.58,3.74,7.54,11.03,9.15,1.5.33,2.86.49,4.08.53,6.15.18,9.03-2.86,10.05-4.32.66.07,1.28.12,1.83.17l-.29,9.96c-1.19-.03-2.81-.14-4.24-.49-1.25-.56-3.5-.95-4.53.88-.6,1.07-.28,2.33.23,3.35-1.82-.14-4.4-.81-5.79-3.3Z"/>
        <path class="cls-1" d="M261.76,643.82c2.33.07,4.18,2.02,4.11,4.35s-2.02,4.18-4.35,4.11-4.18-2.02-4.11-4.35,2.02-4.18,4.35-4.11ZM261.58,649.86c1,.03,1.84-.76,1.87-1.76s-.76-1.84-1.76-1.87c-1-.03-1.84.76-1.87,1.76s.76,1.84,1.76,1.87Z"/>
        <path class="cls-1" d="M268.25,648.24c.05-1.59-.48-3.07-1.39-4.24,5.62,2.17,11.64,3.16,15.97,3.6-2.11,1.06-3.58,3.21-3.66,5.72-.08,2.81,1.61,5.25,4.05,6.29-5.94-.64-15.22-2.04-21.76-4.94,3.64.1,6.68-2.78,6.79-6.42Z"/>
        <path class="cls-1" d="M268.03,635.73c-4.13-1.99-6.83-4.07-8.57-5.81,8.27-4.06,18.88-1.69,27.03-.79l-.33,11.22c-4.91-.51-12.12-1.72-18.13-4.62Z"/>
        <path class="cls-1" d="M252.42,655.12c-2.08-.8-3.73-3.18-4.84-6.95,2.05,1.95,5.04,4.36,9.16,6.73-1.17.46-2.77.81-4.33.22Z"/>
        <path class="cls-1" d="M260.79,672.49c.3.57.99.8,1.57.52.58-.28.83-.96.58-1.55-.33-.77-.33-1.56,0-2.02.39-.53,1.23-.58,1.88-.52,1.78.16,2.43,1.37,3.3,3.35.22.51.45,1.04.72,1.52,2.09,3.76,6.02,4.48,8.37,4.55,1.06.03,1.8-.07,1.89-.09.43-.06.79-.36.95-.77.15-.41.06-.87-.23-1.2-.86-.98-1.42-2.24-1.25-2.54.14-.25,1.02-.08,1.54.16.07.03.14.06.21.07,1.66.43,3.52.56,4.87.6l-.31,10.64s-19.15-.17-30.94-15.04c-2.16-2.73-3.77-5.58-4.87-8.46,7.44,2.73,11.69,10.67,11.74,10.76Z"/>
        <path class="cls-1" d="M270.08,663.53c-5.08-1.11-7.55-4.12-8.71-6.31,6.02,2.48,13.73,3.82,19.46,4.53-1.52,1.4-4.72,3.11-10.75,1.79Z"/>
        <path class="cls-1" d="M261.46,641.44c-3.48.09-6.34,2.89-6.44,6.41-.04,1.45.39,2.8,1.16,3.92-3.89-2.45-6.54-4.85-8.17-6.56.97-3.82,2.77-7.35,5.28-10.33,1.51,1.87,4.04,4.24,8.18,6.57Z"/>
      </g>
    </g>
    <g>
      <g>
        <path class="cls-1" d="M302.66,684.23c-.35-1.17-1.58-1.84-2.75-1.49-5.36,1.6-10.53,2.06-15.03,1.98l-.13,4.46c4.89.09,10.53-.43,16.42-2.19,1.17-.35,1.84-1.58,1.49-2.75Z"/>
        <path class="cls-1" d="M306.75,687.2c-.43-1.14-1.71-1.72-2.85-1.29-6.84,2.57-13.42,3.35-19.15,3.25l-.13,4.47c6.2.1,13.35-.77,20.84-3.58,1.14-.43,1.72-1.71,1.29-2.85Z"/>
      </g>
      <g>
        <path class="cls-1" d="M267.15,683.2c.42-1.15,1.69-1.74,2.84-1.33,5.26,1.91,10.39,2.67,14.89,2.85l-.13,4.46c-4.89-.2-10.48-1.04-16.27-3.14-1.15-.42-1.74-1.69-1.33-2.84Z"/>
        <path class="cls-1" d="M262.9,685.93c.5-1.12,1.8-1.62,2.92-1.13,6.68,2.96,13.2,4.12,18.93,4.36l-.13,4.47c-6.19-.26-13.28-1.54-20.59-4.79-1.12-.5-1.62-1.8-1.13-2.92Z"/>
      </g>
    </g>
    <g>
      <g>
        <path class="cls-1" d="M319.75,631.29c-4.12-.12-6.86-1.88-9.5-3.58-2.03-1.3-4.12-2.65-6.95-3.34-6.3-1.54-11.01.52-11.06.54l-.98-2.17c.22-.1,5.47-2.43,12.61-.69,3.22.78,5.48,2.24,7.68,3.65,2.59,1.66,4.82,3.1,8.28,3.2.03,0,.06,0,.1,0l-.05,2.38s-.07,0-.11,0Z"/>
        <path class="cls-1" d="M317.79,625.87c-2.61-.08-4.74-1.43-7.53-3.22-.77-.5-1.57-1.01-2.47-1.55-5.06-3.07-9.97-2.53-10.02-2.52l-.29-2.37c.23-.03,5.75-.67,11.54,2.85.93.56,1.77,1.11,2.52,1.58,3.71,2.38,5.57,3.57,9.02,2.36l.79,2.25c-1.33.46-2.49.65-3.57.62Z"/>
        <path class="cls-1" d="M290.44,613.62l-.06-2.38c12.08-.3,14.87-7.25,14.98-7.54l2.24.83c-.13.36-3.37,8.76-17.16,9.1Z"/>
        <path class="cls-1" d="M303.73,594.2s5.67-2.98,9.87,1.88c0,0-1.37,8.57-6.7,9.59l-2.13-.82s-.64-1.5-.25-4.55c.39-3.06-.79-6.1-.79-6.1Z"/>
        <path class="cls-1" d="M331.82,624.76s2.12-6.05-3.31-9.49c0,0-8.27,2.62-8.5,8.04l1.12,1.99s1.57.41,4.54-.43c2.97-.84,6.15-.12,6.15-.12Z"/>
        <path class="cls-1" d="M298.77,616.65c-1.72-.05-3.56-.59-5.45-1.86l1.33-1.98c6.85,4.59,13.81-5.31,14.03-5.64l-1.03,5.25c-2.14,2.46-4.16,4.37-8.87,4.23Z"/>
        <ellipse class="cls-1" cx="327.08" cy="632.58" rx="6.36" ry="5.7" transform="translate(-314.74 941.14) rotate(-88.33)"/>
        <path class="cls-1" d="M328.01,639.95s2.39-1.34,3.5,1.98c.94,2.79-.09,8.7-3.39,12.17-.49.51-1.33,0-1.1-.68.74-2.14,1.46-5.43.41-8.48-1.31-3.81.57-4.99.57-4.99Z"/>
        <path class="cls-1" d="M317,620.59c-.55-.02-1.09-.19-1.56-.55-.45-.34-4.39-3.42-4.83-8.25-.63-6.87,4.3-11.5,4.51-11.69,1.11-1.02,2.83-.95,3.85.16,1.02,1.1.95,2.82-.14,3.84-.08.07-3.17,3.09-2.79,7.19.19,2.05,2.01,3.87,2.69,4.4,1.2.9,1.44,2.61.54,3.81-.55.74-1.41,1.11-2.26,1.09Z"/>
        <ellipse class="cls-1" cx="321.16" cy="609.75" rx="4.48" ry="3.15" transform="translate(-297.67 913.05) rotate(-88.33)"/>
      </g>
      <g>
        <path class="cls-1" d="M253.17,629.35s-.07,0-.11,0l.09-2.38c3.53.13,5.85-1.19,8.55-2.71,2.27-1.28,4.62-2.6,7.88-3.2,7.22-1.32,12.33,1.31,12.55,1.42l-1.11,2.11s-4.63-2.35-11.01-1.19c-2.86.52-5.03,1.75-7.13,2.93-2.74,1.54-5.57,3.14-9.7,3.02Z"/>
        <path class="cls-1" d="M255.44,624.06c-1.08-.03-2.23-.29-3.53-.83l.92-2.2c3.38,1.41,5.3.32,9.14-1.83.78-.44,1.65-.93,2.61-1.44,5.99-3.17,11.46-2.22,11.69-2.17l-.43,2.35.22-1.17-.21,1.17s-4.92-.83-10.14,1.94c-.93.49-1.76.96-2.56,1.41-2.89,1.62-5.09,2.86-7.7,2.78Z"/>
        <path class="cls-1" d="M283.46,613.42c-13.75-1.14-16.49-9.72-16.6-10.08l2.28-.7c.1.3,2.48,7.4,14.52,8.4l-.2,2.38Z"/>
        <path class="cls-1" d="M271.32,593.26s-5.49-3.31-9.97,1.31c0,0,.87,8.63,6.14,9.96l2.18-.69s.72-1.46.51-4.53,1.14-6.04,1.14-6.04Z"/>
        <path class="cls-1" d="M241.5,622.14s-1.76-6.16,3.86-9.28c0,0,8.11,3.09,8.02,8.52l-1.24,1.92s-1.59.32-4.51-.69c-2.91-1.01-6.13-.47-6.13-.47Z"/>
        <path class="cls-1" d="M274.97,615.96c1.72.05,3.59-.39,5.55-1.54l-1.21-2.05c-7.11,4.19-13.48-6.1-13.68-6.44l.73,5.3c2,2.58,3.9,4.6,8.61,4.74Z"/>
        <ellipse class="cls-1" cx="245.77" cy="630.22" rx="6.36" ry="5.7" transform="translate(-391.32 857.57) rotate(-88.33)"/>
        <path class="cls-1" d="M244.42,637.52s-2.31-1.47-3.61,1.77c-1.1,2.73-.41,8.69,2.67,12.35.46.54,1.33.07,1.14-.61-.61-2.18-1.14-5.51.08-8.49,1.53-3.73-.28-5.02-.28-5.02Z"/>
        <path class="cls-1" d="M256.54,618.83c-.86-.02-1.69-.45-2.19-1.22-.83-1.25-.49-2.95.77-3.78.7-.48,2.62-2.19,2.93-4.22.62-4.12-2.33-7.3-2.36-7.33-1.05-1.08-1.02-2.81.07-3.85,1.08-1.05,2.81-1.02,3.85.07.2.21,4.85,5.11,3.82,11.93-.72,4.79-4.84,7.64-5.3,7.95-.49.32-1.04.47-1.58.45Z"/>
        <ellipse class="cls-1" cx="253.01" cy="607.77" rx="4.48" ry="3.15" transform="translate(-361.85 843.01) rotate(-88.33)"/>
      </g>
    </g>
    <g>
      <path class="cls-1" d="M320.27,598.07l-3.83-.11c-.87-.03-1.48-.86-1.24-1.7l.69-2.42c.17-.58.71-.98,1.32-.96l3.83.11c.87.03,1.48.86,1.24,1.7l-.69,2.42c-.17.58-.71.98-1.32.96Z"/>
      <path class="cls-1" d="M254.58,596.16l3.83.11c.87.03,1.53-.78,1.34-1.62l-.55-2.45c-.13-.59-.65-1.02-1.26-1.04l-3.83-.11c-.87-.03-1.53.78-1.34,1.62l.55,2.45c.13.59.65,1.02,1.26,1.04Z"/>
    </g>
  </g>
  <g>
    <circle class="cls-1" cx="200.7" cy="287.52" r="10.08"/>
    <g>
      <g id="_Radial_Repeat_" data-name="&amp;lt;Radial Repeat&amp;gt;">
        <polygon class="cls-1" points="195.88 275.96 192.49 270.49 197.23 268.78 197.71 275.43 195.88 275.96"/>
      </g>
      <g id="_Radial_Repeat_-2" data-name="&amp;lt;Radial Repeat&amp;gt;">
        <polygon class="cls-1" points="205.47 275.93 206.95 269.67 211.5 271.82 207.13 276.86 205.47 275.93"/>
      </g>
      <g id="_Radial_Repeat_-3" data-name="&amp;lt;Radial Repeat&amp;gt;">
        <polygon class="cls-1" points="212.27 282.7 217.74 279.32 219.45 284.06 212.79 284.53 212.27 282.7"/>
      </g>
      <g id="_Radial_Repeat_-4" data-name="&amp;lt;Radial Repeat&amp;gt;">
        <polygon class="cls-1" points="212.29 292.29 218.55 293.77 216.41 298.33 211.37 293.95 212.29 292.29"/>
      </g>
      <g id="_Radial_Repeat_-5" data-name="&amp;lt;Radial Repeat&amp;gt;">
        <polygon class="cls-1" points="205.53 299.09 208.91 304.56 204.17 306.27 203.7 299.61 205.53 299.09"/>
      </g>
      <g id="_Radial_Repeat_-6" data-name="&amp;lt;Radial Repeat&amp;gt;">
        <polygon class="cls-1" points="195.94 299.12 194.46 305.38 189.9 303.23 194.27 298.19 195.94 299.12"/>
      </g>
      <g id="_Radial_Repeat_-7" data-name="&amp;lt;Radial Repeat&amp;gt;">
        <polygon class="cls-1" points="189.14 292.35 183.66 295.73 181.96 290.99 188.61 290.52 189.14 292.35"/>
      </g>
      <g id="_Radial_Repeat_-8" data-name="&amp;lt;Radial Repeat&amp;gt;">
        <polygon class="cls-1" points="189.11 282.76 182.85 281.28 185 276.72 190.04 281.09 189.11 282.76"/>
      </g>
    </g>
  </g>
  <path class="cls-1" d="M227.51,233.15s1.58,7.35,11.35,12.74c9.77,5.39,14.81,15.11,12.22,23.54s-10.75,6.42-10.75,6.42c0,0-.22,6.16-1.77,10.3l-2.18-.32s2.56-4.13,2.54-12.22c-.02-8.08-6.02-25.28-6.02-25.28,0,0,5.98,21.24,4.32,27.14,0,0-3.58,3.75-9.27.89s-8.93-9.08-5.29-18.58c2.44-6.37,5.3-9.6,5.75-13.46.61-5.34-.9-11.18-.9-11.18Z"/>
  <path class="cls-1" d="M176.98,338.37c-2.38-.07-4.26-.82-5.58-1.59-2.83-1.65-4.88-4.41-5.64-7.56-.84-3.51-.42-9.2,2.47-13.42,2.17-3.17,5.46-5.13,9.51-5.68,9.16-1.24,13.86,3.95,15.07,6.86.4.96-.06,2.07-1.02,2.47-.96.4-2.06-.05-2.46-1.01-.12-.26-2.62-5.72-11.07-4.58-3,.41-5.32,1.78-6.9,4.07-2.39,3.49-2.45,8.13-1.91,10.4.51,2.13,1.95,4.06,3.86,5.18,1.97,1.15,4.3,1.38,6.75.68,2.94-.84,5.18-2.67,6.16-5,.79-1.88.67-3.93-.34-5.78-.73-1.34-1.69-2.13-2.92-2.4-1.92-.43-3.97.49-4.66,1.01-1.28.95-2.31,3.14-1.68,4.35.22.43.78.58,1.22.53.25-.02.84-.14,1.01-.73.29-1,1.33-1.59,2.34-1.3,1,.29,1.59,1.33,1.3,2.34-.55,1.92-2.19,3.25-4.27,3.46-2.1.21-4.05-.8-4.96-2.56-1.72-3.34.52-7.45,2.8-9.13,1.69-1.25,4.84-2.3,7.73-1.66,2.3.51,4.17,1.99,5.42,4.29,1.56,2.88,1.74,6.09.5,9.05-1.42,3.4-4.56,6.01-8.6,7.18-1.5.43-2.88.58-4.12.55Z"/>
  <g>
    <path class="cls-1" d="M323.04,351.46c-5.43-.16-9.72-4.7-9.56-10.14.16-5.43,4.7-9.72,10.14-9.56,5.43.16,9.72,4.7,9.56,10.14-.16,5.43-4.7,9.72-10.14,9.56ZM323.54,334.41c-3.97-.12-7.3,3.02-7.41,6.99s3.02,7.3,6.99,7.41c3.97.12,7.3-3.02,7.41-6.99s-3.02-7.3-6.99-7.41Z"/>
    <rect class="cls-1" x="325.13" y="349.85" width="6.27" height="2.42" rx="1.21" ry="1.21" transform="translate(-120.34 178.55) rotate(-25.89)"/>
    <rect class="cls-1" x="332.08" y="362.78" width="4.92" height="2.42" rx="1.21" ry="1.21" transform="translate(-125.35 182.59) rotate(-25.89)"/>
    <rect class="cls-1" x="329.95" y="351.05" width="3.28" height="12.99" transform="translate(-122.84 180.66) rotate(-25.89)"/>
  </g>
  <g>
    <path class="cls-1" d="M272.46,333.41l-2.12,20.45c-.11,1.1.68,2.08,1.78,2.2l9.46.98c1.1.11,2.08-.68,2.2-1.78l1.03-9.99c.11-1.1,1.1-1.9,2.2-1.78l5.21.54c1.1.11,1.9,1.1,1.78,2.2l-1.03,9.99c-.11,1.1.68,2.08,1.78,2.2l10.72,1.11c1.1.11,2.08-.68,2.2-1.78l2.12-20.45c.11-1.1-.68-2.08-1.78-2.2l-33.35-3.45c-1.1-.11-2.08.68-2.2,1.78Z"/>
    <path class="cls-1" d="M302.58,306.12l-16.83-1.74c-.86-.09-1.69.39-2.04,1.19l-9,20.52c-.54,1.24.28,2.65,1.63,2.79l30.45,3.15c1.35.14,2.44-1.07,2.16-2.4l-4.61-21.93c-.18-.85-.89-1.49-1.75-1.58ZM292.52,327.32c-1.72.23-3.05-1.4-2.47-3.04.27-.77.99-1.35,1.8-1.46,1.72-.23,3.05,1.4,2.47,3.04-.27.77-.99,1.35-1.8,1.46ZM293.27,320.11c-1.72.23-3.05-1.4-2.47-3.04.27-.77.99-1.35,1.8-1.46,1.72-.23,3.05,1.4,2.47,3.04-.27.77-.99,1.35-1.8,1.46ZM294.02,312.9c-1.72.23-3.05-1.4-2.47-3.04.27-.77.99-1.35,1.8-1.46,1.72-.23,3.05,1.4,2.47,3.04-.27.77-.99,1.35-1.8,1.46Z"/>
    <g>
      <rect class="cls-1" x="292.56" y="290.49" width="4.14" height="19.6" transform="translate(-34.39 562.46) rotate(-84.09)"/>
      <rect class="cls-1" x="281.58" y="293.06" width="12.27" height="4.86" rx="2.43" ry="2.43" transform="translate(-35.81 551.28) rotate(-84.09)"/>
      <rect class="cls-1" x="296.25" y="294.58" width="12.27" height="4.86" rx="2.43" ry="2.43" transform="translate(-24.17 567.22) rotate(-84.09)"/>
    </g>
  </g>
  <g>
    <g>
      <rect class="cls-1" x="178.25" y="442.51" width="13.67" height="3.36" rx="1.68" ry="1.68" transform="translate(-264.29 616.28) rotate(-88.33)"/>
      <rect class="cls-1" x="181.61" y="442.6" width="13.67" height="3.36" rx="1.68" ry="1.68" transform="translate(-261.13 619.74) rotate(-88.33)"/>
      <rect class="cls-1" x="178.8" y="442.28" width="8.87" height="3.7" transform="translate(-266.03 614.38) rotate(-88.33)"/>
      <path class="cls-1" d="M195.85,448.93l-4.73-.14.36-12.31c.03-1.01.24-2.01.62-2.95l5.42-13.49c.21-.53.73-.86,1.3-.85h0c.75.02,1.34.64,1.31,1.39l-.73,25c-.06,1.9-1.64,3.4-3.55,3.35Z"/>
    </g>
    <g>
      <rect class="cls-1" x="208.88" y="443.4" width="13.67" height="3.36" rx="1.68" ry="1.68" transform="translate(-235.44 647.77) rotate(-88.33)"/>
      <rect class="cls-1" x="205.52" y="443.3" width="13.67" height="3.36" rx="1.68" ry="1.68" transform="translate(-238.61 644.31) rotate(-88.33)"/>
      <rect class="cls-1" x="213.13" y="443.28" width="8.87" height="3.7" transform="translate(-233.7 649.67) rotate(-88.33)"/>
      <path class="cls-1" d="M204.7,449.19l4.73.14.36-12.31c.03-1.01-.12-2.02-.44-2.98l-4.63-13.78c-.18-.54-.68-.91-1.24-.92h0c-.75-.02-1.37.57-1.39,1.31l-.73,25c-.06,1.9,1.44,3.49,3.35,3.55Z"/>
    </g>
  </g>
  <g>
    <path class="cls-1" d="M268.27,500.2c-24.99-.73-44.73-21.65-44-46.64.1-3.35.56-6.69,1.39-9.91,1.03-4.08,2.64-8,4.78-11.66,8.39-14.32,23.89-22.92,40.47-22.44,3.75.11,7.46.68,11.03,1.69,2.96.84,5.84,1.98,8.56,3.4,3.51,1.83,6.78,4.11,9.7,6.8,1.83,1.68,3.53,3.51,5.06,5.46,6.44,8.19,9.87,18.45,9.66,28.87,0,.13,0,.28,0,.43-.22,7.4-2.25,14.68-5.88,21.06-8.32,14.64-23.93,23.43-40.75,22.94ZM270.84,411.78c-15.76-.46-30.51,7.72-38.49,21.34-2.04,3.48-3.57,7.21-4.55,11.09-.78,3.06-1.23,6.23-1.32,9.42-.69,23.77,18.08,43.67,41.85,44.36,16,.47,30.85-7.9,38.77-21.82,3.46-6.07,5.39-12.99,5.59-20.03,0-.13,0-.26,0-.39.2-9.94-3.06-19.69-9.19-27.48-1.45-1.85-3.07-3.6-4.81-5.19-2.78-2.55-5.89-4.73-9.23-6.47-2.58-1.35-5.32-2.44-8.13-3.23-3.4-.96-6.93-1.5-10.5-1.6Z"/>
    <path class="cls-1" d="M256.3,473.04c-.58,1.22-.69,1.17-2.03,1.42-1.13.21-1.8.22-1.31,1.6.38,1.07.69.84.49,2.05-.24,1.46-.02,2.58,1.68,3.06,2.19.62,2.53-2.2,2.99-3.79.43-1.5,1.12-3.34.51-4.81-.25-.59-.98-.8-1.5-.43-.33.23-.66.54-.83.9Z"/>
    <path class="cls-1" d="M293.45,457.49s1.51,1.36,2.4,1.72,1.47.59,1.71,1.16.8,1.5,1.58,2.04,1.27,1.12.88,1.73-.83.61-.96,1.31-.98,1.59-2.53-.3-3.04-5.11-3.36-6.38c-.32-1.27-.03-1.42.28-1.27Z"/>
    <path class="cls-1" d="M304.77,454.3c-.41.62-1.72,2.7-2.95,3.94-1.23,1.24-1.83,2.29-1.16,2.78s2.07,1.15,2.57,1.99,1.51-.13,1.7-1.17.76-6.63.76-7.41-.59-.62-.92-.12Z"/>
    <path class="cls-1" d="M302,464.98s2.93.28,3.66.68.53,1.08.28,1.33-5.89.28-6.13.18-.3-.9.39-1.57,1.25-.72,1.81-.62Z"/>
    <path class="cls-1" d="M313.81,456.18c-.22,7.48-2.28,14.47-5.74,20.55-1.27,1.61-2.57,3.1-3.76,4.15-4.51,4.01-7.08,5.05-7.06,4.39s1.85-3.24,2.58-5.72c.73-2.48,2.96-4.63,5.31-6.41,2.35-1.78,6.24-6.82,7.21-9.38.97-2.56-.78-4.63-1.05-5.59-.27-.94,2.4-2.35,2.52-2.41,0,.14,0,.28,0,.42Z"/>
    <path class="cls-1" d="M300.2,442.6c.42-.22,1.65-1.14,1.8-2.81.14-1.68-1.07-3.48-.98-4.32.09-.85.05-1.24-1.04-1.7s-1.39-.85-1.32-2.04c.06-1.19-1.06-1.29-1.86-1.46-.8-.17-1.06-.85-.53-1.15s.5.66,1.22.47c.72-.19.81-.47,1.64.17.83.64,1.2,2.18,1.63,1.85.43-.33-.89-2.2-1.76-3.37-.87-1.17-.52-3.43-.88-4.21-.36-.78-1.77-2.51-2.88-3.3-1.11-.78-3.6-1.27-4.56-2.06-.74-.61-.91-1.87-.67-3.05-2.63-1.38-5.43-2.49-8.35-3.31-.7.58-1.39,1.05-1.74,1.09-.93.08-3.64-.9-4.69-.3-1.05.6-2.92.63-3,1.44-.08.82.28,1.76-.32,1.74s-3.16-.5-5.1.48c-1.94.98-3.97.98-3.27.62.69-.36,2.11-1.2,1.33-2.11-.77-.91-2.3-1.49-3.14-.76-.84.73-3.74,1.81-6.74,2.29-3,.49-3.79,2.49-2.38,2.61,1.42.12,4.72-.46,4.37.15-.34.62-3.78,1.37-6.26.91-2.47-.46-4.2-.56-5.66.82-1.47,1.38-1.79,3.09-2.6,2.77-.81-.33-1.54-.57-1.99-.11-.45.45-1.85,2.71-1.02,3.28.83.57,2.41-.31,3.78-1.34,1.37-1.03,2.29-.73,2.72-.47.43.26-.46,1.77-1.23,2.7-.77.93-1.37,1.9-.84,2.46.53.56,2.78-.74,3.32-2.12.53-1.38-.2-2.6.36-2.89.55-.28.94,1.29.83,2.29-.11,1.01-1.17,2.78-.49,3.65.68.87,1.61,1.03,1.74.32.13-.71.05-1.86.8-1.07.74.79.43,1.93,1.2,2.06.76.13.37,1.3,1.62.81,1.25-.48,1.88,1.31-1.36,2.47-3.23,1.16-4.37-1-5.18-1.32-.81-.33-1.4-.62-1.95.27-.54.88-1.08.62-1.88-.36-.79-.98-1.46-2.39-.71-3.66s-.49-2.04-2.56-2.34c-2.07-.3-3.17.86-4.15,1.66-.51.41-2.39,1.37-4.08,2.19-2.05,3.51-3.64,7.33-4.67,11.38.33,1.83.82,4.04,1.31,5.05.93,1.89,3.91.83,4.43,1.99.51,1.16.14,4.43-.19,6.39-.33,1.96.63,2.65,1.25,3.81.62,1.17.99,5.53.59,7.73-.39,2.2,2.7,8.48,5.09,12.04,2.4,3.55,4.57,3.62,5.69,2.95,1.13-.66.58-2.81,1.49-3.36.92-.55,1.62-.61,1.48-1.6-.14-.99-.86-2.73.11-3.03.97-.3,3.39-1.54,3.61-2.23.22-.69-1.58-3.41-1.18-6.1.41-2.7,5.16-6.99,6.62-9.16,1.46-2.17,2.57-2.47,2.61-3.82s-1.64-1.4-2.35-1.21c-.7.18-4.37.98-4.68.15-.3-.83-2.26-11.01-2.27-12.25,0-1.23.79-1.78,1.18-1.07.39.71,2.36,9.18,2.82,10.26.46,1.08,2.09,1.58,4.25.7,2.16-.88,2.07-1.74,2.72-1.12.65.62.83.64,2.41-1.12,1.58-1.76,3.32-3.65,2.59-4.41-.73-.76-2.3-2.02-2.81-1.6-.52.42-1.05-.44-1.4.14-.35.58-1.31-1.06-1.08-1.4.23-.33-.46-1.22-.58-1.48-.13-.26.11-.99.76-.39.65.61,1.37,2.13,2.17,1.68.79-.46,1.51-1.17,1.95-.42.44.75,2.41,2.74,3.32,2.08.91-.66.7,1.49,1.4,1.65.69.16,1.27-.54,1.6.09.33.63-.09,1.72.66,1.99.75.27,2.13-.6,2.65.55.52,1.14.09,3.42,1.61,5.74,1.52,2.31,2.7,4.07,3.71,4.05,1.01-.03,1.55-3.32,1.12-4.73-.42-1.41-.04-2.41.83-3.01.87-.61,2.72-1.34,3.38-3.21.66-1.87,2.25-1.36,2.85-.35.6,1,1.94,3.88,2.71,3.69.77-.2,1.58-.88,2.03-.19s.23,3.23.69,4.53c.45,1.3,2.94,4.11,3.63,4.81.69.7.98.06.95-.63-.04-.69-2.27-2.69-2.6-3.82-.32-1.13-.5-1.49.02-1.67.53-.18,1.82,1.39,2.5,1.49.68.1,2.81-2.57,2.24-4.56-.57-1.98-2.76-2.12-2.86-3.84-.09-1.73.35-1.91.64-1.94.29-.03.34,1.28.41,1.68.07.4.81-.45,1.06-1.1.24-.65-.12-1.53.29-1.75ZM257.62,430.51c-1.73.3-1.35-1.37-2.45-1.8s-1.66.42-2.21-.06c-.56-.49.86-2.64,2.15-2.73.41-.03.42.29.92.53.5.24.46-.8,1.23-.92.78-.12,1.45.54.91.93-.54.39-2.48,1.4-1.51,1.92.97.52,2.69,1.82.96,2.12ZM263.09,429.48c1.15,1.37.95,1.92.49,2.23-.46.32-.59.48-.09,1.01s.02,1.62-.93,1.59-1.8-.98-.94-1.65c.86-.67.4-1.86-.04-2.73-.45-.88.42-.46.29-1.41-.14-.95-.03-1.06.75-1.33.79-.26,2.82-.37,2.79.42-.06,1.48-3.47.5-2.32,1.87Z"/>
    <path class="cls-1" d="M303.52,431.31c.84,2.24.28,3.51-.5,2.37-.79-1.15-1.44-3.11-1.35-4.31.09-1.2.13-1.66-1.59-3.68-.82-.96-.83-2.29-.62-3.43,1.79,1.64,3.44,3.42,4.94,5.33-.61,1.02-1.43,2.23-.87,3.73Z"/>
    <path class="cls-1" d="M303.94,438.74c.54.38.74,1.13.41,1.87s-1.38.51-1.61-.48.61-1.81,1.2-1.39Z"/>
    <path class="cls-1" d="M305.01,442.76c.57.43.85,1.19.66,1.95s.14,1.62.97,2.49,1.8,2.43,1.48,2.83-.39.93.02,1.21,1.36,1.09.96,2.09-1.62.87-1.78-.53c-.15-1.4-.26-1.79-.98-2.93s-1.95-1.97-2.12-4.3c-.16-2.33-.17-3.53.78-2.81Z"/>
    <path class="cls-1" d="M309.93,455.65c.74.27.84,1.31.26,1.58s-1.48.2-1.7,1.49.18,6.65-.68,6.48-2.17-1.42-1.7-4.27c.47-2.86,1.55-4.1,2.42-4.32s.93-1.12,1.4-.95Z"/>
    <path class="cls-1" d="M305.39,449.97s.41.02.49.75-1.14.72-1.06.11.35-.97.57-.87Z"/>
  </g>
  <g>
    <g>
      <path class="cls-1" d="M226.69,560.49h0c-2.54.89-5.32-.46-6.21-3l-21.23-60.86,9.21-3.21,21.23,60.86c.89,2.54-.46,5.32-3,6.21Z"/>
      <path class="cls-1" d="M211.21,496.9c.72-2.34,10.51-14.49,6.71-25.62-3.8-11.12-12.79-13.91-21.81-13.33-9.01.58-10.14,7.52-7.45,21.89,2.69,14.37,7.5,16.7,9.38,18.52,1.88,1.82,3.56,5.01,3.56,5.01l.59-.1,10.11,1.16s-1.82-5.21-1.1-7.54ZM191.34,478.57l-.98-3.7,8.99-2.39.98,3.7-8.99,2.39Z"/>
    </g>
    <rect class="cls-1" x="218.71" y="545.42" width="11.57" height="4.25" rx="2.12" ry="2.12" transform="translate(-167.81 104.49) rotate(-19.23)"/>
    <rect class="cls-1" x="214.97" y="534.7" width="11.57" height="4.25" rx="2.12" ry="2.12" transform="translate(-164.49 102.66) rotate(-19.23)"/>
    <rect class="cls-1" x="211.72" y="525.39" width="11.57" height="4.25" rx="2.12" ry="2.12" transform="translate(-161.6 101.07) rotate(-19.23)"/>
    <rect class="cls-1" x="220.84" y="551.53" width="11.57" height="4.25" rx="2.12" ry="2.12" transform="translate(-169.7 105.53) rotate(-19.23)"/>
    <rect class="cls-1" x="215.41" y="548.96" width="4.66" height="11.05" rx="2.33" ry="2.33" transform="translate(-170.47 102.65) rotate(-19.23)"/>
  </g>
  <g>
    <path class="cls-1" d="M330.03,399.9s6.62,1.24,7.55,7.81-10.59,9.67-13.54,14.11-2.64,7.87-2.4,10.03c.25,2.16-1.91,3.45-4.03-.37-2.12-3.82-4.55-13.19-2.18-21.72s7.39-11.41,14.59-9.86Z"/>
    <path class="cls-1" d="M336.9,414.15s-2.2,2.09-6.95,5.01c-4.75,2.92-6.05,5.39-6.17,7.91s.48,2.63,1.59.63c1.11-2,2.35-3.15,5.78-5.06,6.43-3.58,7.66-10.06,5.76-8.49Z"/>
    <path class="cls-1" d="M338.68,404.05c-.58.03-1.16-.27-1.47-.81-3.03-5.4-9.79-4.94-10.08-4.92-.86.08-1.64-.59-1.71-1.46-.07-.87.58-1.64,1.45-1.71.37-.03,9.07-.66,13.11,6.54.43.77.16,1.74-.61,2.17-.22.12-.46.19-.7.2Z"/>
    <path class="cls-1" d="M339.43,398.91c-.45.02-.9-.21-1.12-.64-2.14-4-7.88-4.02-7.94-4.01-.67,0-1.21-.53-1.22-1.2s.52-1.22,1.19-1.22c.29,0,7.26-.01,10.09,5.29.31.59.09,1.32-.5,1.63-.16.09-.34.13-.51.14Z"/>
  </g>
  <path class="cls-1" d="M266.12,354.91h0c0-.52-.05-1.05-.14-1.58-.92-5.44-6.08-9.1-11.52-8.18-5.44.92-9.1,6.08-8.18,11.52.09.53.22,1.04.39,1.54h0c.99,3.1,4.26,7.42,7.21,10.59,2.81,3.02,4.1,6.46,4.52,8.93.28,1.63,1.78,1.17,1.78,1.17,0,0,1.57-.06,1.3-1.69-.42-2.47-.33-6.14,1.33-9.92,1.74-3.97,3.4-9.11,3.31-12.37ZM256.63,357.98c-1.65.28-3.21-.83-3.49-2.48-.28-1.65.83-3.21,2.48-3.49,1.65-.28,3.21.83,3.49,2.48.28,1.65-.83,3.21-2.48,3.49Z"/>
  <g>
    <g>
      <circle class="cls-1" cx="193" cy="414.29" r="1.32"/>
      <polygon class="cls-1" points="194.65 407.16 192.35 413.31 194.05 413.7 194.65 407.16"/>
    </g>
    <g>
      <polygon class="cls-1" points="195.43 407.18 195.81 413.74 197.52 413.41 195.43 407.18"/>
      <circle class="cls-1" cx="196.86" cy="414.33" r="1.32"/>
    </g>
    <rect class="cls-1" x="199.24" y="396.4" width="7.06" height="13.17" rx="3.53" ry="3.53" transform="translate(-31.4 17.4) rotate(-4.56)"/>
    <rect class="cls-1" x="196.67" y="397.74" width="2.59" height="11.26" rx="1.3" ry="1.3" transform="translate(-31.44 17.02) rotate(-4.56)"/>
    <g>
      <path class="cls-1" d="M183.08,385.52c-4.45-21.22,12.82-29.91,12.82-29.91,1.5-1.03,3.04-1.72,4.54-2.18-.33-6.1-4.11-8.96-6.14-10.06-1.73,2.08-3.97,4.5-6.87,7.3-13.83,13.33-15.81,26.77-9.3,42.03,6.34,14.86,22.98,14.02,22.98,14.02l-.05-6.22s-14.32,2.5-17.98-14.98Z"/>
      <path class="cls-1" d="M200.12,332.47s.57,2.42-3.94,8.52c2.61,1.57,6.71,5.09,7.25,11.81,4.84-.58,8.71.91,8.71.91,4.4-17.01-12.01-21.25-12.01-21.25Z"/>
    </g>
  </g>
  <g>
    <g>
      <path class="cls-1" d="M352.91,393.95c-.31,0-.61-.04-.91-.08-2.03-.3-5.61-1.75-6.79-8.09-.86-4.6-.28-9.87.39-15.97,1-9.1,2.13-19.4-1.21-30.52-3.14-10.43-6.22-16.52-9.08-21.55-3.78-6.65-3.52-13.16.7-17.42,4.43-4.48,10.55-2.58,13.17-.95l.02.02c.65.41,15.87,10.41,19.97,35.9,4.83,29.99-1.75,45.64-3.88,49.73-2.4,4.59-7.44,9.09-12.38,8.95ZM342.94,302.07c-1.23-.04-2.58.3-3.71,1.44-3.9,3.94-1.29,9.69.02,11.98,2.99,5.26,6.22,11.63,9.48,22.49,3.61,12,2.37,23.27,1.38,32.33-.63,5.74-1.17,10.71-.44,14.64.35,1.87,1.15,4.16,3,4.43,2.59.38,6.61-2.64,8.61-6.47,4.05-7.77,7.08-24.18,3.42-46.91-3.7-22.98-17.34-32.4-17.92-32.79-.23-.14-1.9-1.09-3.82-1.14Z"/>
      <path class="cls-1" d="M355.6,401.38c-1.16-.03-2.28-.4-3.18-1.08-3.51-2.64-3.24-8.64-3.2-9.32l3.02.19c-.08,1.38.12,5.29,2,6.71.83.63,2.17.63,3.32,0,1.64-.89,2.5-2.75,2.35-5.11-.34-5.38-6.09-8.02-6.15-8.04l1.23-2.76c.31.14,7.48,3.42,7.94,10.61.22,3.54-1.25,6.51-3.93,7.96-1.09.59-2.27.86-3.39.83Z"/>
      <path class="cls-1" d="M354.27,386.79c-1.89-.06-3.39-1.64-3.33-3.53s1.64-3.39,3.53-3.33,3.39,1.64,3.33,3.53-1.64,3.39-3.53,3.33ZM354.4,382.26c-.61-.02-1.12.46-1.14,1.07s.46,1.12,1.07,1.14,1.12-.46,1.14-1.07-.46-1.12-1.07-1.14Z"/>
      <path class="cls-1" d="M346.52,387.07c-8.34-3.35-7.46-13.26-6.68-22,.13-1.45.26-2.96.36-4.4.55-8.61-1.04-17.09-5.16-27.48-1.06-2.67-2.29-5.38-3.49-8.01-3.42-7.51-6.37-13.99-4.78-18.39.91-2.51,2.38-4.25,4.38-5.19,2.89-1.35,5.69-.4,6-.29l-.77,2.13-.75,2.14c-.96-.32-3.34-.7-4.59,2.75-.96,2.66,2.02,9.19,4.64,14.96,1.22,2.68,2.48,5.45,3.58,8.22,4.37,11.04,6.05,20.12,5.46,29.44-.09,1.49-.23,3.03-.36,4.51-.82,9.23-1,15.43,3.85,17.38l-1.69,4.21Z"/>
    </g>
    <circle class="cls-1" cx="345.55" cy="307.39" r="1.95"/>
    <g>
      <path class="cls-1" d="M360.3,374.68c-.06,0-.12,0-.18-.02-.51-.12-.83-.62-.71-1.13.03-.13,3.05-13.61,1.88-30.11-1.16-16.37-11.91-31.21-12.02-31.36-.31-.42-.22-1.01.2-1.32.42-.31,1.01-.22,1.32.2.46.62,11.18,15.42,12.38,32.35,1.19,16.8-1.89,30.53-1.92,30.66-.1.45-.51.75-.95.73Z"/>
      <path class="cls-1" d="M346.7,317.38c-.32,0-.63-.18-.8-.49-.25-.46-.09-1.03.37-1.29l4.81-2.68c.45-.25,1.03-.09,1.29.37.25.46.09,1.03-.37,1.29l-4.81,2.68c-.15.09-.32.12-.49.12Z"/>
      <path class="cls-1" d="M348.7,320.97c-.32,0-.63-.18-.8-.49-.25-.46-.09-1.03.37-1.29l4.81-2.68c.46-.25,1.03-.09,1.29.37.25.46.09,1.03-.37,1.29l-4.81,2.68c-.15.09-.32.12-.49.12Z"/>
      <path class="cls-1" d="M352.74,329.56c-.32,0-.63-.18-.8-.49-.25-.46-.09-1.03.37-1.29l4.81-2.68c.46-.25,1.03-.09,1.29.37.25.46.09,1.03-.37,1.29l-4.81,2.68c-.15.09-.32.12-.49.12Z"/>
      <path class="cls-1" d="M354.74,335.28c-.38-.01-.73-.25-.86-.63-.18-.49.08-1.03.57-1.21l5.18-1.87c.49-.18,1.03.08,1.21.57.18.49-.08,1.03-.57,1.21l-5.18,1.87c-.11.04-.23.06-.35.06Z"/>
      <path class="cls-1" d="M356.09,341.43c-.42-.01-.8-.31-.9-.74-.11-.51.21-1.01.72-1.13l5.38-1.17c.51-.11,1.01.21,1.13.72.11.51-.21,1.01-.72,1.13l-5.38,1.17c-.08.02-.15.02-.23.02Z"/>
      <path class="cls-1" d="M356.86,347.82c-.49-.01-.89-.4-.92-.9-.03-.52.38-.96.9-.99l5.5-.26c.53-.03.96.38.99.9.03.52-.38.96-.9.99l-5.5.26s-.05,0-.07,0Z"/>
      <path class="cls-1" d="M357.05,358.73c-.49-.01-.89-.4-.92-.9-.03-.52.38-.96.9-.99l5.5-.26c.52-.03.96.38.99.9s-.38.96-.9.99l-5.5.26s-.05,0-.07,0Z"/>
      <path class="cls-1" d="M362.21,363.29l-5.5-.16c-.52-.02-.93-.45-.92-.97s.45-.93.97-.92l5.5.16c.52.02.93.45.92.97s-.45.93-.97.92Z"/>
      <path class="cls-1" d="M361.79,367.68l-5.5-.16c-.52-.02-.93-.45-.92-.97s.45-.93.97-.92l5.5.16c.52.02.93.45.92.97s-.45.93-.97.92Z"/>
      <path class="cls-1" d="M360.77,372.05l-4.62-.13c-.52-.02-.93-.45-.92-.97s.45-.93.97-.92l4.62.13c.52.02.93.45.92.97s-.45.93-.97.92Z"/>
      <path class="cls-1" d="M353.33,323.7c-.31,0-.62-.17-.79-.47l-2.23-3.79c-.27-.45-.11-1.03.34-1.29.45-.26,1.03-.11,1.29.34l2.23,3.79c.27.45.11,1.03-.34,1.29-.16.09-.33.14-.51.13Z"/>
      <path class="cls-1" d="M356.22,331.38c-.39-.01-.74-.26-.87-.65l-1.05-3.22c-.16-.5.11-1.03.61-1.19.5-.16,1.03.11,1.19.61l1.05,3.22c.16.5-.11,1.03-.61,1.19-.11.03-.21.05-.32.05Z"/>
      <path class="cls-1" d="M358.87,344.3c-.45-.01-.84-.35-.91-.81l-.47-3.27c-.07-.52.29-1,.8-1.07.52-.07,1,.29,1.07.8l.47,3.27c.07.52-.29,1-.8,1.07-.05,0-.11.01-.16,0Z"/>
      <path class="cls-1" d="M359.21,360.07c-.52-.01-.93-.44-.92-.96l.06-3.68c0-.52.44-.94.96-.93.52,0,.94.44.93.96l-.06,3.68c0,.52-.44.94-.96.93h-.01Z"/>
    </g>
  </g>
  <g>
    <path class="cls-1" d="M283.09,227.75c.65.81,1.28,1.73,1.84,2.77h.01s0,0,0,0c1.11-.27,2.19-.41,3.21-.46-.64-1.51-1.33-2.61-1.69-3.14-.62.09-1.87.31-3.38.82Z"/>
    <path class="cls-1" d="M267.13,229.44c1.03.11,2.13.32,3.26.66h0s.01,0,.01,0c.6-.98,1.26-1.84,1.94-2.6-1.51-.62-2.79-.91-3.41-1.02-.38.5-1.11,1.54-1.81,2.97Z"/>
    <path class="cls-1" d="M295.58,237.84c-.11,1.03-.32,2.13-.66,3.26h.01s0,.02,0,.02c.97.6,1.84,1.26,2.59,1.94.61-1.51.91-2.79,1.03-3.41-.5-.38-1.54-1.11-2.97-1.81Z"/>
    <path class="cls-1" d="M257.04,241.93c.81-.65,1.73-1.28,2.77-1.84h0s.01-.02.01-.02c-.27-1.11-.41-2.19-.46-3.21-1.51.63-2.61,1.33-3.14,1.69.09.62.31,1.87.82,3.38Z"/>
    <path class="cls-1" d="M258.73,257.89c.11-1.03.32-2.13.66-3.26h-.01s0-.02,0-.02c-.97-.6-1.84-1.26-2.59-1.94-.61,1.51-.91,2.79-1.03,3.41.5.38,1.54,1.11,2.97,1.81Z"/>
    <path class="cls-1" d="M271.22,267.98c-.65-.81-1.28-1.73-1.84-2.77h-.01s0,0,0,0c-1.11.27-2.19.41-3.21.46.64,1.51,1.33,2.61,1.69,3.14.62-.09,1.87-.31,3.38-.82Z"/>
    <path class="cls-1" d="M287.19,266.29c-1.03-.11-2.13-.32-3.26-.66h0s-.01,0-.01,0c-.6.98-1.26,1.84-1.94,2.6,1.51.62,2.79.91,3.41,1.02.38-.5,1.11-1.54,1.81-2.97Z"/>
    <path class="cls-1" d="M297.28,253.8c-.81.65-1.73,1.28-2.77,1.84h0s-.01.02-.01.02c.27,1.11.41,2.19.46,3.2,1.5-.63,2.61-1.33,3.14-1.68-.09-.62-.31-1.87-.82-3.38Z"/>
    <path class="cls-1" d="M277.07,250.84c1.64.05,3.02-1.25,3.06-2.89s-1.25-3.02-2.89-3.06-3.02,1.25-3.06,2.89c-.05,1.64,1.25,3.02,2.89,3.06Z"/>
    <path class="cls-1" d="M276.95,254.97c4.01.12,7.37-3.05,7.49-7.07.03-.89-.12-1.74-.39-2.54l-.2-.52c-.38-.9-.94-1.7-1.64-2.37-.07-.06-.14-.13-.21-.19-.01-.01-.02-.02-.04-.03-.07-.06-.14-.11-.21-.16-.02-.01-.03-.02-.05-.04-.07-.06-.15-.11-.21-.16-.02-.01-.03-.02-.04-.03-.06-.04-.12-.08-.17-.11-.01,0-.02-.02-.04-.02-.06-.04-.12-.07-.17-.11-.02,0-.03-.02-.04-.03-.04-.03-.08-.05-.12-.07,0,0-.02-.01-.03-.01-.04-.02-.08-.04-.11-.06,0,0-.01,0-.02,0l-1.06-.48s-.97-.43-2.33-.5c-.06,0-.11,0-.17,0-.03,0-.06,0-.1,0-.73.02-1.32.15-1.69.24,0,0,0,0,0,0-.07.02-.14.04-.19.05,0,0-.01,0-.02,0-.01,0-.02,0-.04.01l-.61.23-.61.24c-.25.12-.84.41-1.5.92-.74.63-1.35,1.41-1.79,2.29l-.23.52c-.32.78-.51,1.62-.53,2.51-.12,4.01,3.05,7.37,7.07,7.49ZM277.29,243.37c2.48.07,4.43,2.15,4.36,4.62-.07,2.48-2.14,4.43-4.62,4.36-2.48-.07-4.43-2.14-4.36-4.62.07-2.48,2.14-4.43,4.62-4.36Z"/>
    <path class="cls-1" d="M293.83,232.14c-1.13-.3-4.51-1.03-8.23-.21.01.03.03.07.04.1.04.09.07.19.11.29.09.22.17.45.24.68.04.11.07.22.11.33.07.22.13.45.19.68.03.1.05.21.08.31.07.3.13.6.18.91,0,.03.01.05.01.08.05.33.09.66.13,1,0,.1.01.2.02.3.02.24.03.48.04.72,0,.12,0,.24,0,.35,0,.24,0,.47-.01.71,0,.11,0,.22-.01.33,0,.04,0,.08,0,.12h.03s0,.02,0,.02c.05,0,.1,0,.15,0,.06,0,.11,0,.17,0,.11,0,.21,0,.32,0,.2,0,.39.02.58.03.05,0,.11,0,.16,0,.33.03.66.06.99.11.08.01.15.02.22.04.26.04.52.09.78.14.09.02.17.04.26.06.64.15,1.27.34,1.89.57.09.03.17.07.26.1.24.09.47.19.71.3.08.04.16.07.23.11.03.02.07.03.1.05,1.03-3.66.5-7.08.27-8.23Z"/>
    <path class="cls-1" d="M260.49,263.59c1.13.3,4.51,1.03,8.23.21-.01-.03-.03-.07-.04-.1-.04-.09-.07-.19-.11-.29-.09-.22-.17-.45-.24-.68-.04-.11-.07-.22-.11-.33-.07-.22-.13-.45-.19-.68-.03-.1-.05-.21-.08-.31-.07-.3-.13-.6-.18-.91,0-.03-.01-.05-.01-.08-.05-.33-.09-.66-.13-1,0-.1-.01-.2-.02-.3-.02-.24-.03-.48-.04-.72,0-.12,0-.24,0-.35,0-.24,0-.47.01-.71,0-.11,0-.22.01-.33,0-.04,0-.08,0-.12h-.03s0-.02,0-.02c-.06,0-.11,0-.16,0-.16,0-.31,0-.47,0-.05,0-.09,0-.13,0-.13,0-.26-.01-.39-.02-.17-.01-.35-.02-.52-.04-.12-.01-.23-.03-.35-.04-.18-.02-.37-.04-.55-.07-.11-.02-.22-.04-.32-.06-.18-.03-.37-.07-.55-.11-.11-.02-.22-.05-.33-.08-.18-.04-.35-.08-.53-.13-.12-.03-.25-.08-.37-.11-.16-.05-.32-.1-.48-.15-.15-.05-.3-.11-.45-.17-.13-.05-.26-.09-.38-.15-.24-.1-.47-.21-.71-.32-.04-.02-.08-.03-.12-.05,0,0,0,0,0,0-1.03,3.67-.5,7.08-.27,8.23Z"/>
    <path class="cls-1" d="M293.1,256.31s0,0,0,0c-.04.02-.09.03-.13.05-.24.1-.48.19-.72.27-.1.04-.21.07-.31.1-.18.06-.36.12-.54.17-.13.04-.27.07-.4.1-.15.04-.31.08-.46.11-.15.03-.31.06-.46.09-.14.03-.27.05-.41.08-.16.03-.33.04-.5.07-.13.02-.26.03-.39.05-.17.02-.34.03-.51.04-.13,0-.26.02-.39.02-.16,0-.33,0-.5,0-.14,0-.28,0-.42,0-.04,0-.09,0-.13,0-.15,0-.31-.02-.47-.02-.06,0-.11,0-.17,0v.03s-.02,0-.02,0c0,.04,0,.08,0,.12,0,.11,0,.22,0,.33,0,.24-.01.47-.03.71,0,.12-.02.24-.03.35-.02.24-.05.48-.08.72-.01.1-.02.2-.04.3-.05.33-.11.66-.18.99,0,.03-.01.05-.02.07-.07.3-.15.6-.24.9-.03.1-.06.2-.1.3-.07.22-.15.44-.23.66-.04.11-.08.22-.12.33-.09.22-.18.44-.28.66-.04.09-.08.19-.13.28-.02.03-.03.07-.05.1,3.66,1.03,7.08.5,8.23.27.3-1.13,1.03-4.51.21-8.23Z"/>
    <path class="cls-1" d="M261.22,239.42s.07-.03.1-.04c.09-.04.19-.07.28-.11.22-.09.45-.17.68-.24.11-.04.23-.07.34-.11.22-.07.44-.13.66-.18.11-.03.22-.06.33-.08.28-.06.56-.12.84-.17.05,0,.1-.02.15-.03.32-.05.65-.09.97-.12.12-.01.24-.02.35-.03.22-.02.44-.03.66-.03.13,0,.26,0,.39,0,.22,0,.45,0,.67.01.12,0,.23,0,.35.01.04,0,.08,0,.11,0v-.03s.02,0,.02,0c0-.04,0-.08,0-.12,0-.11,0-.22,0-.34,0-.24.01-.47.03-.7,0-.12.02-.24.03-.36.02-.24.05-.47.08-.71.01-.1.02-.2.04-.31.05-.33.11-.66.18-.99,0-.03.02-.06.02-.09.07-.3.15-.59.23-.88.03-.1.06-.21.1-.31.07-.22.15-.44.23-.66.04-.11.08-.22.13-.33.09-.22.18-.44.28-.66.04-.09.08-.19.13-.28.02-.03.03-.07.05-.1-3.66-1.03-7.08-.5-8.23-.27-.3,1.13-1.03,4.51-.21,8.23Z"/>
    <path class="cls-1" d="M271.86,230.62s.07.03.1.04c.1.04.19.09.29.13.22.1.43.2.64.3.11.05.21.11.32.16.2.11.4.22.6.34.09.06.19.11.28.17.26.16.51.33.76.51.02.02.05.03.07.05.27.2.53.4.79.62.08.06.15.13.23.2.18.16.36.32.53.48.09.08.17.16.25.25.17.17.33.34.5.52.07.08.15.16.22.24.03.03.05.06.08.09l.02-.02.02.02s.06-.05.08-.08c.08-.08.16-.15.24-.23.17-.16.34-.33.52-.48.09-.08.18-.16.27-.23.18-.15.37-.3.56-.45.08-.06.16-.13.24-.19.27-.2.54-.39.83-.57.03-.02.06-.03.09-.05.26-.16.52-.31.78-.46.1-.05.19-.1.29-.15.2-.11.41-.21.62-.3.11-.05.22-.1.33-.15.22-.09.44-.18.66-.27.1-.04.19-.08.29-.11.03-.01.07-.03.1-.04-1.86-3.32-4.65-5.36-5.63-6-1.01.59-3.92,2.47-5.97,5.67Z"/>
    <path class="cls-1" d="M278.69,236.23c.08.11.15.22.23.33.15.23.3.47.44.71.06.1.12.19.17.28.19.34.38.69.56,1.05.03.06.06.13.09.19.12.25.24.49.35.75h0s.05.02.05.02c.09.04.18.07.26.11.08.04.17.08.26.12l.04.02h0s0,0,0,0c.03-.01.07-.02.1-.03.3-.1.6-.19.89-.27.03,0,.06-.02.1-.02.28-.08.56-.14.84-.21.06-.01.11-.03.17-.04.29-.06.58-.12.87-.17.06-.01.12-.02.18-.03.28-.04.56-.08.84-.11.02,0,.03,0,.05,0,.19-2.3-.17-4.52-1.06-6.61-2.16.72-4.05,1.92-5.64,3.6.07.1.13.2.2.3Z"/>
    <path class="cls-1" d="M269.65,238.48s.03,0,.05,0c.28.05.55.1.83.16.06.01.12.02.18.04.29.06.58.14.86.22.05.01.11.03.16.05.28.08.55.16.83.25.03.01.06.02.09.03.29.1.58.21.88.32.03.01.06.02.1.03h0s0,0,0,0l.05-.02c.09-.04.18-.07.27-.11.08-.03.17-.06.26-.09l.06-.02c.13-.25.26-.49.39-.73.03-.06.06-.12.1-.18.2-.35.41-.69.62-1.01.06-.09.12-.18.18-.27.16-.24.32-.47.49-.69.08-.11.16-.21.24-.31.07-.1.15-.2.22-.29-1.49-1.76-3.31-3.08-5.42-3.92-1.02,2.03-1.5,4.23-1.45,6.53Z"/>
    <path class="cls-1" d="M276.49,238.92s.05,0,.08,0c.11,0,.23-.01.34-.02.17,0,.33,0,.5,0s.34.02.5.03c.12,0,.23.02.34.04.02,0,.05,0,.07,0,.09.01.17.02.26.03-.35-.67-.72-1.31-1.13-1.9-.44.57-.85,1.18-1.24,1.83.09,0,.17-.01.26-.02Z"/>
    <path class="cls-1" d="M282.46,265.1s-.07-.03-.1-.04c-.1-.04-.19-.09-.29-.13-.22-.1-.43-.2-.64-.3-.11-.05-.21-.11-.32-.17-.2-.11-.4-.22-.6-.34-.09-.06-.19-.11-.28-.17-.26-.16-.51-.33-.75-.5-.03-.02-.06-.04-.08-.06-.27-.19-.53-.4-.79-.61-.08-.07-.15-.13-.23-.2-.18-.16-.36-.31-.53-.48-.09-.08-.17-.16-.25-.25-.17-.17-.33-.34-.5-.52-.07-.08-.15-.16-.22-.24-.03-.03-.05-.06-.08-.09l-.02.02-.02-.02s-.06.05-.09.08c-.08.08-.15.15-.23.23-.17.17-.35.33-.52.49-.09.08-.18.16-.27.23-.18.15-.37.3-.56.45-.08.06-.16.13-.24.19-.27.2-.54.39-.83.57-.03.02-.06.03-.09.05-.26.16-.52.31-.78.46-.1.05-.2.1-.29.15-.2.11-.41.21-.62.3-.11.05-.22.1-.33.15-.22.09-.44.18-.66.26-.1.04-.19.08-.29.11-.03.01-.07.03-.1.04,1.86,3.32,4.65,5.36,5.63,6.01,1.01-.59,3.92-2.47,5.97-5.67Z"/>
    <path class="cls-1" d="M275.63,259.5c-.08-.11-.15-.22-.22-.33-.15-.23-.3-.47-.44-.71-.06-.1-.12-.19-.17-.29-.19-.34-.38-.69-.56-1.05-.03-.06-.06-.13-.09-.19-.12-.25-.24-.49-.35-.75l-.06-.02c-.09-.04-.18-.07-.26-.11-.08-.04-.17-.08-.26-.12h0s-.01,0-.01,0l-.05-.02s-.06.02-.09.03c-.3.1-.6.19-.9.27-.04,0-.07.02-.11.03-.28.07-.55.14-.82.2-.06.01-.12.03-.18.04-.29.06-.58.12-.87.16-.06.01-.12.02-.19.03-.28.04-.56.08-.83.11-.02,0-.03,0-.05,0-.19,2.3.17,4.52,1.06,6.61,2.16-.72,4.05-1.92,5.64-3.6-.07-.1-.14-.2-.2-.3Z"/>
    <path class="cls-1" d="M284.66,257.25s-.03,0-.05,0c-.27-.05-.55-.1-.82-.16-.06-.01-.12-.03-.19-.04-.28-.06-.57-.14-.86-.21-.06-.02-.12-.03-.18-.05-.27-.08-.54-.16-.81-.25-.03-.01-.07-.02-.1-.03-.29-.1-.59-.21-.88-.32-.03-.01-.06-.02-.09-.03l-.05.02h-.01s0,0,0,0c-.09.04-.18.07-.27.11-.08.03-.17.06-.26.1l-.02-.05c-.16.31-.32.62-.49.92,0,.01-.01.03-.02.04-.2.35-.41.69-.62,1.02-.07.1-.14.2-.2.3-.15.23-.31.45-.47.66-.08.11-.17.22-.25.33-.07.09-.14.19-.22.29,1.49,1.76,3.31,3.08,5.42,3.92,1.02-2.03,1.5-4.23,1.45-6.53Z"/>
    <path class="cls-1" d="M275.72,256.72c.35.67.72,1.31,1.13,1.9.44-.57.85-1.18,1.24-1.83-.78.07-1.59.05-2.36-.07Z"/>
    <path class="cls-1" d="M300.07,248.53c-.59-1.01-2.47-3.92-5.67-5.97-.01.03-.03.07-.05.1-.04.09-.08.18-.12.28-.1.22-.2.44-.31.65-.05.1-.11.21-.16.31-.11.21-.22.41-.34.61-.05.09-.11.18-.16.27-.16.26-.33.52-.51.77-.02.02-.03.05-.05.07-.2.27-.4.53-.62.79-.06.08-.13.15-.2.23-.16.18-.32.36-.48.53-.08.09-.16.17-.25.25-.17.17-.34.33-.51.49-.08.07-.16.15-.24.22-.03.03-.06.05-.09.08l.02.02-.02.02s.05.06.08.09c.08.08.15.16.23.23.17.17.33.35.49.53.08.09.15.17.23.26.16.19.31.38.46.57.06.08.12.15.18.23.2.27.39.55.57.83.01.02.02.04.03.06.17.26.32.53.47.81.05.09.1.19.14.28.11.21.21.42.31.63.05.11.1.21.14.32.1.22.19.45.27.67.04.09.07.19.11.28.01.04.03.07.04.11,3.32-1.86,5.36-4.65,6-5.63Z"/>
    <path class="cls-1" d="M293.07,241.81c-2.03-1.02-4.23-1.5-6.53-1.45,0,.01,0,.02,0,.03-.05.28-.1.56-.16.85-.01.06-.02.12-.04.17-.06.29-.14.58-.22.87-.01.05-.03.11-.05.16-.08.28-.16.55-.26.83,0,.03-.02.06-.03.09-.1.3-.21.59-.32.89-.01.03-.02.06-.03.08h0s0,.01,0,.01l.02.05c.04.09.07.18.11.27.03.08.06.17.1.26l.02.06c.25.13.49.26.72.39.06.03.12.07.19.1.35.2.68.4,1.01.62.09.06.18.12.27.18.23.16.46.32.69.48.11.08.21.16.31.24.1.07.2.15.29.22,1.76-1.49,3.08-3.31,3.92-5.42Z"/>
    <path class="cls-1" d="M289.1,249.19c-.1.07-.2.13-.3.2-.11.08-.22.15-.33.23-.23.15-.47.3-.71.44-.1.06-.19.12-.29.17-.34.19-.69.38-1.04.56-.06.03-.13.06-.19.09-.25.12-.49.24-.74.35,0,0,0,0,0,0v.04c-.06.11-.1.2-.14.28-.04.08-.08.17-.12.26l-.02.05h0s0,.01,0,.01c0,.03.02.06.03.09.1.3.19.6.27.9,0,.03.02.07.03.1.07.28.14.55.2.83.01.06.03.12.04.18.06.29.12.58.17.87,0,.06.02.12.03.18.04.29.08.57.11.86,0,.01,0,.02,0,.03,2.3.19,4.52-.17,6.61-1.06-.72-2.16-1.92-4.05-3.6-5.64Z"/>
    <path class="cls-1" d="M286.08,246.94c.04.39.05.78.04,1.18s-.05.79-.11,1.18c.67-.35,1.31-.72,1.9-1.13-.57-.44-1.18-.85-1.83-1.24Z"/>
    <path class="cls-1" d="M284.98,240.48c-.71.09-1.43.23-2.17.42.3.25.59.52.86.81.28.29.53.6.76.91.23-.72.41-1.43.55-2.14Z"/>
    <path class="cls-1" d="M283.31,254.39c-.29.27-.59.53-.91.76.72.23,1.43.41,2.14.55-.09-.71-.23-1.43-.42-2.17-.25.3-.52.59-.81.86Z"/>
    <path class="cls-1" d="M254.25,247.2c.59,1.01,2.47,3.92,5.67,5.97.01-.03.03-.07.05-.1.04-.09.08-.18.12-.27.1-.22.2-.44.31-.66.05-.1.11-.21.16-.31.11-.21.23-.41.35-.61.05-.09.11-.18.16-.27.17-.27.34-.53.52-.78.01-.02.02-.04.04-.05.2-.27.4-.54.62-.8.06-.08.13-.15.19-.22.16-.18.32-.36.49-.54.08-.08.16-.17.24-.25.17-.17.34-.33.52-.5.08-.07.16-.15.24-.22.03-.03.06-.05.09-.08l-.02-.02.02-.02s-.05-.06-.08-.08c-.08-.08-.15-.16-.23-.24-.16-.17-.33-.34-.48-.52-.08-.09-.16-.18-.23-.27-.15-.18-.3-.37-.45-.56-.06-.08-.13-.16-.18-.24-.2-.27-.39-.55-.57-.83-.01-.02-.03-.05-.04-.07-.16-.26-.32-.53-.46-.8-.05-.09-.1-.19-.15-.28-.11-.21-.21-.42-.31-.63-.05-.11-.1-.21-.14-.32-.1-.22-.18-.44-.27-.67-.04-.09-.07-.19-.11-.28-.01-.04-.03-.07-.04-.1-3.32,1.86-5.36,4.65-6.01,5.63Z"/>
    <path class="cls-1" d="M267.78,255.34c.05-.28.1-.57.16-.85.01-.06.02-.11.04-.17.06-.29.14-.58.22-.87.02-.06.03-.11.05-.17.08-.28.16-.55.25-.83.01-.03.02-.06.03-.09.1-.3.21-.59.32-.89.01-.03.02-.06.03-.08h0s0-.01,0-.01l-.02-.06c-.03-.08-.07-.17-.1-.26-.03-.09-.07-.18-.1-.27l-.02-.05c-.25-.13-.49-.26-.73-.39-.06-.03-.12-.06-.18-.1-.35-.2-.68-.4-1.01-.62-.09-.06-.18-.12-.27-.19-.23-.16-.46-.32-.68-.48-.11-.08-.21-.16-.32-.24-.09-.07-.19-.14-.29-.22-1.76,1.49-3.08,3.31-3.92,5.42,2.03,1.02,4.23,1.5,6.53,1.45,0,0,0-.02,0-.03Z"/>
    <path class="cls-1" d="M265.22,246.54c.1-.07.2-.14.3-.2.11-.08.22-.15.33-.22.23-.15.47-.3.71-.44.1-.06.19-.12.29-.17.34-.19.69-.38,1.04-.56.06-.03.13-.06.19-.09.24-.12.49-.24.74-.35,0,0,0,0,0,0l.02-.05c.04-.09.07-.18.11-.27.04-.08.08-.17.12-.26l.02-.05s-.02-.07-.03-.1c-.1-.3-.19-.6-.27-.9,0-.03-.02-.07-.03-.1-.07-.28-.14-.56-.2-.83-.01-.06-.03-.11-.04-.17-.06-.29-.12-.58-.17-.87,0-.06-.02-.12-.03-.18-.04-.29-.08-.57-.11-.86,0-.01,0-.02,0-.03-2.3-.19-4.52.17-6.61,1.06.72,2.16,1.92,4.05,3.6,5.64Z"/>
    <path class="cls-1" d="M268.19,247.6c.01-.4.05-.79.11-1.18-.67.35-1.31.72-1.9,1.13.57.44,1.18.85,1.83,1.24-.04-.39-.05-.78-.04-1.18Z"/>
    <path class="cls-1" d="M270.19,242.21c.25-.3.52-.59.81-.86.29-.27.6-.53.91-.76-.72-.23-1.43-.41-2.14-.55.09.71.23,1.44.42,2.17Z"/>
    <path class="cls-1" d="M270.64,254.02c-.27-.29-.53-.59-.76-.91-.23.72-.41,1.43-.55,2.14.71-.09,1.43-.23,2.17-.42-.3-.25-.59-.52-.86-.81Z"/>
  </g>
  <g>
    <path class="cls-1" d="M328.63,369.79c-.43.93-1.12,1.98-2.27,2.99-1.42,1.26-3.37,2.16-5.02,2.76.77,1.44,1.31,3.06,1.35,4.77l-.16.4c-.12.29.02.62.31.74.07.03.13.04.2.04.23.01.45-.13.54-.35.1-.25.34-.4.59-.39.07,0,.14,0,.21.04.16.06.27.18.34.33.07.16.07.32.01.47l-1.67,4.15c-.13.32-.49.47-.8.35-.25-.1-.4-.34-.39-.6,0-.06.02-.14.04-.2.12-.29-.02-.62-.31-.74-.29-.12-.62.02-.74.31l-.84,2.11c-.29.71-.68,1.36-1.16,1.93-.53.64-1.18,1.17-1.91,1.58-.23.13-.47.25-.71.35-1.74.75-3.66.77-5.41.07-1.75-.71-3.12-2.05-3.86-3.78-.1-.25-.19-.5-.27-.75-.2-.67-.3-1.35-.3-2.04,0-.14,0-.28,0-.42.05-.74.21-1.48.5-2.2l.85-2.1c.11-.3-.03-.63-.32-.74-.29-.12-.62.02-.74.31h0c-.06.15-.18.27-.33.34-.15.06-.32.07-.47,0-.31-.13-.47-.49-.34-.81l1.67-4.15c.05-.15.17-.27.32-.34.16-.06.32-.06.48,0,.15.06.27.18.33.33.04.09.05.17.05.26,0,.08-.02.14-.04.21-.12.29.02.62.31.74.07.02.13.04.2.04.23.01.45-.13.54-.36l.06-.15c1.33,0,5.75-.15,10.62-1.45,1.58-.53,3.58-1.38,4.93-2.57,2.09-1.84,2.22-3.72,2.23-4.14v-.03c-.33-2.45-2.36-4.87-4.81-5.75-.19-.07-.38-.13-.58-.17-.08-.02-.17-.05-.26-.07-3.85-.89-9.21-.33-12.17,3.03-.99,1.11-1.91,2.79-1.98,5.21-.01.25-.01.51,0,.77.04.88.18,1.86.48,2.93-.28-.03-.57.02-.84.13-.43.19-.76.53-.94.96l-1.66,4.15c-.36.89.07,1.92.97,2.28.2.08.41.11.61.12l-.23.59c-.33.83-.52,1.68-.58,2.55,0,.17-.02.34-.02.52,0,.57.07,1.14.19,1.7.11.51.27,1.01.48,1.5.86,2.02,2.45,3.57,4.48,4.39.92.37,1.87.56,2.81.59,1.73.05,3.43-.46,4.84-1.42.62-.41,1.17-.91,1.66-1.49.56-.65,1.02-1.4,1.35-2.24l.24-.58c.15.14.33.25.52.33.9.36,1.92-.07,2.28-.97l1.67-4.15c.17-.44.17-.91-.02-1.34-.14-.34-.38-.62-.69-.81,1.29-1.03,3.03-2.86,3.82-5.62.44-1.55.33-3.11-.26-4.46Z"/>
    <g>
      <path class="cls-1" d="M311.63,382.02c.78.05,2.65.68,2,2.42-.72,1.93-5.73,2.97-9.39,1.12-3.65-1.85-2.19-5.09-.49-5.02s1.67,2.3-.37,1.93c0,0,.42,1.23,2.42,1.45,1.88.21,3.64-2.05,5.83-1.91Z"/>
      <path class="cls-1" d="M316.4,383.93c-.6-.51-2.39-1.34-3.12.37-.81,1.9,2.09,6.11,6.01,7.3,3.92,1.19,5.1-2.17,3.82-3.29s-2.8.51-1.07,1.65c0,0-1.16.6-2.75-.62-1.5-1.15-1.22-4-2.89-5.41Z"/>
    </g>
  </g>
  <g>
    <rect class="cls-1" x="253.93" y="297.4" width="8.69" height="3.32" rx="1.66" ry="1.66" transform="translate(-48.17 548.54) rotate(-88.33)"/>
    <rect class="cls-1" x="258.16" y="297.53" width="8.69" height="3.32" rx="1.66" ry="1.66" transform="translate(-44.18 552.89) rotate(-88.33)"/>
    <rect class="cls-1" x="256.86" y="300.03" width="7.1" height="9.08" rx="3.55" ry="3.55" transform="translate(-51.6 556.02) rotate(-88.33)"/>
    <path class="cls-1" d="M264.11,301.31s1.34.72,2.13,2.34,3.96,1.68,4.27,2.64-1.49,3.85-2.05,4.12-7.04-.68-7.04-.68c0,0,.65,6.6,1.06,9.87.41,3.26,1.08,7.42-.83,9.62-2.55,2.92-7.35,2.67-8.76,2.53-.22-.02-.4.14-.41.36h0c0,.21.16.38.36.39l8.82.26c.93.03,1.72.79,1.67,1.72-.04.83-.69,1.65-3.12,1.58l-11.54-.34c-1.26-.04-2.43-.67-3.14-1.72l-3.61-5.27c-1.42-2.08-3.71-3.42-6.22-3.6-.9-.07-1.96-.09-3.19-.06,0,0,5.17.11,6.84,3.14,1.09,1.98-.55,3.55-1.83,4.41-.33.22-.18.75.22.76l4.19.12c.44.01.84.26,1.05.64h0c.47.84-.16,1.87-1.12,1.84l-17.02-.49s-6.15-.85-7.44-8.54c-1.29-7.69,5.68-11.61,9.2-12.76,3.52-1.16,5.47-2.07,6.61-3.89s2.07-3.7,4.66-3.23,2.16,4.85,3.83,5.04c1.68.19.46-5.26,4.7-5.55,4.24-.3,4.11,6.23,5.72,9.53,1.61,3.3,2.72,4.65,4.28,4.08s-1.04-1.98-.58-13.85l7.12-2.91,1.17-2.07Z"/>
    <path class="cls-1" d="M266.65,326.43c-.08,0-.16,0-.24-.02-.51-.08-1.73-.5-2.11-2.75-.48-2.81-1.6-14.62-1.64-15.12l1.51-.14c.01.12,1.16,12.26,1.63,15.01.18,1.05.56,1.47.85,1.51.28.04.72-.22,1.01-.79,1.03-2.02-.05-10.1-.69-14.93l1.5-.2c.98,7.32,1.69,13.57.54,15.82-.53,1.03-1.43,1.65-2.35,1.62Z"/>
    <path class="cls-1" d="M223.12,336.88c-.14.43-.62.65-1.03.46-1.52-.67-4.79-2.5-6-6.25-1.72-5.32,1.26-8.68,1.39-8.82l1.12,1.02-.56-.51.56.51c-.1.12-2.51,2.88-1.07,7.34,1.02,3.17,3.9,4.76,5.18,5.33.35.16.53.55.41.92h0Z"/>
  </g>
  <text class="cls-3" transform="translate(402.42 477.2)"><tspan x="0" y="0">Ethereal </tspan><tspan x="0" y="92.78">Circuit</tspan></text>
  <text class="cls-3" transform="translate(403.62 379.77)"><tspan x="0" y="0">The </tspan></text>
  <text class="cls-2" transform="translate(405.28 634.33)"><tspan x="0" y="0"> </tspan></text>
</svg>