<?xml version="1.0" encoding="UTF-8"?>
<svg width="95.321mm" height="122.97mm" clip-rule="evenodd" fill-rule="evenodd" image-rendering="optimizeQuality" shape-rendering="geometricPrecision" text-rendering="geometricPrecision" version="1.1" viewBox="0 0 5278 6809" xmlns="http://www.w3.org/2000/svg">
 <defs>
  <style type="text/css">.str0 {stroke:#FEFEFE;stroke-width:11.0748} .fil1 {fill:none} .fil0 {fill:black}</style>
 </defs>
 <path class="fil0" d="m3295 4769c12 0 26 0 26 12 0 15-11 11-26 11-1-1-2-11-2-12 0-12 1 4 2-11zm1972-837v104c-40-21-82-35-136-67-82-47-39-155-128-254-147-165-171-278-323-35-49 78-65 69-126 130-123 123-102 181-193 316-74 109-145 175-199 309-28 70-106 167-207 194 2 8 4 16 4 22 3 3 0-2 4 6l6 21c5 16 8 88 8 106 0 26 3 37 3 62s4 38 4 59l-4 357c-10 8-3 8-16 9-7 0-13-1-17-1-19-1-9-7-26-16 0-21-6-34 0-49-7-1-8-3-16-4-16-3 0 0-15 0-14 1-20-4-30-7 7-12-1-12 6-23 5-9 6-6 9-8 1 0 2-1 2-1l2-2c1 0 2 0 2-1 1-1 2-1 2-2-7-4-11 0-24-7 7-24 8 4 7-41 9 3 11 6 21 7-3 10-5 11-1 21l4-25c20-3 36-20 35 21 14 3 27 4 30-11 0-2 1-11 2-15l9 9v-18l-10-3 5-16c0 1 1 5 1 6 2 5 2 3 4 6 1-13 3-7 3-17 1-16-3-4-1-16s5-17 5-32c-8 2-4 2-13 4l-27-6c-10-4-9-5-22-5l8-16c0-1 1-1 1-3 0-1 1-1 1-2l-7-2c-25-15 5-2-10-8-4 18-6 21-7 41 9 4 14 12 24 14-6 7 0 4-10 7-1 19 6 22-3 35-15-10-9-25-17-25-16 0 13 5-3 0-3-10-5-10-11-17l-21-31c2-8 3-11 7-18s2 2 5-8c5-18-18-8-34-17l-11-11c10-4 18-7 22-19-26-13-44 12-76 13-11 0-16 5-26 4l-10-4c-45-19-33-3-58 4-12 4-19 3-26 12l-23 25c-8 7-6 11-12 19-5 6-7 6-14 14-15 17-3 24-33 25 0-27 3-20 16-35 9-10 9-20 15-34 4-9 6-9 9-15 7-11 2-7 7-17 7-16-2-3 14-11 7-4 6-4 12-8-8-5-5-6-14-11-24-13-19-19-47-24-32-7-60-31-59 9 15 5 16 1 21 14l-31 10h-10l-1-1-6-9c-1 0 0-1 0-1v-2c-15 1-24 1-34 7 14 12 20 6 27 24l-25 14c17 7 32-6 33 13 1 13-10 18-20 23-62 26-36 78-34 98 2 22-6 35-6 55-1 14 0 27 0 42-24 5-36 4-43-16l-10-21c-3-13 2-10 2-18s-6-7-13-7c-19 0-21-11-41-12l-1 36c-13-8-15-24-15-45-1-54-2-102-9-157-3-20 0-32-6-49l-34-76-73-97c-9-12-15-21-24-32-5-7-7-9-12-15-20-29-103-175-104-176-8-5-12-4-16-12-2-5-4-20-5-26l-38-90c-9-16-32-21-41-32-6-7-9-29-13-42-13-38-58-37-71-43 0 29 5 103-2 126-9 34-23 41-31 94-10 68 2 90-28 126-31 37-25 28-25 69v62c0 25-4 38-4 59 0 20 1 42 0 62 0 15-3 12-3 27-4 83 2 125 15 203 12 73 19 37-36 109-5 6-9 10-14 17 13 19 26 33 38 52-3 7-8 21-11 30-3 12-3 21 0 33 23 73 22 38-1 119-10 35-16 38-8 59 24 58 31 43-2 107-15 29-6 29 4 57l83 228-39 115c-6 22-11 37-17 59l-33 119c8 6 12 8 22 13l64 36-3 5c-19-4-34-10-57-14-33-7-20-8-58-4-10-17-4-13-21-24-12-7-12-13-26-16-13 12-8 30-17 43-16-8-16-25-16-41 0-10 5-45-9-46-3 0-13 2-17 2l-8 1c-6 2-4 1-8 4 2 14-1-2 3 9l2 4c0 2-2 4-4 5-10 3-15-1-26-2 4-8 0-1 7-6l7-4-22-12c-22-12-19-26 8-23 18 2 30-3 49-2 15 1 18 2 29-9 4-5-2-14-6-15-10-3 3-8-4-13-3-2 3-11 3-19 0-28-7-40-21-63-12-21-20-33-22-57 7 0 11 0 18 1 20 3 25-7 42 3-11 20-3 22 1 44 1 1 4 13 2 11-4-4 4 27 9 30s24-1 27 1c0 0 16 26 17 28 35-15 23-38 43-59 8-8-1-1 12-7 5-2 4 0 9-3 1-20 2-17 7-27 5-8 4-18 5-29l-14-1c0-14 1-13 3-24l6 10s2 6 2 7c13-13 21-3 19-34-3-30-14-56-19-86-4-21-5-22-12-38-11 12-2 5-7 19-4 11-3 5-8 8-1 19-2 24-4 38l-15 8-4-13v-2c0-7 7-18 8-24-6-22-4 14-6-13-1-3 0-7 1-9 1-5-1 0 1-5-8-2-7-3-17-3 0-13 1-15-6-25l-17 10c-7-25 5-30 6-55l18-38c-8-10-6-4-15-13l-9-5s0 1-1 0c1-12 5-15-1-24 0 0-6-14-13-16 9-24-10 19 4-6l-1-9c-7-21-1-5-17-19-26-23-5-31-8-50-13 4-3 1-10 8-5 5-6 5-11 11-8-20-6-16-39-37 4-11 7-7 10-20-1-1-3-3-4-3l-2-2-8-9c-1 2-6 5-3 14-9-4-7 7-7-14l-3 8c-3 14-5 20 2 32 5 10 1 30 1 43-13-1-19-7-32-9-16-4-19-3-37-5-16-1-19-9-31-8-13 1-19 16-25-6 16-7 16 0 27-2 12-2 5-5 25-5 1 0 0-1 0-1v-1c0-10 20-3 24-19 5-18-9-22-9-44 7-9 13-7 19-19 7-14-2-8 7-20 8-12 32-17 43-13 0-8 2-13 2-17-1-10-2-3-5-13 18-1 11-5 13 9l1-2 6-12c8 3 11 6 16 6 7 1 6 0 8-6l-14-3c12-10 1-17 31-21v-31c-15 5-7 3-25 1-16-1-12 6-23-8h13c-13-17-12 3-24-13-5-7-6-15-13-21 6-6 7-8 16-11v-25h17c-28-3-21-2-18-30l21-9c-6-9 0-8-5-19l-9-16c-8-27-3-12-19-28-18-17-6-32 4-48l6-12c18-28-1 10 8-9l13 6c-5-24 1-16 9-29l22-26c7 4 11 6 21 7 8-11 12-26 20-39 1-5-3-3-4-6l-6-13c-9 9-7 24-20 32-7-9-5-18-8-28-3-13-9-11-12-23-2-4-2-9-3-15-2-8-3-6-3-11 2-27 13 4 3-55-2-14 2-14 5-26 2-13-4-24-5-28-2-10 3-12 6-23 11 5 5 6 17 7 0-16 2-14 4-26 10-53-4-33 27-44 12-4 7 1 6-13-1-26 13-41 17-68 18 6 2 1 13 7 13-21 6-52 21-61 21-13 20 4 31-44 3-12 12-26 15-38l-13-17c13-17 11-28 8-54-2-15 1-26 1-37l-1-5c-1-11-29-13-29 2 1 12 12 14 24 14-8 35-13 15-30 29-16 14-6 17-36 5 0 1-1 2-1 2-1 1-1 2-2 2l-14 31c-13 0-28-4-38-3-6 1-9 3-11 8-4 8 4 0-3 12-13 3-19-3-30-1-12 2-15 4-28-3 0-15 3-20 2-33 0-11-3-18-3-28-16 13-9 25-39 25-20-27-13-29-22-58-2-7-8-15-2-19 14-10 18-18 29-31 10-10 23-30 26-42 5-16 16-33 26-47l15-17c6-10 4-17-1-25-12 3-7 1-13 11-6 8-14 16-16 24l-3 15s0 2-1 3c-23 9-19 6-22-17-2-14-2-28-15-33-15 16-10 49-7 69-10 8-18 15-28 24-157 138-153-203-229-29-7 16-6 8-13 10-8 3-6 13-4 20 11 28-21 27-22 37 0 11 27 35 24 67-3 44 6 78 27 117 7 12 0 69 27 55 1 17 1 19 15 21l-7 13h20c-6-10-4-16 0-24 0 17 6 30 11 42-7 23 0-12-7 10l6 17c-1 44-3 8 3 49 2 16 8 13 12 31 11 43 6 23 21 44 9 13 13 27 18 44 7 20 11 34 22 51 1 2 3 4 5 6 6-12 12-26 8-39l-3-6c-11-23-23-36-35-57-9-14-19-39-18-59 0-22-9-39-9-65 22 1 14 2 21 20 10 21 19 10 19 10l7 15c3 5 0 2 3 7 10 14 19 8 20 25l-5 3s-1 0-2 1l-9 3c0 12 5 27 11 36 12 17 10 37 21 56 13 20 4-1 3 29l5-10c3 27 16 5 12 45h1c8 0 4 7 2 17h1l2-1c11 1 18 25 20 36l-17 10c-15-7-17-11-31-3-1 26 5 42 3 65 0 13-4 17-2 30 4 22 12 27-2 31-12 4-8-6-23 5 0 18 2 21 3 34-1 0-4-2-4-2l-5-1c-9 3 9-5-2 2l-1 1c-8 5-6 0-19-3-5 10-9 21-3 31 0 1 2 4 4 6l11 14c0-1 1 0 2 1-11 7-20 10-34 11-72 11-41-25-55-56-8 4-4 0-10 8 0 0-1 1-1 2-4 8 2 21 2 29 1 19-7 29 18 23-5 7 0 5-10 7 7 10 6 4 10 10v1l6 10c1 1 1 2 2 2l6 12c3-3-3-3 9-6 11-2 7 1 10 1 16 1 20-1 32-7 9-4 7-3 17-6 28-9 1-2 19 1h3c12-1 21 1 27-7-1 12-2 14-11 23-6 5-13 7-23 7v5c-9 18-10 17 4 27 0 5-1 8-1 12l-3 26c11-3 23-4 31 0l-11 19c-8 9-15 9-20 20-5 9 2-3-2 8l-12 10c-1 0-2 1-3 1 2 12 6 13-10 14 7-6 5-1 7-14-14 1-20 3-28 11l-3-4c-11-13-7-7-19-13l-12-7c1 14 3 7 4 18 0 9-9 13-8 56-15-21-20-13-22-45l-43-6-17 22 11 12c13 14-1 26 5 39-13 1-11 2-21 7l5 14c4 20 11 11 17 26 5 12 4 28 5 40-4-3-5-2-13-2-31 1-11 13-24 23l-17 4c0-56 3-100 3-157l-3-231c0-40-11-28 7-62 4-9 11-20 12-28l-5-69c-1-12 0-26 0-38h-4c0 14-3 19-3 38-15-1-51-15-63-21v-48c-8-1-50-13-53-18l34-171c11-57 12-42 4-93l-3-24c-5-30 0-37 7-66 17-76 18-47-12-82-9-11-6-14-2-32l1-4c3-15 6-31 9-46 8-39 8-20-9-40-9-10-2-29 1-41 5-20 9-40 14-60 7-26 23-48 21-75-3-26-6-51-9-77 0 0-69-53-117-60-59 91-83 221-163 269-69 41-181 138-211 208-162 379-61 273 48 613-76-39-152-212-213-299-69-96-257-255-362-312-211 131-205 189-294 215-127 38-52 14-135 117-45 57-81 83-148 112 44-89 105-175 163-242 74-87 128-108 205-177 56-51 101-142 174-170 78-31 203 131 271 148 126 33 171-17 116-137-20-43-39-66-61-103-25-42-47-83-78-120-44-54-90-128-153-160-38-19-70-15-86-52-13-30-20-44-43-67-59-58-83-91-158-135-80-47-143-10-188 62-54 87-67 77-133 141-123 123-102 181-193 316-74 110-145 175-199 310-30 76-119 182-232 199l-16-41c36-36 67-75 97-117 18-27 34-52 49-80 38-73 42-144 96-209 23-26 46-48 70-76 8-9 14-13 2-11l130-197 11-15c77-79 59-137 176-215 26-17 44-26 71-39 92-44 97-122 214-106 71 10 153 37 201 94 32 39 51 75 89 115 18 19 44 51 62 65 72 57 85 101 138 162 32 38 64 70 95 111 53 72 78 138 171 165 81-35 82-86 123-146-9-9-15-19-25-35-9-13-15-24-23-36-9-14-17-19-8-36 26-53 62-99 63-161-22 5-43 27-66 25-13-2-16-4-27-4l7 55c-12-9-26-38-34-53-6-11-11-110-11-127-40 0-87-6-125-10-44-5-62-8-103-28l10-225c1-14 0-30 0-45l14-262c2-43-3-49-17-76l-28-63c7-5 15-18 22-27 45-60 44-49 16-121-4-9-7-18-10-27 0 1-10-37-12-50-10-71-24-53-57-105-11-17-21-34-29-53-11-26-39-96-44-121-7 23 5 97 7 124 4 43 2 92 2 137 0 33-1 64-8 97-14 58-21 118-31 177-4 22-6 43-10 64-3 24-8 0-10-9-6-27-5-88-6-119-2-50-1-97 5-147 6-48 6-103 7-152 0-41-5-79-9-119-5-48-7-102-9-151-1-24-2-48-4-72-5-118-29-101 19-223 33-83 53-67 39-121l-42-135c-9-27-23-57-29-84l-20-132c-4-22-11-54-11-75 11-7 17-12 28-20 52-40 66-2 139-55 10-7 19-14 29-20 20-12 49-13 70-23v-62c23-1 41-10 66-11l-4-55 44-4c10-1 28-2 41-4 52-8 70-9 120-3 20 3 19 1 31 14 26 26 21 21 37 53 10-3 21-8 33-12 29-10 31 11 74 39 37-17 85-37 125-42l-18-20c8-5 8-7 15-13 7-7 8-6 15-12 44-37 27-23 80 2 18 9 31-7 50-15 13-5 20-9 33-15 15-8 54-29 70-29 26-1 59 11 86 13 1-11 9-67 16-71 6-4 66 2 82 2 45 0-2-42 44-42 32 0 50-3 80-3 14-27 21-27 54-36 22-7 45-21 68-13l-4 8c-2 3-1 0-4 6l11 14 25-2c4-16 1-13-1-28l-8-2c0-16-2-13-3-27-4-46 11-18-17-66l-44-70c-5-8-8-11-12-19-26-42-17-14-18-32-1-17-10-49-15-66-8-36-3-33-22-34l4-58c-9 9-10 13-21 20 1-18 9-34 10-52-6 3-11 4-17 7 0-14 4-20 8-33 16-43-14 15 14-97 9-36 5-31 21-62l24-55c8-21 23-31 37-46 38-38 50-38 100-63 18-9 38-14 59-20 11-3 32-6 55-7h69c13 1 23 3 29 5 10 5 18 9 27 14 11 6 16 10 27 15 23 11 72 59 85 78 6 8 9 18 14 27 22 40 55 96 57 144l81 33c11 4 31 14 40 19 10 6 32 37 11 56-7 6-10 6-20 9-22 5-19 1-36-10-30-21-45-31-83-31 5 8 9 14 15 23 32 47-14 29-12 77 2 57 32 21 0 118-16 51-25 126-43 185l-22 92c-4 12-8 15-11 27 48 0 61 32 87 54 20 17 69 40 96 46-4 15-10 10 2 22l112 107c6 7 11 15 17 23l-21-9c0 1 2 8 2 8 1 5 2 12 5 15 7 6-12 9-14 9 1-2 4-2-3-1-6 0-5-4-6-10 0-6-4-21 3-23 11-3 3 2-1-10l-3-6c0 1-1 0-1 1h-2c-1 0-3 0-4-1l-30-9c-7 7 1 7-6 11-1 1-3 1-4 2 9 6 5-1 9 9l-10 3h-2c-1 0-4 1-5 1v-17c-31 0-36-11-59-13-24-2-22 6-34-1l-8-2-1 1s-1 1-2 1c1-12 1-7 4-17-19-1-31-6-45 0l-1-24c-1-17 0-3-4-7l-4-5c0-1-1-2-1-2-1 12-4 25-8 37-20-9-8-11-11-30-2-17 5-10-6-32-25 0-111-10-127 0 27 10 32-6 61 5-5 16 3 4-8 14-6 5-33 10-53 40-9 13-4 19-15 27-16 11-9 1-18 20-20 45-23 47-23 102 0 24-4 15-11 26-5 8-4 23-6 36-4 30-19 28 0 56 13 20 11 36 21 59 5 11 11 17 14 27 3 14 1 29 1 43-7-7-3-1-7-12 0-2 0-7-1-10l-11 24c-14-1-11-1-19-9l-11-19c-12-25-19-50-23-77-10-59-10-43-15-65l-27-112c-6-17-9-14-17-41-3-13-3-23-7-35-9-38-19-61-19-99 0-20 0-20 7-34 20 0 48 8 59-17-7-10-25-12-33-21 6-3 6 1 12-7-21-18-22-10-44 1-16 8 0 2-15 14-20 2-21-1-32 1l6 8s1 1 1 2c-13 6-28 11-44 10l-8-18c-13-2-77 5-90 12l9 12c-19 1-43 9-65 9-24 0 0-20-17-25-8-2-12 2-19 2-17 0-22-9-33-2v16l-5 15c-19-1-14 3-15-18-2 13-5 10-14 18 16 12 7 14-12 17-16 2-26 4-37 14l10 12c-7 1-14 2-20 3-20 2-47-2-64 6 16 5 9-1 15 9-17 7-24 4-43 6-14 2-20 12-35 16-35 9-52 3-79 23 0 31-10 55-10 88l6-19c1-6 1-5 4-12 17 21 25 59 35 70 31 33 164-27 167 22 2 27-63 57-85 72-64 44 4 36 38 31 8-1 70-13 60 10-14 26-134 77-103 111 29 26 112-2 116 16 2 22-45 37-46 50s71 11 83 12c21 1 34 4 55 8 26 6 51 2 76-2 32-6-14 20-18 22-56 27-118 39-177 60-23 8-58 20-46 52 2 6 5 13 8 19 13 26 1 54 18 80 3 5 2 4 10 3 40-9 64-53 103-56 46 0-6 18 76-18 31-13 44-11 81-31 16-9 27-9 42-16 13-5 26-12 38-17l111-59c37-20 35-22 63-47 11-9 13-19 20-36 13-28 18-53 52-26-1 18-10 19-25 20-17 2 14 61-15 91-20 22-37 44-64 57-20 9-61 25-79 38l-24 14c-20 10-33 14-55 24-11 5-19 7-28 11-11 5-2 3-13 7-23 10-52 17-72 29-6 32-8 101-10 137-2 47-9 95 2 142 8 35 10 84 14 121 3 24 7 48 15 71 9 26 6 36 8 67-6 7-7 6-12 15-11 19-1 23-28 30-33 9-19-33-27-66-6-32-6-35-5-68 2-36-3-42-17-73-15-33 0-56-3-91-1-5-2-9-3-14-6-29-3-28-4-54-1-28-14-44-11-75v-5c2-20 8-72 3-88-14-14-44 23-57 26-15 4-3-9-32-1-37 11-55-4-49 58 1 28-14 41 25 55 15 5 97 27 51 49-15 6-56 16-50 38 6 27 107-2 25 57-16 11-42 34-43 56-1 31 67 25 87 24 68-2 19 37-7 55-20 13-54 31-60 56-5 23 29 28 46 34 65 24 17 64-13 91-9 8-31 26-21 41 4 6 17 16 24 21 17 14 27 22 43 37 10 10 19 20 29 30 20 22 42 44 58 69l16 30c11 14 13 34 29 43 1-10 0-11 6-18 11-15 26-7 41-35 2-4 4-8 5-12 27 6 56 34 118-3l4-3c43-22 22-28 85-29 14-28 23-29 55-35 60-11 17-8 51-14 42-8 48-27 47-68 0-19-1-27 3-42 4-11 7-22 7-38 2-67 24-86 12-119l-16-49c-2-8-2-14-4-21-6-17-10-10-13-32-4-30-5-65-17-94 0 0 0-1-1-2l-67-222c-3-37-21-70-28-108l-8-82c1-53 27-37 44-50l23-12c7-1 11 0 18-2 26-7 21-8 37 18 3 5 5 7 8 10l25 37c11 17 13 23 14 44 2 25 11 12 11 51-8 6-18 7-12 22 7 18 20 13 33 24 21 18 0 21 34 20 1 11 3 12 7 18 25 39 8 14 13 55 1 10 3 8 8 13 17 14 27 22 28 48 9-15-1-19 24-20 0 8 6 29 8 40 5 25 10 18 19 37l24 86c-7 5-11 6-19 11 0 15 2 22 9 30 16-31 9-11 24-21l-16-8-2-2 9-2c21-6 32-36 76-40-8 14-20 20-29 35l-22 33c-5 6-1 0-5 6-7 12-7 32-12 46l-3 10c-2 15-6 25-3 40-17 9-17 2-17 24 12 0 12 0 20-8l5-6c0 20 3 35 12 50 7 12 11 15 23 14 24-3 16-16 44-16 11 15 20 20 18 42l-7 69 17 14c23 23 48 16 62-13s15-37 25-65c3-10 1-8 6-15l58-60c21-38 30-119 16-156-1-3-1-5-3-8-5-16-17-29-27-42-9-11-9-14-28-12-17 2-21-3-30-15-35-1-18 9-57 9 3-14 35-25 46-34l11-14c4-6 27-12 40-19 1-1 2-1 2-2l17-8s1-1 2-1c0 0 1 0 2-1 10-3 22-5 30-5-3 17-9 13-5 35l25 133c2 13 1 23 3 35 5 29 2 86-10 108l-55 105c-11 18-27 60-51 66 1 28 25 73-7 82-10 3-18 6-27 8 0 22 8 45 11 69-7 16-3 10-11 16-6-7-2 7-6-12-1-12 4-30-2-42-6-13-6-2-8-21-2-16 5-13-9-19-9 4-7 11-11 21l-18-13c-2 3-3 10-4 19 1-9 2-15 4-19l18 14c3-11 2-18 11-22 14 6 7 3 9 19 2 20 2 9 8 21s1 31 2 42c4 19 0 5 6 12 8-6 4 0 11-16l2 17c-15 1-10 3-21 4l-20 3c0 42-7 76-7 118 6 3 11 4 17 7 0 13-4 23-8 36-19 67-19 39-19 109-10 4-47 16-59 17l7 7-72 7c-1 0-2 1-3 1s-2 1-3 1c-12 6 0 72-18 97-6-10-8-45-8-61 0-58-3-28-30-39-10-5-8-17-9-26-3-15-6-10-10-23-7-26 7-23-8-62-8-21-31-141-36-171-5-27-1-35-14-59-22-2-60 20-71 29-22 19-48 12-64 40-3 8 12 38 21 61 6 17 11 13 16 26l30 94c5 24 10 46 15 71 2 14 7 22 9 33l19 105c4 27 2 52 3 80 0 19 5 24 6 34 0 17-9 20-3 37 31 8 46-21 97-41 21-8 15-6 24-23-8-10-5-2-9-14 5-3 14-5 21-10 18-9 6-2 13-22 22-2 101 0 116-5 9-4 25-20 58-35 19-9 15-12 17-18-20-9-12 5-28 7-18 2-5 0-10-3 9-16 21-4 19-30-15 7-25-9-45-10l4-20-42-6c6-6 14-12 22-18 18-15 44-47 62-66 38-40 57-76 89-115 48-57 130-83 201-93 117-16 122 62 214 106 27 13 45 21 71 38 117 78 99 136 176 216l11 14 130 197c-12-1-6 3 2 12 20 24 40 42 60 64 30-49 49-94 130-149 59-40 80-33 125-75 30-29 61-86 96-107 188-115 354 306 415 356 51 42 69 63 86 85zm0 418v177c-25-15-50-28-76-42-211 130-205 189-294 215-127 37-65 0-148 104-45 56-81 83-148 111 43-89 105-175 162-242 75-87 142-94 219-163 58-52 113-170 206-178 35-4 57 6 79 18zm-1420 78c129-157 80-237 388-327-70 112-178 336-298 468-5-19-12-38-26-48-2-5-44-69-64-93zm478-509c-69 38-174 46-252 82-117 54-148 109-230 188-29 28-55 53-81 77-32-63-96-196-103-211l-33-61c-6-11-10-17-17-28-10-14-9-19-22-29 1-11-20-40-27-50-6-11-25-45-34-50-3-22-37-35-46-98-4-25-6-40-11-61-3-11-11-49-19-59 2-16-3-12 1-18-3-2-7-2-10-3-5 12-4 15-21 19-23 5-47-10-106 0 59-11 83 4 106 0 17-4 16-7 21-20 3 1 7 2 10 3 9-8 12-6 21-17 1 0 7-1 10-2 4-4 1-2 1-7-1-13 2-11-8-19-3 4-14 21-15 28 1-7 12-24 15-28 10 7 7 6 8 19 24-9 17-13 34-17-9-12 3-4-13-8-5-2-12-3-22-3 4-13 10-13 21-20-2-4-21-20-41-36 18-6 33-14 43-36 13-30 20-44 43-67 59-58 83-91 158-134 80-47 143-11 188 62 54 86 67 76 133 140 123 123 102 182 193 316 48 72 82 119 105 148zm-2149 109c-28-8-62-13-82-11-73 8-82 79-136 134-37 39-60 44-82 49 18-28 3-60-6-109-3-19-15-62-9-74l-10 1-10-20c-5-4-8-4-15-3 16 22 1 23 1 23-18-18-4-20-3-50 10 3 16-2 29-2 5 8 1 7 12 10 7-18-6-7 10-15 7 8 7 14 9 24 29 22 101 18 133 18h155c1 11 3 14 4 25zm521 1333c31-30 30-1 28 18 2-19 3-47-28-18zm27 25v30-30zm-57 40c8-9 34-16 49-32-15 16-41 23-49 32zm49-36v-1c1 0 0 0 0 1zm808 1240l8 23c3-4 5-6 8-10 7-8 5-2 8-13h-24zm-307-149c13 8 28 3 30-13-18-1-27-3-30 13zm764 315h129c1-18 14-27 32-24 4 0 54 16 46-1-9-17-34-9-51-9-27-37-63-9-78-25-8-9 0-11 2-22-28-23-50 5-77 15-15 6-10 15-31 18l-159-4c-10-2-18-5-27-7-10-2-18-1-29-3-13-2-14-6-25-9-9-2-17-3-26-6-8-2-17-6-24-7-6-2-7-3-14-2-28 4 11 20-23 32-10-16-2-22-10-35-13-19-43-11-85-48-13 4-10 5-23 5-31-2-46 5-71-13-25-16-25 1-43-12-9-7-4-12-20-6-7 2-11 6-14 11 11 11 19 7 19 31-27 3-22-7-40-12l-40-8c-28 28-29-5-39-30-13 3-3 0-16 5-4 2-5 3-9 5 1-13 5-16 9-26 6-12 3-19 8-30 11 2 9 3 12 13 2 10-1 4 3 11 5 10-2 1 6 8 20-40 5-18-1-50 8-12 5-5 14-14 13-12 5-19-8-21-11-1-19 5-28 13-19 16-10 16-6 35-15 6-8 3-19 13-26 24-24-14-56-1-1 1-1 2-1 3v14c1 9 3 7 0 15-10-8-1-36-1-37 1-9-21-19-27-21 0 25-10 26-34 22l3-18c7-12 16-12 3-35l6-1c7-3-3 4 5-3 12-11 8-31 17-39 11 3 1 6 10 14 4 4 11 1 16 0-2-26-8-6-21-33h-27c0 9 3 16 2 18 0 12-2 6-6 11l-11 31c-8-3-9-3-12-10l-2-6c-3-12 2-10-5-22-14 12-4 17-12 35-24-6-14-17-14-39 0-12-2-17-2-28 0-10 5-13-5-16-5 6-7 10-8 22-19 0-15 3-29 6-6-6-8-9-16-16l-19 8c-1 34 38 37 18 64-8 10-3 0-14 10l-29 40c-29 0-50 7-73 17-71 29-40 3-62 4-22 9-10 24-30 18-9-27 22-22 25-43 1-6 2-10-12-6-8 1-1-1-6 4-17 13-26 34-43 23 4-11 7-4 19-13 27-21-6-19 58-25 2-2 4-5 6-7 2-3 2-2 6-5 10-7 3-1 12-9 14-13 41-23 61-25 26-3 25-31 52 6 7-6 7-2 2-9-18-24-7-13-1-47 2-17 1-17 1-35 4-4 2-2 8-5l16-4c1-16-3-29 14-32 32-7 46 13 54 17 3-6-4-2 7-8-1-10-6-10-7-19-1-2-2-2-2-3 17-8 5-10 26-10 4 5 0 0 5 7 2 4 1 4 3 7 9 11 4 4 10 7 11 7 2-5 10 8 3 4 3 7 3 14-22 6-14 3-34 1l2 20c8 3 8 0 17 4 18 7 27 22 50 24 14 1 76-5 84-10 31-18 10-30 64-26 12 0 13 0 22-2 16-4 27 2 34-16l12 11c12-15 16-5 18-6v-25c1 0 2 1 3 1 0 1 2 1 2 2 1 0 2 0 2 1 5 1 0 2 6 0 6-1 26-14 39-12 9 5 2 1 8 6 1 1 3 2 3 2l6 8c2 6 1 3 2 9l12-4c-12-12-3-20-4-39-26 0-20 2-43-4-21-6-36 4-53-4-2 6 0-1 0 4 1 11-2 25-12 32-1 0-2 1-3 1 0-1-1 1-2 1-7-3-2 0-6-4-1-1-3-3-3-4s-1-2-1-2c-9 14-22 12-44 14-6 1-44 17-38-4 2-8 9-6 17-7 4 0 7 1 5-7 0 0-2-5-3-7-2-10-1-10 0-21 17 1 14 5 26 7 13 1 12-3 21-1 23 5-3 8 18 5 1 0 6-2 8-2 11-4 3-1 7-5-3-2-1-2-6-4-9-4-18-3-25 0-1 0-1-1-2-1l-8-9c-11-11-32-17-38-7l-14 11c-11 1-25 9-34 15-15 10-13 3-29 2-28-3-26 20-58 8-18 8 1 8-21 11l-7-10c-9-18-14-10-22-30 6-13 5-7 14-15 15-12 6-14 4-15-6-4 8-5-8-2-24 4-21 22-54 14-6 13-19 20-32 11 3-20 13-12 30-26-3-2 0 6-5-6-12 3-51-2-51-2-1 0-2 1-3-1-1-1-2 0-3-1-7 26-2 8-1 23 1 17-6 12-22 17-6 13 7 17-13 22-2 1-17 0-20 0-5-1-6-1-10-2-7-2-7-5-10-12-4-10-9-3-14-16-6-14 5-22-19-29-5 9-4 8-8 19-5 13-4 6-12 15-8 10-3 9-10 18-5 8-5 4-12 12-1 9-1 18-3 24-3 10-12 19-22 26-21 13-25 32-37 36-5 2-12 2-19 5-11 7 2 2-12 12-16 4-11-7-27-3-18 5-8 0-28-1-23-2-30 10-65 7-15-1-40-12-52-19-22-14-29-3-43-26-35-1-41 9-73 13-12 2-26 1-34 8-12 10 6 20-4 23-1 1-2 1-3 1 0 1-9 3-16-1-8-4-4-6-14-11-17 2-14 9-32 11-16 2-27-2-40-3 7 9 19 17 31 19-1 14-6 17-7 29 10-9 14-28 34-18 16 8 23 19 23 37-27 13-8-8-30 34-8 15-11 23-43 22-11-1-5-2-15 1l-13 9c9 13 3 3 21 5 22 3 21 8 23 13-21 13-30 4-45 7-9 14-1 13-17 28 1 12 8 22-6 28-8 4-7-3-13 8-4 5-2 14-1 21 17 2 8 1 23-4 0 0-1-3 6-10l16 9c-7 5-18 14-18 23v3c2 22 40-5 41-6 32-16 7-17 37-26l-6-16c10 3 14-2 35-16 24-17-3-24 36-16 4-14 9-18 27-18l8 9c1 19 0 49 9 61 10 14 33 14 49 3 3-21-11-27-8-74 20-12 69-20 84-26l53-31c11-9 5-5 11-16 52 6 12 38 67 33-2 30-23 33-30 38 3 16 9 20 14 27 3 6 2 7 5 12l24-1c5-10 5-9 3-22-9 1-12 5-22-1 5-18 3 2 18-28 26 0 25-3 23 19-2 17 2 9 2 20-1 21-4-1-6 17-4 35 16 3-24 43l-18 16c-32 24-29 8-61 26-22 12-19 4-38 10-10 3-6 5-25 21l43-10c20-4 32 3 47-1 10-3 10-6 20-7 25-4 12 4 42-14 7-4 13-7 22-5 15 2 19 13 39 16 25 3 32-2 52-4 23-1 30-1 48-8 23-10 26 0 47-6 1-29-4-16-21-29 7-25 65-33 85-27 19 5 6 14 2 22 12 7 11 1 21-3 11-4 16-1 28-7 2-21-3-7-11-28 21-7 36 0 57 6 2 14 5 14 1 27 49 4 31-6 90 7 19 3 13-3 27-7 8 12 13 17 34 15 32-2 20-25 20-25 1-13 22-15 17 4-8 31 5 17-4 38 21 9 16 11 17 22l-26 2c8 46 45 14 52 41h644zm-2338 0h423c1-14 4-14 17-16 11-1 17 0 28-8 0-1-1-3-2-2l-22-12c1-1 26-3 33-3l81 9c8 3 6 1 16 4 11 2 9 3 20 6v5c9-23 27-3 30-36-7-2-17-4-23-5-15-1-14 3-23 6-9-8-9-7-20-7-5 0-2 2-10 0-11-2 8 5-4-1 0-1-1-1-2-2-8-5-5-3-10-13-7-15-2-14-8-27 14-8 19 4 43-7-3-20-14-30-22-43 4-11 1-6 11-14-1-15-3-14-3-29 14-9 14-17 37-10l11-13c-17 2-30 8-49 12l-332 63c-12 2-45 6-54 12-42-2-55 17-83 24-57 30-38 12-81 70-7 10-16 21-19 33 8 4 4 4 17 4zm638-1568h1-1c0-2 0-5 1-10-1 6-1 9-1 10zm7 0v-26l-26-3 26 2v27zm1386-2808c-2-2-6-3-6-3l-4-1c-17-11 4-11-34-1-16 4-20-3-22 12 18 5 21 1 37 1 17-1 8 7 29-8zm-723 3854c-23 0-35 0-54-4l-7 14c20 6 43 10 63-1l-2-9zm571 213c39 22 4 20 37 20-1-16-10-26-21-42-19 0-17 3-16 22zm-215-4694c-8-10-34-42-44-46-2 2 0 4-3 9-2 4 0 5 1 11 1 5 8 10 11 14 68 79 68 126 104 217 10 24 40 110 54 125 5-7-1-39-3-49-1-13-4-31-7-44-3 2 7 55-22-21-15-40-26-74-38-116-1-5-21-66-22-68 0 0-8-4-9-5-8-7-16-19-22-27zm97 3268c-6-15 0-12-10-20-12-11-21-12-37 1 16-13 25-12 37-1 10 8 4 5 10 20zm-1028 1651c2 15 7 18 12 28l25-5c4-18-7-49-37-23zm251-2296c0-1 0-2 1-3-1 1-1 2-1 3zm15-27c0-4-1-10-3-23-20 10-9-1-19 18-6 10-1 4-11 11-3 2-7 4-10 6 3-2 7-4 10-6 10-7 5-1 11-11 10-20-1-8 19-18 3 13 3 20 3 23zm1237 426v-13c-5-14-23-7-30-2-8 6-10 16-17 22h-1c8-7 10-16 18-22 7-5 25-13 30 2v13zm-959 1981h64l-1-9c-56-14-31-24-64-14l1 23zm448-3235c-10-4-4-2-7-7-3 6-2 8-6 13-13 1-31-1-41 4 15 8 63 4 82 3-3-6 1-1-5-6l-4-3s-1-1-2-1c7-14 18-28-10-27-3 6-5 14-7 24zm-531 3235h55c0-55-48-22-53-10-3 6-2 4-2 10zm718-4904c-6-14-11-29-17-43-3-9-4-11-8-20l-6-14c-4-7 0-2-5-7-1 9-6 42-2 47 14 16 5 13 11 24 5 10 15 13 27 13zm-513-211c5 42 45 94 68 131 8 14 16 31 27 42 5 5 23 24 29 25h3c-1-13-7-20-14-32-20-34-40-66-61-100-18-27-29-49-40-79-4-10-2-9-9-7-5 2-3 5-3 11v9zm-590 5115h99l1-20c-21-11-25-4-43 4-17 7-36 0-55 4l-2 12zm723-46c-11-1-13-4-22-6-12-2-11 0-19 7l1 13c11 4 26 4 35 9 8 4 8 13 33 0 2-31-6-23-28-23zm77 46h30c-3-29-8-18-24-31 4-31 14-17 30-29-8-12-12-14-32-13-9 10-17 21-22 35 7 5 10 5 20 8l-2 30zm244-5052c-8-20-55-100-69-113-10 18 5 17 12 33 1 2 4 12 4 12v6c0 7-3 1 2 4 0 0 6 1 9 2-2 42 10 4 10 52 9-3 1-2 14 1 4 1 9 2 18 3zm-163 4791c3-14-3-13-5-27-3-22 3-20-17-22-8 19 0 16-1 28-2 13-6 10-5 29 2 16 1 16 0 29 0 13 6 23 14 12 7-9 2-17 4-25 2-7 8-14 10-24zm-807-145c12 5 12 6 29 6 24-1 42 32 82 14-5-31-51-32-78-30-15 1-24 2-33 10zm19-549c0 46-3 45 12 44 0 0 12-1 13-1 10-2 12-4 22-13 16-13 14-44-14-35l-5 2c-12 5-6 3-28 3zm776-2490c-4 3-4 3-9 5 5-3 5-2 9-5zm80-2c1-16 0-19-7-28-4 5-9 6-19 7-43 4-19-25-44-29-2 5-1 3-3 10-4 13-6 18-7 27 1-9 3-14 7-28 2-6 1-5 3-10 25 5 1 34 44 30 10-1 15-2 19-8 7 10 8 13 7 29zm-384 3447h126v-13c-16-9-27-8-52-8v-20c-20-2-12 1-31 4-14 2-18-3-35-2-21 9-8 39-8 39zm510-1068c-3 4 0-2-2 7l-7 57c0 1 2 9 2 12l4 10v-10c13 7 5-3 7 14 3 18-5 11 13 16 6-21 0-26-2-45-2-26 19-33 36-36 23-4 18-7 43-9 21-2 15-1 19-16-16-6-49-6-67-2-22 5-41 34-46 2zm-178-2533c2-18 3-35 2-36-7-17-9-6-8-29l-15-3 15 3c-1 23 1 12 8 28 1 2 0 18-2 37zm-19-56c-1 11-8 11-14 17-4 4-5 7-5 9 0-2 1-5 5-9 6-7 13-6 14-17zm-19 31c0 2-2 6-8 11 0 0-6 4-8 5 2-1 8-5 8-5 6-6 8-9 8-11zm-1245 3626h326c0-24 0-29-7-47-25 6-16 11-24 29-37 7-39-17-75-15-15 8-24 15-49 17l-171 16zm1257-3123v4c-3 13-8 11-11 24 0 2-1 4-1 5 0-1 1-3 1-5 3-13 8-11 11-24v-4zm-11 44c0 2-1 5-3 9l-12 1c-4-7-5-8-5-9 0 0 1 2 5 9l12-1c2-4 3-7 3-9zm-19-5c1-1 1-2 1-4v-5 5c0 2 0 3-1 4zm1-12c0-1 0-2-2-7-9 6-10 12-11 18 1-6 2-12 11-18 2 5 2 5 2 7zm-14 16c0 8-3 17-22 24-1 2-1 4-1 6 0-2 0-5 1-7 19-6 22-15 22-23zm-12 137v-6 6zm16 36c-8 79-5 50 0 0zm-206 252c-6 9-9 13-10 24 1-11 4-16 10-24 39 5 36 5 0 0zm1 28zm206 581c-1 7-3 7-4 13 1-6 3-6 4-13zm65 169c0-22-7-37-6-63-1 26 6 41 6 63zm133-37c-1-10 1-5-11-10-70-32-58-3-108-32-12-7-26-9-37-15 11 6 25 7 37 15 50 29 38 0 108 31 12 6 10 1 12 11h-1zm112-22c-1-13-7-8-16-24-16-28-4-37-14-59-4-8-6-13-5-19-1 6 1 11 5 19 10 22-2 31 14 59 9 15 15 11 16 24zm78-17l-13 10v1-2l13-9zm14 18c0-4-4-10-5-13s-2-6-1-9c-1 3 0 5 1 8 1 4 6 10 5 14zm9-28s-1 0-1 2c0-1 1-2 1-2zm62 3v1c2 3 3 3 3 2 0 1-1 0-3-2v-1 1-1zm91 24c-1-2-1-3-1-4 0 1 1 2 2 4h-1zm0-6c0-1-2-1-12-3-8-2-10-1-10-1 0-1 1-1 10 1 11 2 12 2 12 3zm-22-2c1 1 1 0-4-2-4-3-5-5-4-8-1 3 0 5 4 7 3 2 4 3 4 3zm-2-26c-21-22-18-17-18-45 0 28-3 23 18 44v1zm54-51v-3 3zm-628-1895c-16 0-16-1-28-4-20 30-3 33-28 45-4-8-6-17-7-28-1-29 1-23-10-27-2 4-3 7-3 10 0-3 1-6 3-10 11 4 9-3 11 27 0 11 2 20 6 28 25-12 8-15 28-45 12 3 12 4 28 4zm-76 25c-1 5-2 11-3 19 1-8 2-14 3-19zm119-3l-10-49c-2-6-7-15-10-21-3-8-5-16-9-21-11 12-14 18-15 25 1-7 4-13 15-25 4 5 6 13 9 21 3 5 8 15 10 21l10 49zm-1617 3856c1-15 4-21 6-33 12 5 6 2 16 9 7 4 5 4 15 6 0 13 2 14 0 22-4 10-11 19-22 9l-15-13zm2038-763l15 5 5-8c1-1 1-3 1-4l1-1 19-21c0-1 1-1 1-2l46-67c-9-8-38-6-43-7-14-1-13-15-31-3-6 5 0-7-4 7l-9 71c1 5 3 4 3 15 0 15-4 15-4 15zm-127 134c25 19 54-3 86 7l54 17c15 9-7 8 22 9 0-18-2-18-8-30-10 3-2 4-9 6 0-14 0-9-1-24-52-6-20-22-76-21-18 1-29 2-38 13-9 9 5 3-13 9-17 5-11 1-17 14zm-888-322c8 36-3 35-3 62 0 1-1 0-1 0-1 8 2-2-6 0 0 13 2 10-6 17-2 2-15-2-10 21 3 9 14 15 23 18-4 12-4 3-6 17l25 1c0-1 1-4 1-4l6-16c18 1 14 5 27-8 20-19 0-18 17-25l-5-2c-20-5-21-3-35-5h-10c-3-1-1-1-4-1l-11-3c28-27 5 9 26-41 14-33-6-29-9-42l-3 4c-10 9-12 6-13 7h-3zm597-2826c-11 1-24 1-35 2s-17 5-30 6v-1c13 0 19-4 30-5 11-2 24-1 35-2zm-62 24v1c-14-1-13 1-22-4-8 9-8 5-16 19 8-14 8-10 16-19 9 5 8 3 22 3zm-14 41c0 2-3 4-3 6 0-2 2-4 3-6zm20 11s-1 0-1-5c0 6 1 5 1 5zm0-7c0-6-1-7-1-8 0 1 1 3 1 8zm49-21c1-12-2-9-1-11 0 1 2-1 1 11zm8-35c0-3 0-7-1-16h1v16zm97-3v-8c-9-5-16-9-27-10 11 1 18 5 27 10v8zm-17-31c-69-7-80-7-81 3 1-10 11-10 81-3zm115 2215h-23c4 17 7 10-6 19-6 4-14 9-20 12-26 12-37 0-38 24l12 6c1 1 12 3 13 3 47 6 43-21 87-21 14-27 13-12 39-23l16-9c17-7 13 4 18-15-16-11-32 1-68 3-11-14-1-14-23-13-7 7-6 2-7 14zm-832 50c0-1-7-5-6-6 0 1 7 5 6 6zm59-2c2-18-1-43-4-57l-22-44c-14 1-51 49-54 53v-1s40-51 54-53l22 45c3 14 6 39 4 57zm1494 1573h475v-114l-143-79c-9-6-12-8-23-11l-119 162c0 1-5 7-6 7v-24c-53-9-28 14-56 13-24 0-10 7-27 11-25 5-29-16-46 16-27 0-50-4-55 19zm-244-230c17-2 25-9 41-16 48-21 25-13 43-26 24-18 8-3 20-22l21-29c-14-22-13-26-47-27-4 11-42 49-48 52-11 7-24 8-32 16-8 7-3 5-11 13-6 5-9 4-14 13 7 19 0 1 20 20l7 6zm-1569-2023c2 12-2 9 11 18l18 14c0 1 1 1 2 2 26 20 40 6 59 3 14-2 20 1 30 3 1-1 1-3 1-2l4-10c0-1 1-2 1-2l8-7s1 0 2-1l14-10c16-15-10-14-11-29 0-1 1-8 1-10-21-2-43-3-65-5 1 3 2 27 0 28h-10c5-34 8-34-32-28-11 2-11 2-24 1-5-1-17 4-23 6 6 3 12 5 17 7-5 20-6 3-3 22zm1507 1262c-1-1-2-3-2-2-2 5-1-12-5-6-4 5-1-1 0 4l5 11c-1 0-3 0-3 1-5 14-2-8-7 3l-1 3c-7 14-3-14-7 31-2 12 3 8 2 19-2 17-21 17-20 35 0 28-3 31-15 48-14 20-5 11-15 33l-9 15c-22 14-6-1-21 21-2 2-41 37-24 53 2 3-3 9 14-1 13-7 25-19 35-31l19-26c42-50 2-33 29-57 11-11 9-9 20-35 9-23-3-22 24-41 0-4-1-11-1-14 2-16 4-13 5-14-7-16-3 6-8-17 1 0 2-2 2-2l4-4c1 0 1-1 2-1l24-1 4-36c-1-1-1 0-1 0-1 2-20-1-6-20-9-2-6-2-12-2-14 20 15 5-32 33zm201 175l-73-225c1 23-5 18-2 37l1 33-10 5c5 18 2 40 4 60 13-1 7-2 20-4 0 14-3 11-3 25 0 13 3 8 3 24-12 11-12 14-21 16-30 5 2 1-23 19l-8 7c0 15 1 19 4 30h-11v12c16-2 6-1 18-5 4-1 8-6 15-1 14 9-16 19 9 22 18 2 6-3 9-18l1-8s1-1 1-2v-1l3-9c13 5 12 19 9 32h16l-7-26c9-9 10-7 13-23 19 3 10 10 18-7l5 11c17 0 3 0 9-4zm-1693 351c18 4 26-1 44-7 38-13 110-11 130-15l80-10c27-1 28 6 51-1 31-9 83 0 86-29-14-7-63-7-85-7-34 0-49-10-83-7-6 10 0 11-13 15l-101 14c-49 5-55 4-89 26-25 16-16 7-20 21zm928-1129c7 82 63 140 56 198-2 19 19 56 27 62 0-2-1-9-1-9-2-25 7-14-6-19 8-5 8-2 12-10-6-14-21-9-15-29 20 23 21 10 53 18 30 8 15 5 26 2 31-10 21-1 26-18-25-10-8 12-38-3 0-20 16-19 31-27 4 3 4 5 8 9 11 11-1 4 14 8 10-13 9-3 10-25-15-7-20-6-28-21-67 0-43 18-97 11 5-27 34-19 46-23 18-6 1 1 9-6-5-7 3-1-8-8l-33-15c-9-3-18-1-28-4-27-5-29-23-30-56 6-2 11-2 14-9 1-1 2-2 2-3 1-7-3-17-5-26-13 6-27 8-45 3zm328-2768c51-12 64-23 46-77l-55-169c-24-75-41-129-70-201-5-14-18-55-29-65 0 13-1 26 0 38 1 11 2 10 1 16-1 7-3 32 0 46 7 23 8 8 20 11 0 39 0 41 11 55s0 4 10 18l8 9c1 1 1 2 2 2l2 5c6 13-2 27-1 49 7 4 1 0 11 4l-4 20c30 17 20 13 28 51 4 20 3-4 12 40 5 21 9 34 13 57 4 24 13 34-8 46 7 16 1-4 7 9 3 5 3 6 4 14 2 13-1 10-8 22zm271 3457v42c-6-8-4 1-6-14 0 17 6 18 1 35-3 9-1-1-2 12-2 19-6 13-6 18 0 10 4-2 3 17-2 38-10 34-17 66-2 14 0 5-6 15-13 25-6 23-17 24 3 0 6 1 10 0l9-6c1 17-2 10-3 13l-5 1h-4c-8 0-6-1-14 0-27 5-10 13-39 16-9 1-19-5-17 7 3 23 34 8 42 21 10 17-21 20-36 18-17-3-38 14-68 20-18 4-30 26-103 24-39-1-19-2-25 7 38 16 82 15 122 5 70-19 8-16 92-22 9-1-2-2 7 0-9 26-19 28-14 27 1 17 1 9 12 20 32-9 14 2 26-8 10-9-2 2 3-3 14-13 9-11 22-7 1-20 10-33 11-52l9 4c-5-24-4-26 2-46l1-4c0-1 0-2 1-3 4-13 4-8 1-20 24-1 27-3 32-18l-25 5c0-12 1-17 4-25 4-14 7-11 10-20 7 1 2-1 8 2l6 5c1-18-3-7 7-11 9 8 3 3 9 15 0 1 1 2 2 3 2-34-13-22-10-55 18 5 3 3 10-1-1-26-9-13-4-45 2-13 0-7-2-20 0-5 8-62-10-67l-16 1c-7 0 3-2-5 1-5 2 0-1-8 3zm555 874c5-9 0-7 16-10 10-1 14 1 23 3-1 30-32 32-39 7zm115-72c-30 10-31-11-35-15-7-8-9-4-16-8-1-19-14-36 15-36 6 20-3 16-3 39 25-1 33-11 51 3-1 10-2 13-12 17zm-1117-1169c-6 9-4-7-5 8-8-10-8-2-14-12-6-9-2-8-5-20-4-21-14-11-13-37 12 3 15 8 21 19 15 25-1 7 23 18-5 10 4 8-7 24zm-65-56c4 19 8 15 17 28 10 14 3 17 3 38 19 2 32 10 52 11-12 10-27 13-41 20 1 16 6 23 11 37 24 69 12 65 55 98l-1-21c28 7-6 14 46 17 9 0 5 4 18 4 24 1 24-5 28-8-8-4-33-14-42-7-1-21-9-7-3-25 9 6 14 1 27 0l-6-8c1-1 5-3 5-3 9-4 15-7 18-15-4-1-3 0-4 0h-3c-2-10-3-13-3-26l20 3c0-2 23-41-17-28-10 3-33 26-36 1-1-6-5-11 5-21 5-5 0-1 6-5 13-9 2 4 11-10-11-20-19-3-20-51 12-6 1-10 16-46 4-10 7-11 2-25l-4-10c-5-10 2-6-8-10-11 4-10-5-5 13l-19 1c-17 5 4 9-25 8-23 0-13 4-28 5-19 1-1 0-13-3h-9c-12 4-25-8-47 17-10 13-1 13-6 21zm-1096 799c-4 8-7 17-20 14-12-4-9-11-8-24 15 7 15-1 28 10zm-1-146c32-3 24 8 20 30-15-5-20-1-20-30zm-137 250c10 10 6 13 38 14 5 9 3 15 17 20 8-15 6-12 8-33 27-14 9-2 26-27 10 5 21 7 28 15 17 20 11 28 41 31l59 4c70 5-10 4 53-1 21-2 7 5 21-6-12-11-15-1-55-12-22-6-28-14-53-16-40-2-34-3-63-23l-2-2c-12-9-5-16-4-33l23 3c8 4 0 2 11 3 6-28-4-11-4-34 0-9 11-3 15-1 6 19-16 1 15 22-3 12-5 11 2 21 21-2 11-8 16-29 2-8 6-13-5-34l20 4c3-7 2-9 2-9 0-1 1-2 1-2l8-31-20-8-2-2c-1 0-2-1-2-1l-2-1c0-1-1-1-2-2 0-15 2-20-4-31 19-16 8-4 7-48-18-4-16 1-27-10l-4-4c1-14 2-8 7-20 12-26-6-46-4-69 1-15 0-4-4-15-9-21-10-13-23-44-8 21-15 26-25 0-7-20 6 12-2-5-3-6-3-5-4-7l-7 29c0-11 2-20-4-28 0 17-3 98 2 109l32 89c4 13 7 21 11 31 8 23 2 19 14 30-11 5-3 0-13 8-18 15-4 13-50 47-4 3-7 5-11 9-39 32-69 43-81 99zm92-515c-4-20-7-9-2-37l1-8c1-5 8-9 12-11 9-3 36 7 44 12 7 5 6 7 12 15 8 13 15 21 24 32 30 39 6 31 30 53l6 8s1 1 1 2c4 11 16 22 23 36 23 45 7 6 23 33 4 6 8 6 2 16-3 6-9-11-1 21 11 5 3-4 14 5l24 19c15 18 27 26 66 26 10 0 10-2 14 4 4 5 0 3 4 10 4 9-2 6 8 8l3-19c-1-16-3-6 0-21-12 3-13 8-19-5-1-3-2-11-2-14 0-1-1-3-1-4-3-9-9-3-16-25-4-14 0-14-7-28-9-18-20-20-28-41-15-40-12-11-34-52l-49-72c-7-7-1-2-11-7-26-13-6-7-25-27l-28-34 24-9c-3-10 0-6-12-17l-4-3s-1-1-2-1-2 0-2 1l-11 3c-29 6-26-10-41-30-11-14 0 7-17-24-8-14-6-9-25-14-11-3-5-3-17-6 3-26 10-43-6-54-1 0-4-2-5-3 0 47-13 168 4 209 7 15 13 44 26 53zm-154 768c27-5 28-17 46-10 5 13 3 7 0 24-31-4-22-14-40-5-17 9-14 3-15 3-7-3-4-3-7-6l16-6zm1876-966l-23-84c-10-33 15-49 17-78 2-17-19-158-21-190-18-29-83-12-89 2-3 6 0 5 1 7-7-3 1 2-4-4-17-18 10 5-5-6-11 7-5 12-13 15-3-12 0-8-11-11l15-8c-14-7-8-6-19-15-5 4-5 2-11 6l-8 5c0 1-1 1-2 2 0-1 0-3-1-2l-6-15c-19 2-3 5-19 9-15 3-7 5-14 16-7 9-8-7-8 16l7 12c0 1 0 2 1 2l2 5s3 10 3 11l-3 16c1 11 2 19 2 31 8 0 13 0 17 9 4-16-6-11 14-8l-3 6c-4 6-6 7-7 15 4-12 2-7 11-2l14 12c14 18-2 3 6 31 12-4 6-3 17 1 0 20-1 13-7 37-23 10-25 8-31 31-3 12-12 12-20 19 0 0-1 1-1 2l-12 16v-21l16-8c-9-4-11 1-26 1 6 4 6 1 8 10v18c-11 0-25 0-22-28 1-12 4-7 4-16 3-29-3-12-8-10-10 4-25-4-10 26-12 4-10 10-19 17 7 1 11 4 16 7l-9 46c-10-2-4 1-10-3 0 8 1 8 0 12l-6 15c-1-16 3-6-5-10 0 0 1 3 0 3l-12 9c-1 1-2 1-3 2 0 0-1 1-2 1-1 1-3 3-4 3-9 7-13 24-10 35 1 4 1 4 2 6l11-12 2-2 2-2s1 0 1 1c1 5 4-9 6 5l12-31c1-2 0-3 8-6 8 7 8 12 13 21l43-1 2 38c-3 15 0 24 5 33l-8 5c-9 9-13 22-19 33l8-5c-8 33 10 1 7 30-2 18-13-2-15 25l-16 3 3 10c5-3-3 0 7-2 18-3-3 4 8-3 5-2 9 0 15 2 4-13 7-12 10-21 1-1 2-3 2-4l5-6s1-1 1-2l4-7c0-1 1-1 1-1 0-1 1-1 1-1l21-12c5-1 12-3 22 0-12-18 16-19 1-48l-1-8s-1-1-2-1c6-5 3-1 5-7v-3l14-31c4-15 11-10 19-20 4-5-5-2 6-6l-14-17-27 7c-3-8-3-8-9-13 1-1 2-3 2-3l-1-20c11-7 6-2 12-15l3-9c2-13-2 2 0-13 0-1 1-8 3-10 9-9 1-2 13-5l12-4s0-1 1-1v-1l2-3c12 1 12 3 27 4-1 53-23 19-23 72 2-7 2-14 9-15 11-2 21-8 28-16l8-9c0-1 1-1 2-1 0-1 1-1 2-1 0 0 1 0 2-1 13-3 4 2 18-6 3 13 5 22 17 26l2 55 18 9zm-130 897c27-4 22 7 36 14s6-3 18 9c5 5 8 3 9 17-6 3-2 2-12 3-8-14 0-17-23-21-33-7-21-5-28-22zm-239-29c-49 3-15-18-9-74l24-4c-5-23-6-3-12-22 18-9 19-3 39 3 16 4 28 7 46 10 14 3 25 10 40 15 12 4 31 9 36 20-10 8-19 6-36 11-35 10-72-15-85-17-31-6-43 58-43 58 30-2 30 4 51 7 28 4 83 9 110 3 20-5 37-17 47-11 14 7 1 7 12 16 1 0 2 1 2 1l14 6c-3 24-5 13-18 27 13 16 39 26 56 40 9 7 7 11 17 17 18 10 97-8 107-17l8 6c6 6 0 2 7 7 4 3 23 11 33 9l4-2c1-1 4-2 5-2 6-2 7 0 13-8l11-17c5-9 7-13 11-23 11-26-7-38 17-47 24-8 20 25 13 42-9 21-12 31-14 56-21 3-17 1-28 15 2 8 4 14 10 19 8 5 12 1 24 1l5 17c13-3 8-4 18-9l20 7c-1 15-9 10-6 16 2 5 14 5 19 2 14-7-17-21 19-24 10 15-3 8 17 16 56 21 20 9 54 4 11-1 14 5 31 7l20-35c10-12 23-17 15-41-7-10-17-13-30-16-17 10-6 18-32 9-12-4-29-4-35-9s-4-6-10-12c-3-4-9-8-13-11l-50-43c-17-14 0-6-25-17l-14-6c-20-3-21-8-35-33-14 4-17 10-24 23l-23 30c-7 5-9 0-19 7-15 12-13 30-31 30-27-1 2-5-21-11-4 8-2 4-2 16-23 0-21 5-42-1-4-9-2-2-3-17-18-1-15 3-23-8-5-6 4 5-3-4-3-4 0-1-6-5-24-17-44-16-50-37l48-15c67-21 47-27 60-38 10-9 10 0 19-12 5-7 3-11 11-20 36-42 39-39 78-29 8 2 18 5 26 8 25 8 19 12 42 38 17 19-6 11 24 27-13 8-13 5-2 30 4 11 2 9 10 18 10 7 9-3 29 16 24 21 7 20 48 41 13 6 20 14 36 10l4-19c15 4 10 6 25 4-8-10-20-15-31-22-22-13-8-14-18-34s-35-38-55-48v-24c-22-5-20-14-52-14 6-24 5-10-7-28-16 1-17 6-33 3-8-1-18-7-29-10 5-22 43-51 48-72-8-3-14-8-21-14-22-17-25-15-33-36-5-14-6-15-8-26l36-37c9 4 20 11 33 12 16-22 12-22 6-53-5-22-7-38-16-55l-8 7c0 1-1 1-1 2l-6 22c-5-7-3-3-9-4-6-2-10-3-18-6-2-6 3-1-2-14l-34 25c3 5 0 3 3 9 7 14 5 6 15 12 0 17-10 26-3 45 6 14-1-3 4 7 1 2 2 2 3 7-12 20-5 18-23 42-4 4-7 9-11 14-29 33-17 39-24 56-22 2-41 6-62 5s-45 0-66 0c-48-1-54-10-86-11l-23 3c-7 3-3 1-7 5l11 9c3 1 11 1 15 2 23 3 26 11 59 12 19 1 21-3 31 8-3 10 1 7-13 11-37 10-27-13-70-8-19 2-14 1-26 9-11 7-12 5-22-2 9-9 9-3 20-10-8-18-7-8-20-18-12-9 1-12-25-16-6-25-14-11-22-28 14-16 51-9 68 0 28 14 46 5 76 1l74-16c33-10 32-4 29-47-1-9 1-12-21-13-10 0-7-3-19-3 2 14 7 24-6 33-11 7-29 8-42 10l-69 12c-43 6-58-29-110-6l-8 6v3c-3 10-13 15-19 23-24 33-49 18-52 9-5-15 7-16-10-23-7-3-44-3-52-5-1-49 9-32 20-58 10-23 8-46-1-65-13-6-20-5-22-18 0 0 2-8 0-10-4-3-2 2-7 8-4-17-7-17 0-31 5 7-1 4 3 13 10-12 17-9 25-21l13-55c1 0 18 13 30-1 4-5 7-40 7-47-1-20-13-24-21-36-7-11-3-28 0-41s0-28-3-39c-15-8-20-1-32-13-14-13 5 19-4-6-1-3-1-5-2-8-5-15-4-10-13-15-9 5-14 16-18 27l11 14c-14 2-6 1-20-4 1 19 13 46 18 65 45 152 8 135-22 191l30 50c5 8 6 9 5 22l-15 86-1 2c0 1-1 2-1 2l1 13c21 0 19 1 29 16 22 35-12 19 29 61 6 7 11 11 13 22 2 10 0 7-1 9 0 1-3 18-23-3-7-6-10-9-14-18h-37l-6-27c-6 0-9 0-18-1 0-14-2-11 3-21-14-8-25-9-46-9-8 14-4 50-3 51 6 6 6 0 26 5 52 15 8 40 40 44 42 5 15 10 31 11 13-4 15-12 25-6-3 2-5 4-9 8l1 44 17 13c-16 30-11 2-21 61l-2 15c1 10 13 16 28 11 23-8 12-23 25-51 6-14 7-16 2-30zm-42-183c5-10 9-13 23-13l-2 23c-16 0-14-1-21-10zm-187 411c10 3 6-1 12 9 4 6 4 7 5 15-17 0-23-13-17-24zm-80 4c-1-18 1-18 19-18 0 18-1 18-19 18zm256-11c2-13 5-14 16-11 3 7 3 9-1 12-7 6-12 1-15-1zm-174-32c15-2 17 1 16 19-15 0-10 0-21-4 0-15-3-7 5-15zm98-6c-14 3-39-1-25-15 10-11 24 0 25 15zm-371-65c-1 17 20 29 4 33-22 7-51-38-23-50 27-12 20 8 19 17zm45-13l19-18s1-1 2-1c8 30 30 6 13 58-9 29-22 25-31 0 11-6 13-3 25-4h2c1-1 1-3 1-3 1 1 1-2 1-2l-2-18-30-12zm-321 4c8-14 1-5 18-13 11-4 10-6 18-9 10-5 27-9 40-12 38-10 55-52 55 3 19 0 18 3 24 10-10 9-5 7-23 11-18-19-17-36-51-12 3 8 10 18 15 25 20 32 21-12 93 4-4 12 1 6-9 12-6 3-65 17-92 13-31-6-25 0-42-20-15-18-25-6-46-12zm-428-109c17-37 48-14 59-13l82-8c17-4 25-7 31 13-24 12-49 1-25 22-28 15-50 6-71 13-22 12-12 30-13 57-43 24-38-21-53-49-24 0-21 6-40-4 19-24 34 12 50-14-11-14-14-3-20-17zm329-9c-1-1-11-3 1-21 5-7 8-9 17-12-1 17-5 34-18 33zm-88 4c5-10 10-14 20-21 29-21 10-15 26-18 10 24-14 46-37 50-4-3-7-6-9-11zm457-101c-1-30 14-32 16-38 0-2 1-2 2-2 31 1 8 13 37 14 11 1 25 0 27 16-17 2-37-4-47 5-17 14-12 21-35 5zm-217 8c-15-3-38-19-43-28 15-11 9 2 30-4 1-14-16-47 25-30 7 3 34 20 28 41-1 1-2 1-3 1-44 9-19 17-37 20zm846-1776l3 6c7 16-2 6 8 15l-1-21 8 3c18 8 25 52 25 73 1 22 2 1 5 13v2l-8 9c-27-10 17-6-36-19-14-4-11-2-13-12-8-24 6-39 8-45 2-9 1-15 1-24zm-78 70l-10 8c-13 13 19 6-34 10-18 2-20 3-25-8-2-4-1-1-3-7 10-6 14-2 9-19-6-17-11-6-16-19l3-2 20-12c10 7 5 12 14 13 13 0 11-16 27 9 15 23 22 9 15 27zm70-140c35 2 50 48 20 40-9-2-8-5-10-8-8-11-9-17-10-32zm-409-109c3-5-1-14 33-16 11 24 7 33 37 49l8 2c3 1 31 15 35 26 23 49 28 17 39 46-6 8-3 4-9 9-1 1-3 3-4 3l-5 6c-10-6-5-1-16-4l-26-13c-9-6-2-4-9-8l-10 12-1 1c-11 11-15 12-28 11-16-33 0-50-22-52-1 0-9 1-13 3-1 0-6 3-7 4-14 13 12 19-22 22 9 4 4 2 10 7-20-1-7-7-19-3-5 1-6 5-20 7-4-6-4-3-5-17-3 9 0 4-10 6 1-13 4-10 0-17-48 4-38-75-1-67 5 0-2-5 8 5 0 0 1 1 1 2 12 12 53 13 69 10l12-6c-17-24-13 3-25-28zm64-212c36-15 37 19 48 31 8 9 8 2 15 16 15 32-3 6 22 36 10 13 11 24 31 27 37 6 58 26 84 34 32 11 51-17 97-6 0 51-50 20-103 32-6 2-4 9-23-3-3-2-3-8-22-7-15 1-20 4-30 22 0 0-18 13 6 15 14 2 18-4 27-7 13-3 24 0 32 2-1 11-3 9-8 19l-9 15c38 37 35 4 51 32 1 1 1 2 2 3 0-5-4-14 14-13 13 1 10 5 26 6-8 18-7-8-6 19 0 7 2 15 2 25l-20-14-3 9c-6 10 0 0-10 9-7 7-3 2-7 11-5 11 4 10-7 13-3 9 3 2-8 3 0 1-1 0-1 1-43 3-22-15-47-28-16-9-22-1-39-16l-7-7c-13-14-7-7-24-18 2-31 23-31-14-57 0-15 3-23 2-32-1-8-8-21-8-30-1-18 7-12 4-25-4-21-28-33-32-39-8-14-1-18-7-32l-24-37c-1-1-1-2-2-3 0-1-1-2-1-3s-1-2-1-3zm94-82c18-3 14-4 11 11l25-6s3-1 3-1c6-1 11 4 15 9 6 9 2 7 13 15-5 19-9 5-4 16 7-10 6-8 6-24 7-1 6 0 11-3l7-5c13-6 28 12 11 31-5 6-7 0-7 23-1 0-4-2-5-2l-13 2c4 7 5 12 7 21l-44 7c-15 3-1-1-16 1l-11-27c-2-11 3-16 6-26 2-6 4-9 1-18s-7-6-16-24zm-126-240c29 55-81 26 0 0zm40 19c5 11 7 12 7 28 11 0 13 2 21 3 8-8 10-16 16-17 2-1 4 16 13-11 3-10 3-14 15-11 1 0 2 0 2 1l5 2c1 0 1 1 2 1 3 2 1 1 6 4 0 0 1 2 2 2 0-1 1 1 2 1-1 1-2 2-2 3 0 0-1 1-1 2-9 18-2 12 3 38l-35 3c-14 51-16 9-7 48-12-7-18-7-21-21h-7c-2 22-15 10-28 17 9 11 4 4 18 10 0 19 1 11-7 26-6 14-10-16-21 33-4-6-2-5-6-11-8-13-11-3-21-20-7-13-4 7 0 0 0 0 1-2 1-3 3-10 2-14-5-21 6-1 8 0 12-5 7-7 3-5 0-19-10-33-8-6 9-30 1-1 2-1 2-3 0-1 1-1 1-2 3 11 9 11 10 11l11 7c3-11 8-36-7-42l7-20s2-3 3-4zm-83-55c43 38-71 30 0 0zm0-35c-6-9-8-19-11-30-10-31-6-23-1-26 9-6 12 3 25-7 11-8 7-15 23-18 20-5 28 5 20 21-7 12-14 4-24 16-10 14-7 39-32 44zm-31-99c7-11 6-9 16-16 3-3 8-8 10-9 7-5 2-2 6-1 9 15-1 35-25 35-3-4-4-6-7-9zm-290 387c17 0 20 0 20 24-22-1-16 7-39-10l-8-8c4-2 22-6 27-6zm-100-14c24-6 51-4 79-4 7 0 14 1 20-1 9-3 0 0 7-4 1-1 5-3 6-4 12-5 34-10 36 7 1 24-31 11-45 11s-17 4-24 4c-20 0-37-3-45 0 13 20 5-6 24 11-17 29-28-1-58-20zm-687-74c-4-40-1-23 53-22l-1 21-52 1zm770-21c-9 1-23 4-30-1-19-11 30-22 30-22 11-5 6-6 13-15 16-21 21 1 33-29 13-28 16-10 16 13-23 12-8 6-19 26-6 12-16 9-32 9-5 6-7 12-11 19zm-5-834c5-7 7-18 21-13 6 3 3-4 14 19 17 34 18 127 26 170 8 41 6 75 16 117 7 30 8 61 9 89 2 20 4 9 6 24 17 126-14 104-68 120-47 15-35 16-81 21-25 3-176 45-196 20-2-4-6 7-3-12 2-13 12-9 22-21-13-8-13-7-35-7-13 0-27 1-41 2-13 0-25 2-38 2-36 2-29 25-30-43-1-14-4-53 1-63 10-22 69-44 92-54 7-4 96-39 60-55-26-11-96 8-127-19-19-17 4-44 17-56l3-2c28-25 62-42 96-59 16-8 52-29 16-42-22-8-60-5-75-12-36-17 65-65 77-68l5-1c29-3 66-10 92-23 18-9 18-17 29-26 12-9 31-6 50-9 18-2 32-10 42 1zm-1202 620c-17 0-19-5-34-6 3-31 7-37-13-61-7-9-5-9-5-22 1-39 7-89 13-129 7-39 23-95 15-133-3-14 3 9 4 12 5 44-9 85-3 132l1 7c2 11 8 29 4 38-5 12-6 10-3 25 2 16 0 27 1 44 8 15 23-13 20 93zm-233-12c-17-4-9-2-20-11-22-17-23-21-23-60 0-59 7-62 7-128l3-127c1-55-2-166 18-214 11-22 5-23 12-38 5 9 7 16 13 25l15 20c25 0 40-3 64-8-17-9-19-18-20-36 7 3 12-1 16 0 0 0 6 6 8 7 10 7 5 3 16-5 5-4 8-5 13-7 9 27 27 29 37 57-2-4-7-8-7-12-1-7-24-8-29-8 27 10-1 2 12 9 14 7 6 2-3 5-2 6 17 9-10 23-11 5-30 19-31 32 0 13 26-38 59 4 13 17 21 40 24 61-4-6-9-45-6-7 1 12-2 37 4 44 10 12 21 5 29 23 5 13 3 28 4 41 2-20 4-42-16-54-15-10 5 1 8 5 28 28-6 128-14 164l-1 2c-10 51-16 95-15 147 0 17-2 28-3 43v4c-15 1-24-2-39-1-28 2-99 5-125 0zm982-486c-2 9-27 131-11 124 10-6 11-14 15 3 7 39 0 47 18 86 12 29 11 36 6 66-3 24 5 51 9 75 2 10 3 20 4 30 7 85-34 46-35 82-1 25-1 50-2 75-1 10-1 21 0 32-45-6-100-28-141-30-21 0 7 25-19 29-9 2-32-1-37-10-7-14 3-42-39-27-33 12-97 50-128 46-18-3-33-6-52-7-14-1-37 0-50-3-32-8 5-39 18-47 22-12 34-15 58-18 18-2 1-12-9-14-34-6-90 9-121 23-28 14-54 29-82 43-12 5-24 10-37 13-9-27-13-49-19-76-3-12-15-62-14-70 6-14 19-14 32-16 24-3 35-4 59-2 47 1 52-35 95-48 30-8 82-5 118-12 22-5 43-13 66-17 18-4 61-11 73-22-9-5-50-5-63-5-24-1-32 4-55 11-52 15-86 6-138 5-28 0-44 6-71 11-32 7-69 18-100 2-9-4-18-10-26-14 1 3 15 13-4 5-73-35-59-87-62-156-2-39-11-52 10-90 30-42 69-41 114-54 32-9 63-23 95-33 47-16 83-16 132-15 32 1 62 3 94 2 3 0 156-1 85-13-33-5-80-4-115-6-43-2-85-8-129-9-26 0-45 0-71 1-4 1-8 1-12 1-17 0-35 0-49 9-29 17-57 17-89 19-21 1-59 5-77-6-22-19-22-42-28-68-5-19-9-37-13-56-2-13-12-84-10-91 8-31 86-47 116-62 34-17 40-21 81-19 44 2 57 6 103-3 32-7 63-16 95-22 24-5 47-9 71-13 9-1 61-15 49-28-3-4-5-3-8-10-4-8-41 11-48 13-39 13-79 18-120 30-62 17-82 14-146 11-32-2-66-2-99-3-6 0-13-1-20-1-25-1-90-11-92-45-2-37 12-82 27-115 18-39 36-72 51-113 21-59 46-131 17-193-18-38-45-71-65-111-8-18-37-18-30 8 10 38 45 82 60 122 10 25 9 41 1 67-9 33-31 68-48 98-16 26-59 95-87 104-35 10-35-11-61 7-61 43-42-38-90-39-11-1-12-1-22-2-22-3-35 32-62 23-10-4-17-14-22-23s-11-14-16-24c-6-11-8-18-14-28l-25-48c0-1-1-2-1-3l-14-9c-6-6-6-5-8-13-3-8-3-23-3-36 0-55-4-68-8-111-2-25-27-41-24-68 0 0 2-3 2-11 0-7-1-7-2-12-15 3-12-2-14 16 0-3-2-40 2-50 6 13-4 16 10 23 10-5 8 4 7-10-1-2-5-8-5-8 9-7 6 2 10-12l-4-42c-5-16-5 6-5-19 1-41 57-4 40-52 15 9 9 6 11 24 1 16 10 35 24 44l24 10c47 6 41-2 80-18 53-18 49 47 77 55 14 4 17-36 30-43 18-9 14 93 13 101-1 44 0 88-1 132-1 35-7 83-13 118-5 29-12 61-24 87-13 26 12 23 29 4 8-9 17-19 25-29 10-11-2-7-10 0-9 8-10 8-10-5 2-18 8-46 11-64 7-45 14-85 17-130 4-41 9-83 30-119 10-17 27-42 45-51 34-17 30-76 76-56 27 13 58 52 81 50 10 0 36-6 47-8 13-2 25-4 37-6 37-5 81-13 118-21 19-4 14-5 34-5 24 0 64-6 90-9 6-1 13-2 20-3 58-7 117-14 175-21 2-34-3-45-16-76-53 3-113 6-166 17-38 8-44 11-81 6-23-3-38-2-60 0-29 2-105 11-129 2-21-7-17-12-45-5-5 2-20 9-22 3s-16 0-21 2c-52 13-98 16-150 21-38 7-33 36-52 40s-21-47-22-58c-2-28-2-56-7-85-4-24-15-99-52-55-12 14-11 30 0 20 9-9 10-4 12 9 8 44 7 83 1 127-1 10-9 71-17 75-8 3-24-21-30-27-12-12-39-35-53-42-6-2-11-5-17-8-13-8-25-16-37-24-81-47-55-24-68-88-9-39-28-61-30-78-1-8 1-18-2-25-4-12-1-3-7-10l-4-3c-6-11-15-75-17-90l-11-70c-3-11-4-11-6-17-5-15-2-43-2-61 0-21 3-38 15-49l132-54c5-3 4-3 11-7l28-17c11-4 14-1 25-6 30-13 39-17 70-2 30 15 25 18 36 47 15 43 18 36-10 6-13-14-28-29-48-28-5 1-9 2-13 3 13 9 26 12 41 24 18 15 42 38 48 61 8 35-4 109-12 146-6 38-8 73-12 111-3 36-18 42-19 48-1 5 21 1 24 1 20-1 21-2 28-22 4-13 5-27 7-40 2-11 4-20 6-31 6-22 16-38 23-59 2-7 5-12-3-13-10 3-12 2-12-11 0-21 7-60 10-82 5-42 10-72-4-114-1-5-3-10-5-15 4 4-4 18 6-14 1 8 3 30 7 36 2-4 7-20 7-24s-2-26 0-29c1-1 10-3 12-4 4 7 4 20 10 24 4 2 3-5 11 7 7 11 1 3 3 13l13 1c2 11 18 9 28 14-12-7-10-12-2-14 0 2 8 2 5-1 19-3 54 2 56 12l5 1c3 6 9 4 14 4-7-1 1-3 6-4 1 9 21 16 39 20 1-2 89-1 91 8 11 2 23 2 25-1 8 1 16 1 23 2 1 2 10 4 11 5-11-7 11-9 13-9-20 8 24 18 33 8-2-10 151 10 151 10-27 2 38 14 5 2l-5-2c-2-7-4-12 14-14l5-1h1c-1 6-1 12-2 18 5 4 10 6 16 6 3 0-4-4 1 5 5 11 11-3 6 28 0 4 11 8 14 9 10 5 36 18 31 32-12 30 1 38 24 56 39 31-19 51 19 103 16 21 20 19 21 46 3 24 7 32 27 47 35 27-16 38 0 93l1 4c7 21 16 59 16 82 0 25-6 47-4 73 1 33 3 68 5 100 3 35 21 47 14 83-7 35-6 30 2 63 5 23-3 53-3 78 1 48 32 44 19 88-9 28-21 68 4 91 19 19 59 17 65 26 11 17-59 48-71 55-18 11-34 22-53 32-21 11-41 21-60 33-25 16-50 31-75 47-46 28 89-14 90-14 30-8 108-16 130 12 3 4 4 6 6 11l11 18c4 6 7 11 9 15 27 46 53 92 81 137 2 3 12 21 14 21 6 3 4 0 4 11 2 25-8 60-12 85zm-853-199c-2 6-5 28-7 29-1 3-28 17-33 20 7-14-3-6 3-19 1-2 3-6 0-8 4 3-4 18 8 6 3-4-1-7 4-6 8 2 17-18 19-26 5-23-7-42 7-66 2 8 8 8 15 10-10 7-11 9-14 21 12-4 11 0 20 7-5 28-9 15-21 32h-1zm58-122c21 14-27 29-37 33-27 11-35 12-39 44-1 12-2 25 0 36 2 5-2 31-3 14 0-5-5 7-5 9 1 8-4 12-4 6 1-3 2-22 1-24-4 3-4 23-17 32-25 19-51-29-80-33-13-1-19-2-27-15-7-13-15-46-21-62-8-20-24-40-19-62 2-10 4-18 5-27 3-22 15-57 25-76 11-22 19 10 42 11 15 1 5-29 7-34 8 1 4-15 9-12l5 4c-6-1-2 10-2 13 7 21 17 56 45 44 7-3 7-3 15-4-3 19-13 48 1 63 11 12 15 5 3 21-4 6 23 6 26 7 19 1 53 3 70 12zm-445-342c0-10 13-1 4 0h-1c-3 0-3 8-3 0zm770-966c-7-15 4-4-10-13l12-4c6 39 9 12 9 32 0 30 5 16-54 17-1-8-2-22-1-27 13-5 28-4 44-5zm-347-86c2 3 10 4-1 7l-41 1c7-17-5-33 0-59 38-4 6 3 46 1h5c30 1 16 10 18 18 0 1 1 2 1 2 5 23 11 34-19 35 1-7 3-10 2-14l-5-11v-1c-6-12-7-1-8 3-3 23 0 14 2 18zm1216-26c16-20-7 4 16-27-3 11-1 11-1 17 0 9-2 7-5 12-9 15 1 19-17 25-1-1-1-2-2-2 0-1 0-2-1-3-5-11 0-7-11-16-2-1-3-2-5-3-4-3-6 3-8-10-1-8 4-1-1-14 25 3 7-1 12 20l23 1zm-771-73c0-11 9-14 21-14 41 0 47-4 40 34l-29 4c6 14-4 1 12 13-11 2-21 3-30 1 6-7 11-5 19-10-18-12-33 2-33-28zm-602-3c15-1 32 4 44-3 10 16-3 4 5 23 6 15 5 3 6 24 1 1 2 1 3 2 7 4 12 12 12 23 0 5-26 13-29 13 0 7 0 14 1 21-19-7-5-2-12-20-5-13-12 0-7-33-6-3-11-6-17-9 0-22-4-22-6-41zm1117-145s-2-10 7-1c3 3 4-3 2 6s-5 3-29 9c-9 2-8 5-14 7-18 7-18-11-6-16 8-4 31-3 40-5zm326-176c1-41-7-19 28-51 7 15-3 19-4 40-12 4-18 0-18 16 0 10 6 21 6 26 0 7 2 3-15 18l-20 11-5 20c-2 6-4 3-15 5l-3 18c8 10 6 3 14 13-8 10-11 10-27 11-51 1-35-4-49-9l-6-1s-1-1-2-1c0 0-5-3-7-4l-6 18c-15 0-21-1-29-8l-5-10c-3-9-5 3 0-10-32 3-5 0-27-14-9-5-15-2-15-13-1-17-3-4 14-14 3-28-6-36 17-48 50-26 55-13 76-13 14 0 17-3 28-4 21 0 29 14 41 21 13-5 11-10 29-17zm61-123c8 6 12 18 18 27 4 8 14 21 14 29 0 0-11 60-22 64-8-21-12-37-12-64s-12-34 2-56zm-92-38c0-15 3-16 19-16l1 21c-12 0-14-1-20-5zm110-22c-28-21-21-76 10-90 23 15 26 50 14 57-8-15-1-36-18-43l-2 6c-10 32 8 41-4 70zm-267-122c28-19 45-2 83-28 6 21 13 3 8 37-13 7-17 3-25 15 39-9 36 6 62-4l-14 7c-22 0-17-5-39-1-42 8-27 7-71 1v-3c19 0 25 1 39 3-19-49-20-28-43-27z"/>
 <rect class="fil1 str0" x="42" y="6" width="5230" height="6798"/>
</svg>
