<?xml version="1.0" encoding="UTF-8"?>
<svg id="Layer_1" data-name="Layer 1" xmlns="http://www.w3.org/2000/svg" viewBox="0 0 900 900">
  <defs>
    <style>
      .cls-1 {
        fill: #010101;
      }
    </style>
  </defs>
  <g>
    <g>
      <path class="cls-1" d="M551.74,124.42c.04-1.06-.48-2.33-1.46-3.72-2.94-4.16-10.07-9.42-19.11-13.7s-17.58-6.46-22.67-6.12c0,0,0,0-.02,0-1.72.12-3.03.52-3.84,1.23-.27.24-.49.53-.64.84-1.89,3.99,7.21,12.25,20.33,18.46,13.11,6.21,25.27,8.02,27.16,4.04.15-.32.23-.66.25-1.04ZM526.71,116.4c-6.11-2.9-10.47-6.51-9.73-8.08s6.3-.48,12.41,2.41c6.11,2.9,10.47,6.51,9.73,8.08s-6.3.48-12.41-2.41Z"/>
      <path class="cls-1" d="M502.2,169.86c-8.67-4.11-14.37-10.27-14.77-10.7-1.03-1.13-.95-2.88.18-3.91,1.13-1.03,2.88-.95,3.91.18h0c.14.15,14.27,15.34,30.67,12.06,1.5-.3,2.96.67,3.26,2.17s-.67,2.96-2.17,3.26c-7.9,1.58-15.18-.26-21.08-3.06Z"/>
      <g>
        <path class="cls-1" d="M534.32,129.62c-.32,2.8-.89,6.21-1.92,9.91-2.96,10.66-8.54,19.25-16.24,25.16,3.29.45,6.57.45,9.75,0,13.11-11.57,16.46-25.35,17.24-33.22-2.75-.27-5.76-.93-8.83-1.85Z"/>
        <path class="cls-1" d="M515.24,121.15c-2.31-1.37-4.52-2.84-6.51-4.37-5.49,5.29-15.12,16.6-17.68,32.67,2.08,2.98,4.67,5.68,7.69,7.98,1.63-17.24,10.99-30.08,16.51-36.28Z"/>
        <path class="cls-1" d="M506.34,114.82c-3.82-3.35-6.41-6.91-6.6-10.29-5.06,3.04-9.25,7.45-11.9,13.05-4.31,9.09-3.65,19.33.86,27.99,3.33-15.01,12.18-25.49,17.64-30.76Z"/>
        <path class="cls-1" d="M552.98,129.76c-1.7,1.24-4.04,1.8-6.76,1.85-.68,7.58-3.6,20.27-14.61,31.8,8.11-2.59,15.02-8.18,18.81-16.17,2.65-5.6,3.42-11.64,2.56-17.48Z"/>
        <path class="cls-1" d="M531.36,128.66c-2.97-1.03-5.94-2.27-8.75-3.6-1.55-.73-3.11-1.53-4.65-2.37-5.31,5.91-15.25,19.18-16.35,36.71,1.2.74,2.44,1.44,3.75,2.06,2.2,1.04,4.46,1.85,6.72,2.43,14.53-9.55,18.31-26.19,19.27-35.23Z"/>
      </g>
    </g>
    <g>
      <path class="cls-1" d="M447.84,394.78l6.3,5.18c-.02-.11-.04-.22-.05-.34-.15-1.53.31-3.03,1.28-4.21.98-1.19,2.36-1.92,3.89-2.07,1.53-.15,3.03.31,4.21,1.28s1.92,2.36,2.07,3.89c.15,1.53-.31,3.03-1.28,4.21-.98,1.19-2.36,1.92-3.89,2.07-.11.01-.22.02-.33.02l6.29,5.17c8.57-10.74,8.68-20.16,8.61-21.91l-3.6-2.96-3.67-3.02c-1.73.28-10.95,2.21-19.83,12.69Z"/>
      <path class="cls-1" d="M437.58,409.54l2.48,2.04,2.54,2.09,4.62-5.62c.25-.3.6-.49.98-.52.39-.04.77.08,1.07.32l3.96,3.25c.62.51.71,1.43.2,2.05l-4.62,5.62,5.02,4.12,7.72-9.39-13.77-11.32-2.48-2.04-7.72,9.39Z"/>
      <path class="cls-1" d="M466.58,412.55c-.03-.34-.19-.64-.45-.85l-9.97-8.2s0,0,0,0c0,0,0,0,0,0l-9.97-8.2c-.22-.18-.48-.28-.76-.29-.05,0-.11,0-.16,0-.34.03-.64.19-.85.45l-.2.24c-.21.26-.31.59-.28.92.03.34.19.64.45.85l19.94,16.4c.26.21.59.31.92.28.34-.03.64-.19.85-.45l.2-.24c.21-.26.31-.59.28-.92Z"/>
      <path class="cls-1" d="M447.88,419.89h0s-6.21-5.1-6.21-5.1h0s-6.87-5.65-6.87-5.65c-.22-.18-.48-.28-.76-.29-.05,0-.11,0-.16,0-.34.03-.64.19-.85.45l-.2.24c-.21.26-.31.59-.28.92.03.34.19.64.45.85l19.94,16.4c.26.21.59.32.92.28.34-.03.64-.19.85-.45l.2-.24c.44-.54.36-1.33-.17-1.78l-6.87-5.65Z"/>
      <path class="cls-1" d="M457.08,402.38c.89.73,2.01,1.07,3.15.96,1.14-.11,2.17-.66,2.9-1.55.73-.89,1.07-2,.96-3.15-.11-1.14-.66-2.17-1.55-2.9-.74-.61-1.65-.95-2.6-.98-.18,0-.37,0-.55.02-1.14.11-2.17.66-2.9,1.55-.73.89-1.07,2-.96,3.15.11,1.14.66,2.17,1.55,2.9ZM457.91,397.49c.86-1.05,2.42-1.2,3.47-.34.51.42.82,1.01.89,1.66.06.66-.13,1.3-.55,1.8-.42.51-1.01.82-1.66.89-.11.01-.21.01-.32.01-.54-.02-1.06-.21-1.49-.56-1.05-.86-1.2-2.42-.34-3.47Z"/>
      <path class="cls-1" d="M459.03,398.42c-.35.43-.29,1.07.14,1.42.21.17.47.25.74.22.27-.03.51-.15.68-.36.17-.21.25-.47.22-.74-.03-.27-.16-.51-.36-.68-.18-.15-.39-.22-.61-.23-.3,0-.6.12-.81.37Z"/>
      <rect class="cls-1" x="444.38" y="410.84" width="7.27" height="5.12" transform="translate(-155.84 496.94) rotate(-50.58)"/>
      <path class="cls-1" d="M479.11,386.9c-.03-.28-.16-.54-.38-.72l-9.63-7.91c-.18-.15-.41-.23-.64-.24-.04,0-.09,0-.14,0-.28.03-.54.16-.72.38l-.18.22c-.37.45-.31,1.12.15,1.49l9.63,7.91c.22.18.5.26.78.24.28-.03.54-.16.72-.38l.18-.22c.18-.22.26-.49.24-.78Z"/>
      <path class="cls-1" d="M477.23,381.69l.18-.22c.18-.22.26-.49.24-.78-.03-.28-.16-.54-.38-.72l-1.79-1.47c-.22-.18-.5-.26-.78-.24-.28.03-.54.16-.72.38l-.18.22c-.37.45-.31,1.12.15,1.49l1.79,1.47c.45.37,1.12.31,1.49-.15Z"/>
    </g>
    <g>
      <rect class="cls-1" x="387.15" y="244.37" width="31.35" height="2.82" transform="translate(-49.89 112.64) rotate(-15)"/>
      <rect class="cls-1" x="392.79" y="242.59" width="19.22" height="3.25" transform="translate(-49.5 112.48) rotate(-15)"/>
      <rect class="cls-1" x="395.59" y="241.72" width="12.79" height="1.84" transform="translate(-49.11 112.32) rotate(-15)"/>
      <rect class="cls-1" x="393.86" y="246.57" width="22.5" height="15.47" transform="translate(-52.02 113.52) rotate(-15)"/>
      <rect class="cls-1" x="394.58" y="259.74" width="25.12" height="4.3" transform="translate(-53.91 114.31) rotate(-15)"/>
      <rect class="cls-1" x="396.37" y="263.8" width="25.12" height="9.54" transform="translate(-55.58 115) rotate(-15)"/>
      <rect class="cls-1" x="393.94" y="263.27" width="27.5" height="1.38" transform="translate(-54.43 114.52) rotate(-15)"/>
      <rect class="cls-1" x="393.65" y="267.36" width="30.76" height="3.15" transform="translate(-55.67 115.04) rotate(-15)"/>
      <rect class="cls-1" x="394.1" y="272.49" width="32.6" height="3.15" transform="translate(-56.95 115.57) rotate(-15)"/>
      <g>
        <g>
          <path class="cls-1" d="M418.11,271.9c-3.33.89-5.31,4.32-4.42,7.65s4.32,5.31,7.65,4.42,5.31-4.32,4.42-7.65-4.32-5.31-7.65-4.42ZM420.86,282.18c-2.34.63-4.75-.76-5.38-3.11s.76-4.75,3.11-5.38c2.34-.63,4.75.76,5.38,3.11s-.76,4.75-3.11,5.38Z"/>
          <circle class="cls-1" cx="419.72" cy="277.93" r="1.9"/>
        </g>
        <g>
          <path class="cls-1" d="M402.65,276.04c-3.33.89-5.31,4.32-4.42,7.65s4.32,5.31,7.65,4.42,5.31-4.32,4.42-7.65-4.32-5.31-7.65-4.42ZM405.4,286.32c-2.34.63-4.75-.76-5.38-3.11s.76-4.75,3.11-5.38,4.75.76,5.38,3.11-.76,4.75-3.11,5.38Z"/>
          <circle class="cls-1" cx="404.26" cy="282.08" r="1.9"/>
        </g>
      </g>
      <rect class="cls-1" x="396.55" y="287.7" width="45.85" height="2.19" transform="translate(-60.45 118.42) rotate(-15)"/>
      <rect class="cls-1" x="395.92" y="286.31" width="36.4" height="1.49" transform="translate(-60.19 116.97) rotate(-15)"/>
      <g>
        <path class="cls-1" d="M410.85,274.85l3.15,11.74,7.51-2.01-.38-1.44s-5.28,1.01-6.31-2.84,1.03-6.8,1.03-6.8l-4.99,1.34Z"/>
        <path class="cls-1" d="M410.85,274.85l3.15,11.74-7.51,2.01-.38-1.44s5.07-1.77,4.04-5.61-4.29-5.37-4.29-5.37l4.99-1.34Z"/>
      </g>
      <path class="cls-1" d="M401.05,286.39l-2.45,4.53,8.66-2.32-.61-1.66s-3.26,1.14-5.59-.55Z"/>
      <path class="cls-1" d="M424.47,280.12l4.39,2.69-8.66,2.32-.3-1.74s3.39-.65,4.57-3.27Z"/>
      <circle class="cls-1" cx="437.7" cy="272.64" r="2.36"/>
      <circle class="cls-1" cx="438.5" cy="275.6" r="2.36"/>
      <circle class="cls-1" cx="437.52" cy="278.31" r="2.36"/>
      <rect class="cls-1" x="436.79" y="278.61" width="1.64" height="4.45" transform="translate(-57.78 122.84) rotate(-15)"/>
      <rect class="cls-1" x="432.64" y="279.72" width="1.64" height="4.45" transform="translate(-58.21 121.8) rotate(-15)"/>
      <rect class="cls-1" x="438.67" y="278.11" width="1.64" height="4.45" transform="translate(-57.58 123.31) rotate(-15)"/>
      <rect class="cls-1" x="427.43" y="280.72" width="4.59" height="4.45" transform="translate(-58.59 120.87) rotate(-15)"/>
      <path class="cls-1" d="M442.58,274.41l-2.79,1.2c-.39.17-.83-.05-.94-.46l-.5-1.85c-.11-.41.17-.82.59-.87l3.02-.36c.34-.04.66.18.75.51l.27,1.01c.09.33-.08.68-.4.82Z"/>
      <rect class="cls-1" x="424.76" y="274.54" width="13.34" height="6.01" transform="translate(-57.14 121.13) rotate(-15)"/>
      <rect class="cls-1" x="428.17" y="272.34" width="5.61" height="5.61" rx="2.8" ry="2.8" transform="translate(-22.79 510.82) rotate(-60)"/>
    </g>
    <g>
      <g>
        <path class="cls-1" d="M373.97,259.05c.31.19,1.01.74,1.74,2.02.61-1.79,2.02-5.12,4.72-7.59-.21-.95-.44-1.79-.65-2.45h0s2.05-3.62,2.05-3.62c.07-.13-.09-.27-.2-.17l-1.78,2.12.92-2.78c.05-.15-.16-.24-.24-.11l-1.36,2.63.26-2.54c0-.15-.22-.18-.26-.03l-1.12,3.96h0c-1.31,1.49-3.38,4.41-4.09,8.55Z"/>
        <path class="cls-1" d="M373.81,260.28c-.02.21-.04.43-.06.65-.26,4.23.34,7.6.91,9.72.04.68.06,1.89-.21,3.27-.4,2.12-.41,2.33-.41,2.33l1.74.05s.3-2.74.78-4.45c.1-.14.22-.29.33-.45-.29-7.55-2.2-10.27-3.08-11.13Z"/>
        <path class="cls-1" d="M376.4,262.5c.65,1.64,1.24,4.01,1.48,7.4,1.11-1.83,2.3-4.37,2.87-7.46.51-2.74.32-5.46-.07-7.72-2.96,3.02-4.13,7.18-4.29,7.77Z"/>
      </g>
      <path class="cls-1" d="M378.27,271.27c-.19.14-.43-.1-.29-.29.97-1.34,2.83-4.22,3.41-7.37.8-4.33,1.58-9.38,2.69-9.7.77-.22,1.1,3.48,1.24,5.82.01.21-.29.25-.33.05-.39-1.63-.92-3.69-.98-3.1-.11.95-.67,6.66-1.92,9.41-1.4,3.07-2.89,4.52-3.81,5.17Z"/>
      <path class="cls-1" d="M373.68,270.91c.15.19.46.02.38-.21-.56-1.58-1.5-4.83-1.17-7.98.46-4.38,1.14-9.45.16-10.07-.6-.38-1.76,2.34-2.56,4.5-.1.27.28.45.43.2.74-1.27,1.52-2.51,1.43-2.02-.17.94-1.24,6.58-.82,9.57.47,3.29,1.46,5.09,2.16,5.99Z"/>
    </g>
    <g>
      <rect class="cls-1" x="402.13" y="449.47" width="31.15" height="6.09" rx="3.04" ry="3.04" transform="translate(128.12 -90.98) rotate(14.66)"/>
      <path class="cls-1" d="M406.99,451.5h19.5c1.05,0,1.9.85,1.9,1.9h0c0,4.1-3.33,7.43-7.43,7.43h-8.43c-4.1,0-7.43-3.33-7.43-7.43h0c0-1.05.85-1.9,1.9-1.9Z" transform="translate(129.01 -90.62) rotate(14.66)"/>
      <path class="cls-1" d="M425.47,453.63l.66-2.26s.08-.28.08-.28l.02-.07c.23-.74-.02-1.59-.61-2.1-.27-.24-.53-.36-.89-.46-3.21-.89-6.43-1.76-9.65-2.62-.78-.24-1.83-.42-2.55-.79-6.05-3.29-2.33-12.05,4.29-10.05,2.7.68,6.47,1.65,9.13,2.3.31.06,1.28.36,1.59.33,1.72-.09,2.11-2.35.43-2.98-1.94-1.05-3.94-1.93-5.34-3.89-2.94-4.15.04-10.44,4.87-11.37,2.84-.62,5.72.05,8.08,1.59.91.61.48,2.05-.59,2.08-2.37.12-6.61.26-7.26,2.9-.6,2.65.42,4.39,2.77,5.75,4.01,2.75,2.3,9.1-2.55,9.44-.93.1-2-.25-2.88-.5-2.63-.73-6.42-1.74-9.09-2.47,0,0-.28-.08-.28-.08l-.14-.04c-.8-.25-1.7-.01-2.26.62-1.09,1.15-.49,3.22,1.06,3.58.06.02.34.09.42.11,3.42.88,6.84,1.76,10.27,2.6,2.21.39,4.06,1.85,4.69,4.06.26.9.29,1.87.08,2.79-.08.39-.55,2.35-.64,2.76-.68,2.49-4.31,1.55-3.68-.96h0Z"/>
      <path class="cls-1" d="M425.61,432.76c-.17-.05-4.19-1.23-5.8-4.24-.75-1.4-.86-2.95-.32-4.61,1.63-5.09,7.55-5.13,10.45-4.44l-.33,1.38c-.29-.07-7.13-1.62-8.77,3.49-.42,1.3-.34,2.44.22,3.51,1.33,2.49,4.9,3.54,4.94,3.55l-.39,1.37Z"/>
    </g>
    <g>
      <path class="cls-1" d="M473.66,272.5c-1.7-5.46-4.07-12.64-9.79-13.51-5.72-.87-10.44,3.71-12.24,10.43-1.8,6.72-5.49,11.21-5.49,11.21,0,0,4.74,5.75,15.43,6.66,10.69.91,15.73-7.63,15.73-7.63,0,0-1.94-1.69-3.65-7.15ZM455.16,276.07c-.58-.06-1-.57-.94-1.14s.57-1,1.14-.94,1,.57.94,1.14-.57,1-1.14.94ZM455.76,273.19c-.47-.05-.82-.47-.77-.94l.31-3.22c.05-.47.47-.82.94-.77s.82.47.77.94l.14-1.49c.08-.34.33-.81,1.13-.81,1.25,0,1.42-.72,1.87-1.76s1.26-.69,2.04.2,2.29,1.11,3,.17c.71-.94,2-.19,2.41.76.41.95.55,2.45.55,2.45l-.15,1.55c.05-.47.47-.82.94-.77s.82.47.77.94l-.31,3.22c-.05.47-.47.82-.94.77s-.82-.47-.77-.94l-.02.19c-.29,3.04-2.99,5.26-6.03,4.97h0c-3.04-.29-5.26-2.99-4.97-6.03l.02-.19c-.05.47-.47.82-.94.77ZM458.7,278.49s3.46,2.79,6.93.29c0,0,.15,1.56.83,3.07-3.65,1.67-7.08.69-8.52.12.36-.85.66-1.98.76-3.48ZM456.23,284.21s.6-.33,1.21-1.29c.74.31,1.99.73,3.56.88,1.71.17,3.8,0,5.98-1.02.37.56.83,1.05,1.41,1.39,0,0-6.35,2.99-12.16.04ZM468.63,277.37c-.58-.06-1-.57-.94-1.14s.57-1,1.14-.94,1,.57.94,1.14-.57,1-1.14.94Z"/>
      <path class="cls-1" d="M463.46,257.85c.19.02.38.04.57.07,1.24.19,2.33.63,3.3,1.26.18-.41.31-.85.35-1.32.23-2.33-1.48-4.4-3.81-4.63s-4.4,1.48-4.63,3.81c-.04.44-.01.88.07,1.29,1.33-.45,2.72-.62,4.15-.48Z"/>
    </g>
    <g>
      <path class="cls-1" d="M525.34,292.89s-23.2,17.78-31.25,48.85c-8.05,31.07-4.49,66.93-4.49,66.93l8.67-.65s-4.37-33.11,4.48-66.65c6.43-24.36,22.6-48.49,22.6-48.49Z"/>
      <rect class="cls-1" x="480.37" y="388.57" width="24.54" height="6.19" rx="3.09" ry="3.09" transform="translate(-22.84 30.59) rotate(-3.48)"/>
      <rect class="cls-1" x="483.52" y="407.66" width="20.55" height="6.19" rx="3.09" ry="3.09" transform="translate(-24 30.7) rotate(-3.48)"/>
    </g>
    <g>
      <path class="cls-1" d="M431.16,393.12h0c.16-4.26-1.29-8.7-4.39-12.33-4.66-.58-9,2.58-9.84,7.25-.13.73-.17,1.47-.12,2.18-.66-1.53-.89-3.27-.57-5.03.69-3.88,3.8-6.72,7.5-7.23-6.22-4.65-14.66-4.84-20.38.04-2.12,1.81-3.61,4.1-4.46,6.62l2.79,3.44c1.41-.78,3.09-1.1,4.8-.8,3.95.7,6.59,4.48,5.88,8.44-.24,1.33-.83,2.52-1.66,3.48l2.05,2.52c.61-.81,1.37-1.62,2.25-2.37,1.72-1.46,3.56-2.43,5.1-2.8,1.36-.31,2.49-.16,3.09.55h0s.08.13.19.28c0,0,0,0,0,.01.2.26.53.65,1.02,1.02.93.71,2.42,1.35,4.51.82-.12.11-2.67,2.29-5.46.38-.46,1.6-1.81,3.55-3.78,5.23-.94.8-1.91,1.45-2.84,1.93l.89,1.1c2.93-.33,5.75-1.48,8.11-3.49,2.31-1.98,3.88-4.52,4.68-7.31.37-1.26.58-2.57.63-3.91ZM426.88,389.81c.83.15,1.39.94,1.24,1.78s-.94,1.39-1.78,1.24-1.39-.94-1.24-1.78.94-1.39,1.78-1.24Z"/>
      <line class="cls-1" x1="412.77" y1="401.69" x2="410.72" y2="399.17"/>
      <line class="cls-1" x1="417.75" y1="407.83" x2="416.86" y2="406.74"/>
      <path class="cls-1" d="M423.41,397.35c-.11-.15-.17-.25-.19-.28.07.09.14.18.19.28Z"/>
      <path class="cls-1" d="M431.16,393.12h0c.16-4.26-1.29-8.7-4.39-12.33-4.66-.58-9,2.58-9.84,7.25-.13.73-.17,1.47-.12,2.18.17,2.5,1.4,4.77,3.3,6.3,1.36-.31,2.49-.16,3.09.55h0s.08.13.19.28c0,0,0,0,0,.01.2.26.53.65,1.02,1.02,2.21.32,4.36-.21,6.1-1.36.37-1.26.58-2.57.63-3.91ZM426.88,389.81c.83.15,1.39.94,1.24,1.78s-.94,1.39-1.78,1.24-1.39-.94-1.24-1.78.94-1.39,1.78-1.24Z"/>
      <path class="cls-1" d="M426.78,380.79c-4.66-.58-9,2.58-9.84,7.25-.13.73-.17,1.47-.12,2.18,1.14,2.66,3.55,4.72,6.61,5.26s5.75-.45,7.73-2.36h0c.16-4.26-1.29-8.7-4.39-12.33ZM426.34,392.83c-.83-.15-1.39-.94-1.24-1.78s.94-1.39,1.78-1.24,1.39.94,1.24,1.78-.94,1.39-1.78,1.24Z"/>
    </g>
    <g>
      <rect class="cls-1" x="465.94" y="426.4" width="15.21" height="9.23" transform="translate(63.49 -60.79) rotate(7.87)"/>
      <rect class="cls-1" x="473.21" y="418.75" width="1.92" height="15.39" transform="translate(62.87 -60.92) rotate(7.87)"/>
      <rect class="cls-1" x="469.89" y="417.63" width="10.67" height="2.37" transform="translate(61.83 -61.13) rotate(7.87)"/>
      <rect class="cls-1" x="469.28" y="422.03" width="10.67" height="2.37" transform="translate(62.43 -61.01) rotate(7.87)"/>
      <g>
        <rect class="cls-1" x="469.49" y="448.48" width="2.37" height="6.52" transform="translate(-41.27 856.12) rotate(-82.13)"/>
        <rect class="cls-1" x="469.12" y="452.87" width="1.9" height="6.52" transform="translate(-46.14 859.3) rotate(-82.13)"/>
        <path class="cls-1" d="M491.42,457.9c1.04-8.72-2.02-16.84-7.49-21.87-2.65-2.44-5.86-4.15-9.44-4.85-.46-.09-.93-.16-1.4-.22-.17-.02-.34-.04-.5-.05-3.65-.34-7.19.4-10.39,1.99-6.92,3.43-12.19,10.85-13.28,19.94-.05.44-.09.88-.13,1.32l15.13,2.09.26-1.88-2.29-.32c-.63-.09-1.07-.67-.98-1.29s.67-1.07,1.29-.98l2.29.32.32-2.35-2.29-.32c-.63-.09-1.07-.67-.98-1.29s.67-1.07,1.29-.98l2.29.32.52-3.76c.1-.69.73-1.18,1.43-1.08l.27.04c.69.1,1.18.73,1.08,1.43l-.52,3.76,6.46.89.52-3.76c.1-.69.73-1.18,1.43-1.08l.27.04c.69.1,1.18.73,1.08,1.43l-.52,3.76,2.29.32c.63.09,1.07.67.98,1.29s-.67,1.07-1.29.98l-2.29-.32-.32,2.35,2.29.32c.63.09,1.07.67.98,1.29s-.67,1.07-1.29.98l-2.29-.32-.26,1.88,15.14,2.09c.14-.68.25-1.38.33-2.09Z"/>
      </g>
    </g>
    <g>
      <path class="cls-1" d="M510.99,469.69s-4.6-3.87-7.7-7.86c-2.06,3.6-5.56,7.95-5.56,7.95,0,0,2.81,1.45,6.22-.95,0,0,3.39,2.31,7.04.86Z"/>
      <path class="cls-1" d="M508.77,440.08c-2.5-12.38-12.85-17.17-12.85-17.17l-.55,2.7-2.99-1.31s-1.59,15.48,3.62,26.03c2.25,4.54,4.95,8.49,7.3,11.51,3.2-5.6,7-14.22,5.48-21.76ZM497.12,428.83c-.07-.72.46-1.36,1.18-1.43s1.36.46,1.43,1.18-.46,1.36-1.18,1.43-1.36-.46-1.43-1.18ZM496.89,435.78l2.16-.47s1.34,5.61,4.54,7.93l-2.58.83c-.68-.87-1.65-2.09-1.65-2.09l.07,2.6-2.44.78s-2-6.12-.09-9.59Z"/>
    </g>
    <g>
      <path class="cls-1" d="M442.86,433.53l-2.44,11.72s-2.11-1.85-1.19-4.96c.91-3.11,3.07-5.22,3.63-6.77Z"/>
      <path class="cls-1" d="M442.86,433.53l-2.44,11.72s2.67-.86,3.07-4.07c.4-3.21-.74-6.01-.63-7.65Z"/>
      <path class="cls-1" d="M440.45,445.16c-4.36,1.32-7.46-2.61-7.46-2.61-.67,8.14,5.88,9.52,6.02,9.55.14.03,6.69,1.38,9.32-6.36,0,0-4.41,2.37-7.88-.58Z"/>
    </g>
    <g>
      <rect class="cls-1" x="447.79" y="481.54" width="27.54" height="8.74" rx="4.37" ry="4.37" transform="translate(14.32 -13.21) rotate(1.67)"/>
      <g>
        <path class="cls-1" d="M472.54,466.47c-1.21-.39-.92,1.09-3.17,3.79-2.19,2.63-5.68,3-7.42,3.01l-.18,6.2c3.94.01,8.91-.51,10.75-2.99,3.22-4.36,1.23-9.62.02-10.01Z"/>
        <path class="cls-1" d="M451.75,465.86c1.23-.32.86,1.15,2.94,3.97,2.03,2.75,5.49,3.32,7.23,3.43l-.18,6.2c-3.94-.22-8.87-1.02-10.55-3.61-2.96-4.54-.67-9.68.56-10Z"/>
      </g>
      <ellipse class="cls-1" cx="462.11" cy="466.83" rx="4.23" ry="6.62" transform="translate(-17.95 915.18) rotate(-88.33)"/>
      <rect class="cls-1" x="454.07" y="489.51" width="14.3" height="16.38" transform="translate(14.66 -13.2) rotate(1.67)"/>
      <rect class="cls-1" x="450.46" y="494.79" width="21.51" height="7.69" rx="3.85" ry="3.85" transform="translate(14.69 -13.2) rotate(1.67)"/>
      <g>
        <g>
          <ellipse class="cls-1" cx="488.67" cy="551.91" rx="6.1" ry="4.48" transform="translate(-193.31 272.06) rotate(-26.17)"/>
          <ellipse class="cls-1" cx="485.11" cy="546.78" rx="5.86" ry="3.33" transform="translate(-227.98 386.15) rotate(-35.73)"/>
        </g>
        <g>
          <ellipse class="cls-1" cx="430.66" cy="550.23" rx="4.48" ry="6.1" transform="translate(-260.3 654.13) rotate(-60.5)"/>
          <ellipse class="cls-1" cx="434.51" cy="545.3" rx="3.33" ry="5.86" transform="translate(-262.71 539.12) rotate(-50.94)"/>
        </g>
      </g>
      <g>
        <g>
          <path class="cls-1" d="M460.47,523.28l-.07,2.27c2.19.06,4.03-1.67,4.1-3.86s-1.67-4.03-3.86-4.1l-.07,2.27c.94.03,1.69.81,1.66,1.76s-.81,1.69-1.76,1.66Z"/>
          <path class="cls-1" d="M460.82,511.45l-.07,2.54c4.29-.03,12.93-.49,20.02-3.42,5.38-2.22,8.32-4.73,9.86-6.49-.68-.73-1.4-1.38-2.16-1.95-1.91,1.8-4.88,3.9-9.45,5.78-6.23,2.57-13.4,3.34-18.21,3.54Z"/>
          <path class="cls-1" d="M473.44,540.35c.22-.35.43-.76.65-1.2.88-1.73,2.08-4.1,5.21-4.2,2.27-.07,3.29.99,3.7,1.63.04.06.08.12.11.19,2.36-2.84,6.66-6.93,12.46-8.03.56-1.69.95-3.4,1.15-5.1-1.21,1.75-2.64,2.9-4.29,3.41-2.62.82-5.06-.16-6.49-.98-1.05,2.37-3.92,6.88-10.86,7.99-1.43.23-2.71.31-3.86.27-5.79-.17-8.32-3.18-9.2-4.61-.63.03-1.21.05-1.73.06l-.27,9.37c1.12.04,2.65.02,4.01-.23,1.21-.45,3.34-.7,4.2,1.07.51,1.04.14,2.2-.4,3.13,1.72-.03,4.18-.52,5.62-2.78Z"/>
          <path class="cls-1" d="M483.62,513.78c-2.19-.06-4.03,1.67-4.1,3.86s1.67,4.03,3.86,4.1,4.03-1.67,4.1-3.86-1.67-4.03-3.86-4.1ZM483.46,519.47c-.94-.03-1.69-.81-1.66-1.76s.81-1.69,1.76-1.66,1.69.81,1.66,1.76-.81,1.69-1.76,1.66Z"/>
          <path class="cls-1" d="M477.28,517.58c.04-1.5.62-2.86,1.54-3.91-5.4,1.73-11.11,2.33-15.2,2.51,1.92,1.11,3.19,3.21,3.12,5.58-.08,2.64-1.8,4.85-4.15,5.68,5.62-.28,14.41-1.09,20.71-3.45-3.42-.11-6.13-2.98-6.03-6.4Z"/>
          <path class="cls-1" d="M478.17,505.84c3.99-1.65,6.64-3.45,8.37-4.99-7.55-4.27-17.64-2.62-25.35-2.22l-.31,10.56c4.64-.21,11.48-.95,17.29-3.35Z"/>
          <path class="cls-1" d="M491.78,524.91c2-.63,3.68-2.79,4.92-6.26-2.03,1.72-4.97,3.82-8.98,5.82,1.08.5,2.56.91,4.05.44Z"/>
          <path class="cls-1" d="M482.96,540.77c-.31.52-.98.7-1.5.4-.53-.29-.73-.95-.46-1.49.35-.7.4-1.45.11-1.9-.33-.52-1.13-.61-1.74-.59-1.68.05-2.36,1.16-3.28,2.97-.24.47-.48.95-.76,1.39-2.17,3.42-5.9,3.88-8.11,3.81-1-.03-1.69-.17-1.77-.18-.4-.08-.73-.38-.85-.78-.12-.39-.01-.82.28-1.11.87-.88,1.46-2.02,1.32-2.31-.12-.25-.96-.13-1.46.07-.06.02-.13.05-.2.06-1.58.31-3.33.34-4.6.29l-.29,10.02s18,.88,29.89-12.43c2.18-2.44,3.85-5.03,5.04-7.68-7.13,2.16-11.57,9.38-11.62,9.47Z"/>
          <path class="cls-1" d="M474.73,531.84c4.83-.77,7.32-3.45,8.53-5.45-5.79,2-13.1,2.84-18.53,3.19,1.35,1.4,4.27,3.18,10,2.27Z"/>
          <path class="cls-1" d="M484.03,511.56c3.27.27,5.8,3.06,5.7,6.38-.04,1.36-.52,2.61-1.3,3.61,3.78-2.09,6.41-4.2,8.03-5.72-.7-3.64-2.2-7.06-4.39-10-1.52,1.67-4.02,3.76-8.05,5.72Z"/>
        </g>
        <g>
          <path class="cls-1" d="M460.47,523.28l-.07,2.27c-2.19-.06-3.93-1.9-3.86-4.1s1.9-3.93,4.1-3.86l-.07,2.27c-.94-.03-1.73.72-1.76,1.66s.72,1.73,1.66,1.76Z"/>
          <path class="cls-1" d="M460.82,511.45l-.07,2.54c-4.28-.28-12.88-1.24-19.79-4.58-5.24-2.53-8.03-5.2-9.47-7.05.72-.69,1.48-1.3,2.27-1.83,1.8,1.91,4.65,4.18,9.1,6.32,6.07,2.93,13.18,4.11,17.97,4.59Z"/>
          <path class="cls-1" d="M446.53,539.57c-.2-.36-.39-.79-.58-1.24-.78-1.78-1.84-4.21-4.96-4.49-2.26-.2-3.34.8-3.79,1.41-.04.06-.08.12-.12.18-2.19-2.97-6.24-7.3-11.98-8.74-.46-1.72-.75-3.45-.85-5.16,1.1,1.82,2.47,3.05,4.09,3.66,2.57.97,5.06.13,6.54-.6.91,2.43,3.52,7.1,10.38,8.61,1.41.31,2.69.46,3.84.5,5.79.17,8.49-2.69,9.46-4.07.62.06,1.2.12,1.73.16l-.27,9.37c-1.12-.03-2.65-.13-3.99-.46-1.18-.52-3.29-.9-4.26.83-.57,1.01-.26,2.19.22,3.15-1.71-.13-4.14-.76-5.45-3.1Z"/>
          <path class="cls-1" d="M437.91,512.45c2.19.06,3.93,1.9,3.86,4.1s-1.9,3.93-4.1,3.86-3.93-1.9-3.86-4.1,1.9-3.93,4.1-3.86ZM437.75,518.14c.94.03,1.73-.72,1.76-1.66s-.72-1.73-1.66-1.76-1.73.72-1.76,1.66.72,1.73,1.66,1.76Z"/>
          <path class="cls-1" d="M444.02,516.61c.04-1.5-.45-2.89-1.31-3.99,5.29,2.04,10.95,2.97,15.02,3.39-1.98.99-3.37,3.02-3.44,5.39-.08,2.64,1.51,4.94,3.81,5.91-5.59-.6-14.32-1.92-20.48-4.65,3.42.09,6.29-2.62,6.39-6.04Z"/>
          <path class="cls-1" d="M443.82,504.84c-3.89-1.87-6.42-3.83-8.06-5.47,7.78-3.82,17.76-1.59,25.43-.74l-.31,10.56c-4.62-.48-11.41-1.62-17.06-4.35Z"/>
          <path class="cls-1" d="M429.13,523.08c-1.96-.75-3.51-3-4.55-6.54,1.93,1.83,4.74,4.1,8.62,6.34-1.1.44-2.61.76-4.07.2Z"/>
          <path class="cls-1" d="M437.01,539.43c.28.53.93.75,1.48.49.54-.26.79-.9.55-1.46-.31-.72-.31-1.47,0-1.9.36-.5,1.16-.54,1.77-.49,1.67.15,2.29,1.29,3.1,3.16.21.48.43.98.68,1.43,1.97,3.54,5.67,4.21,7.87,4.28,1,.03,1.69-.07,1.78-.08.41-.06.75-.34.89-.73.14-.39.06-.82-.21-1.13-.81-.93-1.34-2.11-1.18-2.39.14-.24.96-.08,1.45.15.06.03.13.05.2.07,1.56.41,3.31.53,4.58.56l-.29,10.02s-18.02-.16-29.11-14.15c-2.03-2.57-3.55-5.25-4.58-7.96,7,2.57,11,10.04,11.05,10.13Z"/>
          <path class="cls-1" d="M445.74,531c-4.78-1.05-7.1-3.87-8.2-5.94,5.66,2.33,12.92,3.59,18.31,4.26-1.43,1.32-4.44,2.93-10.11,1.68Z"/>
          <path class="cls-1" d="M437.64,510.22c-3.28.08-5.97,2.72-6.06,6.04-.04,1.36.37,2.64,1.09,3.68-3.66-2.31-6.15-4.57-7.69-6.18.91-3.6,2.61-6.92,4.96-9.72,1.42,1.76,3.8,3.99,7.7,6.18Z"/>
        </g>
      </g>
      <g>
        <g>
          <path class="cls-1" d="M476.4,550.47c-.33-1.1-1.49-1.73-2.59-1.4-5.04,1.5-9.9,1.94-14.14,1.86l-.12,4.19c4.6.08,9.9-.41,15.45-2.06,1.1-.33,1.73-1.49,1.4-2.59Z"/>
          <path class="cls-1" d="M480.25,553.27c-.4-1.08-1.61-1.62-2.68-1.22-6.43,2.42-12.63,3.15-18.02,3.06l-.12,4.21c5.83.09,12.56-.72,19.61-3.37,1.08-.4,1.62-1.61,1.22-2.68Z"/>
        </g>
        <g>
          <path class="cls-1" d="M442.99,549.5c.39-1.08,1.59-1.64,2.67-1.25,4.95,1.79,9.77,2.51,14.01,2.68l-.12,4.19c-4.6-.19-9.86-.98-15.31-2.96-1.08-.39-1.64-1.59-1.25-2.67Z"/>
          <path class="cls-1" d="M438.99,552.07c.47-1.05,1.7-1.53,2.75-1.06,6.28,2.79,12.42,3.88,17.81,4.1l-.12,4.21c-5.83-.25-12.49-1.45-19.38-4.5-1.05-.47-1.53-1.7-1.06-2.75Z"/>
        </g>
      </g>
      <g>
        <g>
          <path class="cls-1" d="M492.48,500.66c-3.88-.11-6.45-1.77-8.94-3.37-1.91-1.23-3.88-2.49-6.54-3.14-5.93-1.45-10.36.49-10.41.51l-.93-2.04c.21-.09,5.15-2.28,11.86-.65,3.03.74,5.16,2.11,7.22,3.43,2.43,1.56,4.54,2.92,7.79,3.01.03,0,.06,0,.09,0l-.05,2.24s-.07,0-.11,0Z"/>
          <path class="cls-1" d="M490.64,495.56c-2.46-.07-4.46-1.35-7.08-3.03-.73-.47-1.48-.95-2.33-1.46-4.76-2.89-9.38-2.38-9.42-2.37l-.27-2.23c.22-.03,5.41-.63,10.86,2.68.87.53,1.67,1.04,2.37,1.49,3.49,2.24,5.24,3.36,8.49,2.22l.74,2.12c-1.25.44-2.34.61-3.36.58Z"/>
          <path class="cls-1" d="M464.9,484.04l-.06-2.24c11.37-.28,13.99-6.82,14.1-7.1l2.1.78c-.12.34-3.17,8.24-16.15,8.56Z"/>
          <path class="cls-1" d="M477.41,465.77s5.34-2.81,9.29,1.77c0,0-1.29,8.06-6.31,9.02l-2.01-.77s-.6-1.41-.23-4.28-.74-5.74-.74-5.74Z"/>
          <path class="cls-1" d="M503.83,494.52s1.99-5.69-3.12-8.93c0,0-7.79,2.46-8,7.57l1.06,1.87s1.48.39,4.27-.4,5.79-.11,5.79-.11Z"/>
          <path class="cls-1" d="M472.74,486.89c-1.62-.05-3.35-.56-5.13-1.75l1.25-1.86c6.45,4.32,12.99-4.99,13.2-5.31l-.97,4.94c-2.02,2.31-3.91,4.11-8.35,3.98Z"/>
          <ellipse class="cls-1" cx="499.38" cy="501.88" rx="5.98" ry="5.37" transform="translate(-16.8 986.46) rotate(-88.33)"/>
          <path class="cls-1" d="M500.25,508.81s2.25-1.26,3.3,1.86c.88,2.63-.09,8.18-3.19,11.45-.46.48-1.25,0-1.03-.64.7-2.01,1.37-5.11.39-7.98-1.23-3.59.53-4.7.53-4.7Z"/>
          <path class="cls-1" d="M489.89,490.59c-.51-.01-1.03-.18-1.47-.51-.42-.32-4.13-3.22-4.55-7.76-.59-6.46,4.05-10.82,4.25-11,1.04-.96,2.66-.89,3.62.15.96,1.04.89,2.65-.14,3.61-.07.07-2.98,2.9-2.63,6.77.18,1.93,1.89,3.64,2.53,4.14,1.13.85,1.36,2.45.51,3.59-.52.69-1.32,1.05-2.13,1.02Z"/>
          <ellipse class="cls-1" cx="493.8" cy="480.4" rx="4.22" ry="2.97" transform="translate(-.75 960.03) rotate(-88.33)"/>
        </g>
        <g>
          <path class="cls-1" d="M429.84,498.84s-.07,0-.1,0l.08-2.24c3.32.12,5.5-1.12,8.04-2.55,2.14-1.2,4.35-2.45,7.41-3.01,6.8-1.25,11.6,1.23,11.81,1.34l-1.04,1.99s-4.36-2.21-10.36-1.12c-2.69.49-4.74,1.64-6.71,2.76-2.58,1.45-5.24,2.95-9.12,2.84Z"/>
          <path class="cls-1" d="M431.97,493.86c-1.01-.03-2.1-.27-3.32-.78l.86-2.07c3.18,1.32,4.99.31,8.6-1.72.73-.41,1.56-.87,2.46-1.35,5.64-2.99,10.78-2.09,11-2.05l-.41,2.21.2-1.1-.2,1.1s-4.63-.78-9.55,1.82c-.88.46-1.65.9-2.41,1.32-2.72,1.53-4.79,2.69-7.25,2.62Z"/>
          <path class="cls-1" d="M458.33,483.85c-12.93-1.07-15.52-9.14-15.62-9.49l2.15-.66c.09.28,2.33,6.96,13.66,7.91l-.19,2.24Z"/>
          <path class="cls-1" d="M446.91,464.88s-5.16-3.11-9.38,1.23c0,0,.82,8.12,5.77,9.37l2.05-.65s.68-1.37.48-4.26c-.2-2.89,1.07-5.69,1.07-5.69Z"/>
          <path class="cls-1" d="M418.86,492.05s-1.66-5.8,3.63-8.73c0,0,7.63,2.91,7.54,8.02l-1.16,1.81s-1.5.3-4.24-.65-5.77-.45-5.77-.45Z"/>
          <path class="cls-1" d="M450.34,486.24c1.62.05,3.38-.36,5.22-1.45l-1.14-1.93c-6.69,3.94-12.68-5.74-12.87-6.06l.68,4.99c1.88,2.42,3.67,4.33,8.1,4.46Z"/>
          <ellipse class="cls-1" cx="422.87" cy="499.66" rx="5.98" ry="5.37" transform="translate(-88.86 907.83) rotate(-88.33)"/>
          <path class="cls-1" d="M421.61,506.52s-2.17-1.38-3.4,1.67c-1.04,2.57-.39,8.17,2.52,11.62.43.51,1.25.07,1.07-.57-.58-2.05-1.07-5.18.07-7.99,1.44-3.51-.26-4.72-.26-4.72Z"/>
          <path class="cls-1" d="M433.01,488.94c-.8-.02-1.59-.42-2.07-1.15-.78-1.18-.46-2.77.72-3.55.66-.45,2.46-2.06,2.75-3.97.58-3.87-2.19-6.87-2.22-6.9-.98-1.02-.96-2.64.06-3.63,1.02-.98,2.64-.96,3.63.06.19.19,4.57,4.81,3.6,11.23-.68,4.51-4.55,7.19-4.99,7.48-.46.3-.98.44-1.49.43Z"/>
          <ellipse class="cls-1" cx="429.69" cy="478.53" rx="4.22" ry="2.97" transform="translate(-61.13 894.13) rotate(-88.33)"/>
        </g>
      </g>
      <g>
        <path class="cls-1" d="M492.97,469.41l-3.6-.1c-.82-.02-1.39-.81-1.17-1.6l.65-2.27c.16-.55.67-.92,1.24-.91l3.6.1c.82.02,1.39.81,1.17,1.6l-.65,2.27c-.16.55-.67.92-1.24.91Z"/>
        <path class="cls-1" d="M431.16,467.61l3.6.1c.82.02,1.44-.73,1.26-1.53l-.52-2.31c-.13-.56-.61-.96-1.19-.98l-3.6-.1c-.82-.02-1.44.73-1.26,1.53l.52,2.31c.13.56.61.96,1.19.98Z"/>
      </g>
    </g>
    <g>
      <circle class="cls-1" cx="380.47" cy="177.22" r="9.49"/>
      <g>
        <g id="_Radial_Repeat_" data-name="&amp;lt;Radial Repeat&amp;gt;">
          <polygon class="cls-1" points="375.93 166.34 372.75 161.19 377.21 159.58 377.65 165.84 375.93 166.34"/>
        </g>
        <g id="_Radial_Repeat_-2" data-name="&amp;lt;Radial Repeat&amp;gt;">
          <polygon class="cls-1" points="384.95 166.31 386.34 160.42 390.63 162.44 386.52 167.18 384.95 166.31"/>
        </g>
        <g id="_Radial_Repeat_-3" data-name="&amp;lt;Radial Repeat&amp;gt;">
          <polygon class="cls-1" points="391.35 172.68 396.5 169.5 398.1 173.96 391.84 174.4 391.35 172.68"/>
        </g>
        <g id="_Radial_Repeat_-4" data-name="&amp;lt;Radial Repeat&amp;gt;">
          <polygon class="cls-1" points="391.38 181.71 397.27 183.1 395.25 187.38 390.51 183.27 391.38 181.71"/>
        </g>
        <g id="_Radial_Repeat_-5" data-name="&amp;lt;Radial Repeat&amp;gt;">
          <polygon class="cls-1" points="385.01 188.1 388.19 193.25 383.73 194.86 383.29 188.59 385.01 188.1"/>
        </g>
        <g id="_Radial_Repeat_-6" data-name="&amp;lt;Radial Repeat&amp;gt;">
          <polygon class="cls-1" points="375.99 188.13 374.6 194.02 370.31 192 374.42 187.26 375.99 188.13"/>
        </g>
        <g id="_Radial_Repeat_-7" data-name="&amp;lt;Radial Repeat&amp;gt;">
          <polygon class="cls-1" points="369.59 181.76 364.44 184.94 362.83 180.48 369.09 180.04 369.59 181.76"/>
        </g>
        <g id="_Radial_Repeat_-8" data-name="&amp;lt;Radial Repeat&amp;gt;">
          <polygon class="cls-1" points="369.56 172.73 363.67 171.35 365.69 167.06 370.43 171.17 369.56 172.73"/>
        </g>
      </g>
    </g>
    <path class="cls-1" d="M405.69,126.06s1.49,6.92,10.68,11.99,13.93,14.22,11.5,22.15-10.12,6.04-10.12,6.04c0,0-.21,5.8-1.67,9.69l-2.05-.3s2.41-3.89,2.39-11.5c-.01-7.61-5.66-23.78-5.66-23.78,0,0,5.62,19.98,4.06,25.54,0,0-3.37,3.53-8.72.84-5.35-2.69-8.4-8.54-4.97-17.48,2.3-6,4.99-9.03,5.41-12.66.58-5.03-.85-10.52-.85-10.52Z"/>
    <path class="cls-1" d="M358.15,225.06c-2.24-.07-4.01-.77-5.25-1.5-2.66-1.55-4.59-4.15-5.3-7.12-.79-3.3-.4-8.66,2.32-12.63,2.04-2.98,5.14-4.83,8.95-5.35,8.62-1.16,13.04,3.71,14.18,6.46.38.91-.05,1.95-.96,2.32-.9.37-1.94-.05-2.32-.95-.11-.25-2.47-5.38-10.42-4.3-2.82.38-5.01,1.67-6.49,3.83-2.25,3.28-2.31,7.65-1.8,9.79.48,2,1.84,3.82,3.64,4.87,1.85,1.08,4.05,1.3,6.35.64,2.76-.79,4.88-2.51,5.8-4.71.74-1.77.63-3.7-.32-5.44-.69-1.26-1.59-2-2.75-2.26-1.8-.4-3.74.47-4.39.95-1.21.89-2.17,2.96-1.59,4.1.21.4.73.54,1.15.5.23-.02.79-.14.95-.69.27-.94,1.25-1.49,2.2-1.22.94.27,1.49,1.25,1.22,2.2-.52,1.81-2.06,3.06-4.02,3.25-1.98.2-3.81-.75-4.66-2.41-1.62-3.14.49-7.01,2.63-8.59,1.59-1.18,4.55-2.17,7.27-1.56,2.16.48,3.93,1.88,5.1,4.04,1.47,2.71,1.64,5.73.47,8.52-1.34,3.2-4.29,5.66-8.1,6.75-1.41.41-2.71.55-3.88.51Z"/>
    <g>
      <path class="cls-1" d="M495.58,237.38c-5.11-.15-9.15-4.43-9-9.54s4.43-9.15,9.54-9,9.15,4.43,9,9.54-4.43,9.15-9.54,9ZM496.04,221.33c-3.74-.11-6.87,2.84-6.97,6.58s2.84,6.87,6.58,6.97,6.87-2.84,6.97-6.58c.11-3.74-2.84-6.87-6.58-6.97Z"/>
      <rect class="cls-1" x="497.54" y="235.86" width="5.9" height="2.28" rx="1.14" ry="1.14" transform="translate(-53.25 242.3) rotate(-25.89)"/>
      <rect class="cls-1" x="504.08" y="248.03" width="4.63" height="2.28" rx="1.14" ry="1.14" transform="translate(-57.97 246.1) rotate(-25.89)"/>
      <rect class="cls-1" x="502.08" y="236.99" width="3.08" height="12.23" transform="translate(-55.6 244.28) rotate(-25.89)"/>
    </g>
    <g>
      <path class="cls-1" d="M447.99,220.4l-1.99,19.24c-.11,1.03.64,1.96,1.68,2.07l8.9.92c1.03.11,1.96-.64,2.07-1.68l.97-9.4c.11-1.03,1.03-1.79,2.07-1.68l4.91.51c1.03.11,1.79,1.03,1.68,2.07l-.97,9.4c-.11,1.03.64,1.96,1.68,2.07l10.09,1.04c1.03.11,1.96-.64,2.07-1.68l1.99-19.24c.11-1.03-.64-1.96-1.68-2.07l-31.38-3.25c-1.03-.11-1.96.64-2.07,1.68Z"/>
      <path class="cls-1" d="M476.32,194.72l-15.84-1.64c-.81-.08-1.59.37-1.92,1.12l-8.47,19.31c-.51,1.17.26,2.5,1.53,2.63l28.65,2.96c1.27.13,2.3-1.01,2.04-2.26l-4.34-20.63c-.17-.8-.83-1.4-1.65-1.48ZM466.86,214.67c-1.62.22-2.87-1.32-2.32-2.86.26-.72.93-1.27,1.69-1.37,1.62-.22,2.87,1.32,2.32,2.86-.26.73-.93,1.27-1.69,1.37ZM467.57,207.88c-1.62.22-2.87-1.32-2.32-2.86.26-.72.93-1.27,1.69-1.37,1.62-.22,2.87,1.32,2.32,2.86-.26.73-.93,1.27-1.69,1.37ZM468.27,201.09c-1.62.22-2.87-1.32-2.32-2.86.26-.73.93-1.27,1.69-1.37,1.62-.22,2.87,1.32,2.32,2.86-.26.72-.93,1.27-1.69,1.37Z"/>
      <g>
        <rect class="cls-1" x="459.63" y="187.29" width="18.44" height="3.9" transform="translate(21.96 -47.24) rotate(5.91)"/>
        <path class="cls-1" d="M462.34,178.95h0c1.26,0,2.29,1.02,2.29,2.29v6.97c0,1.26-1.02,2.29-2.29,2.29h0c-1.26,0-2.29-1.02-2.29-2.29v-6.97c0-1.26,1.02-2.29,2.29-2.29Z" transform="translate(21.46 -46.59) rotate(5.91)"/>
        <rect class="cls-1" x="473.85" y="180.37" width="4.57" height="11.54" rx="2.29" ry="2.29" transform="translate(21.68 -48.01) rotate(5.91)"/>
      </g>
    </g>
    <g>
      <g>
        <rect class="cls-1" x="364.19" y="318.19" width="3.16" height="12.86" rx="1.58" ry="1.58" transform="translate(9.59 -10.49) rotate(1.67)"/>
        <rect class="cls-1" x="367.36" y="318.28" width="3.16" height="12.86" rx="1.58" ry="1.58" transform="translate(9.59 -10.59) rotate(1.67)"/>
        <rect class="cls-1" x="362.3" y="320.4" width="3.48" height="8.34" transform="translate(9.59 -10.44) rotate(1.67)"/>
        <path class="cls-1" d="M375.9,329.09l-4.45-.13.34-11.58c.03-.95.22-1.89.58-2.78l5.1-12.69c.2-.5.69-.81,1.22-.8h0c.7.02,1.26.61,1.24,1.31l-.68,23.52c-.05,1.79-1.55,3.2-3.34,3.15Z"/>
      </g>
      <g>
        <rect class="cls-1" x="393.02" y="319.03" width="3.16" height="12.86" rx="1.58" ry="1.58" transform="translate(779.57 662.25) rotate(-178.33)"/>
        <rect class="cls-1" x="389.85" y="318.94" width="3.16" height="12.86" rx="1.58" ry="1.58" transform="translate(773.25 661.97) rotate(-178.33)"/>
        <rect class="cls-1" x="394.6" y="321.34" width="3.48" height="8.34" transform="translate(783.04 662.4) rotate(-178.33)"/>
        <path class="cls-1" d="M384.23,329.33l4.45.13.34-11.58c.03-.95-.11-1.9-.42-2.81l-4.35-12.97c-.17-.51-.64-.85-1.17-.87h0c-.7-.02-1.29.53-1.31,1.24l-.68,23.52c-.05,1.79,1.36,3.29,3.15,3.34Z"/>
      </g>
    </g>
    <g>
      <path class="cls-1" d="M444.04,377.32c-23.51-.68-42.08-20.37-41.4-43.88.09-3.16.53-6.29,1.3-9.32.97-3.84,2.49-7.53,4.5-10.97,7.89-13.47,22.48-21.56,38.08-21.11,3.53.1,7.02.64,10.38,1.59,2.79.79,5.5,1.86,8.05,3.2,3.3,1.72,6.38,3.87,9.13,6.39,1.72,1.58,3.32,3.3,4.76,5.14,6.06,7.71,9.28,17.36,9.09,27.17,0,.12,0,.26,0,.4-.2,6.96-2.12,13.81-5.54,19.82-7.83,13.77-22.52,22.05-38.35,21.58ZM446.46,294.13c-14.83-.43-28.71,7.26-36.22,20.08-1.92,3.27-3.36,6.78-4.28,10.43-.74,2.88-1.15,5.86-1.24,8.87-.65,22.36,17.01,41.09,39.38,41.74,15.05.44,29.03-7.43,36.47-20.53,3.25-5.71,5.07-12.22,5.26-18.85,0-.12,0-.24,0-.36.19-9.35-2.88-18.53-8.64-25.86-1.37-1.74-2.89-3.39-4.53-4.89-2.62-2.4-5.54-4.45-8.69-6.08-2.43-1.27-5-2.29-7.65-3.04-3.2-.9-6.52-1.41-9.88-1.51Z"/>
      <path class="cls-1" d="M432.78,351.77c-.55,1.15-.65,1.1-1.91,1.34-1.07.2-1.7.21-1.24,1.5.36,1.01.65.79.46,1.93-.23,1.37-.02,2.43,1.58,2.88,2.06.58,2.38-2.07,2.81-3.57.41-1.41,1.06-3.14.48-4.53-.23-.56-.92-.76-1.41-.4-.31.22-.62.51-.78.85Z"/>
      <path class="cls-1" d="M467.73,337.13s1.42,1.28,2.26,1.62,1.38.55,1.61,1.09.75,1.41,1.49,1.91,1.19,1.06.83,1.63-.78.58-.9,1.23-.92,1.5-2.38-.28-2.86-4.81-3.16-6-.03-1.33.26-1.19Z"/>
      <path class="cls-1" d="M478.39,334.14c-.39.58-1.62,2.54-2.77,3.7s-1.72,2.16-1.09,2.61,1.95,1.08,2.42,1.87,1.42-.12,1.59-1.1.71-6.23.71-6.97-.56-.58-.86-.12Z"/>
      <path class="cls-1" d="M475.78,344.19s2.76.26,3.44.64.5,1.02.26,1.26-5.54.26-5.77.17-.28-.84.36-1.48,1.18-.67,1.7-.59Z"/>
      <path class="cls-1" d="M486.89,335.9c-.2,7.04-2.14,13.62-5.4,19.33-1.19,1.52-2.42,2.91-3.54,3.91-4.24,3.78-6.66,4.75-6.64,4.13s1.74-3.05,2.43-5.38c.69-2.33,2.79-4.36,5-6.03,2.21-1.67,5.87-6.42,6.79-8.82.91-2.4-.73-4.36-.99-5.26-.25-.89,2.26-2.21,2.37-2.27,0,.13,0,.26,0,.39Z"/>
      <path class="cls-1" d="M474.08,323.13c.39-.21,1.56-1.07,1.69-2.65.14-1.58-1.01-3.27-.92-4.07.09-.8.05-1.17-.98-1.6s-1.3-.8-1.24-1.92c.06-1.12-1-1.21-1.75-1.37-.76-.16-.99-.8-.5-1.08s.47.62,1.14.45c.68-.17.76-.44,1.54.16.78.6,1.12,2.05,1.53,1.74.41-.31-.84-2.07-1.65-3.17-.82-1.1-.49-3.23-.83-3.96-.34-.73-1.67-2.37-2.71-3.1-1.05-.74-3.39-1.19-4.29-1.94-.7-.57-.86-1.76-.63-2.87-2.48-1.29-5.11-2.34-7.85-3.12-.66.54-1.3.99-1.64,1.02-.87.08-3.42-.85-4.42-.28-.99.56-2.74.59-2.82,1.36-.07.77.26,1.65-.3,1.64s-2.97-.47-4.8.45c-1.83.93-3.73.92-3.08.58s1.98-1.13,1.26-1.98c-.72-.85-2.16-1.4-2.95-.71-.79.69-3.52,1.7-6.34,2.16-2.82.46-3.57,2.34-2.24,2.46,1.33.12,4.44-.44,4.11.14-.32.58-3.56,1.29-5.89.86-2.33-.43-3.95-.53-5.32.77-1.38,1.3-1.68,2.91-2.44,2.61-.76-.31-1.45-.53-1.88-.11-.42.43-1.74,2.55-.96,3.08.78.54,2.27-.29,3.56-1.26,1.29-.97,2.16-.68,2.56-.44.4.24-.43,1.66-1.15,2.54-.72.88-1.29,1.79-.79,2.32.5.53,2.62-.69,3.12-1.99.5-1.29-.19-2.45.34-2.72.52-.27.89,1.21.78,2.16-.1.95-1.1,2.62-.46,3.44.64.81,1.51.97,1.64.3.12-.67.05-1.75.75-1.01.7.74.41,1.81,1.13,1.94.72.13.35,1.22,1.52.77,1.17-.46,1.77,1.24-1.28,2.33-3.04,1.1-4.12-.94-4.88-1.25-.76-.31-1.32-.58-1.83.26-.51.83-1.02.59-1.77-.34-.74-.92-1.38-2.25-.67-3.44s-.46-1.92-2.41-2.21c-1.95-.29-2.98.81-3.9,1.56-.48.39-2.25,1.29-3.84,2.06-1.93,3.3-3.43,6.9-4.39,10.71.31,1.72.77,3.8,1.24,4.76.88,1.78,3.68.78,4.17,1.87.48,1.09.14,4.17-.17,6.01-.31,1.85.59,2.49,1.18,3.59.59,1.1.93,5.2.56,7.27-.37,2.07,2.54,7.98,4.79,11.33,2.25,3.34,4.3,3.4,5.36,2.78,1.06-.63.54-2.64,1.4-3.16.86-.51,1.52-.57,1.39-1.5-.13-.93-.81-2.57.1-2.86.91-.28,3.19-1.45,3.4-2.1.21-.65-1.49-3.21-1.11-5.74.38-2.54,4.86-6.58,6.23-8.62,1.37-2.04,2.42-2.33,2.46-3.6s-1.55-1.32-2.21-1.14c-.66.17-4.11.92-4.4.14-.29-.78-2.13-10.36-2.13-11.52,0-1.16.74-1.67,1.11-1.01.37.67,2.22,8.63,2.65,9.65.44,1.02,1.96,1.48,4,.66,2.03-.83,1.95-1.64,2.56-1.06.62.58.78.6,2.27-1.06,1.49-1.65,3.12-3.43,2.44-4.15-.69-.71-2.16-1.9-2.65-1.51-.49.4-.99-.41-1.31.13-.32.54-1.23-1-1.02-1.32.21-.31-.43-1.14-.55-1.39-.12-.25.1-.93.72-.36.62.57,1.29,2.01,2.04,1.58.75-.43,1.42-1.1,1.84-.4.42.71,2.27,2.57,3.12,1.96.86-.62.66,1.4,1.31,1.56.65.15,1.19-.5,1.5.08.31.59-.09,1.62.62,1.87.7.25,2-.56,2.49.52.49,1.07.09,3.22,1.51,5.4,1.43,2.18,2.54,3.83,3.49,3.81.95-.02,1.46-3.12,1.06-4.45-.4-1.32-.04-2.27.78-2.83.82-.57,2.56-1.26,3.18-3.02.62-1.76,2.12-1.28,2.68-.33.57.94,1.82,3.65,2.55,3.47.73-.19,1.49-.83,1.91-.18s.22,3.04.65,4.26c.43,1.22,2.77,3.86,3.42,4.52.65.66.92.05.89-.59-.03-.65-2.14-2.54-2.44-3.6-.3-1.06-.47-1.4.02-1.57.49-.17,1.71,1.31,2.35,1.41.64.09,2.64-2.42,2.1-4.29-.54-1.87-2.6-1.99-2.69-3.61-.08-1.62.33-1.8.61-1.83.27-.03.32,1.21.39,1.58.07.38.76-.42,1-1.03.23-.61-.11-1.44.28-1.65ZM434.02,311.76c-1.63.28-1.27-1.29-2.3-1.69s-1.56.4-2.08-.06c-.53-.46.81-2.48,2.02-2.57.39-.03.39.27.86.5.47.23.44-.75,1.16-.87.73-.11,1.37.51.85.88-.51.37-2.33,1.32-1.42,1.81.91.49,2.53,1.71.9,2ZM439.17,310.78c1.08,1.29.89,1.8.46,2.1-.44.3-.55.45-.09.95s.01,1.53-.87,1.5-1.69-.92-.88-1.55c.81-.63.38-1.75-.04-2.57-.42-.82.4-.43.27-1.33-.13-.89-.03-1,.71-1.25.74-.25,2.65-.35,2.62.39-.05,1.39-3.26.47-2.18,1.76Z"/>
      <path class="cls-1" d="M477.21,312.51c.79,2.11.27,3.3-.47,2.23-.74-1.08-1.36-2.92-1.27-4.05.08-1.13.12-1.57-1.5-3.46-.77-.9-.78-2.16-.58-3.23,1.68,1.54,3.24,3.22,4.64,5.01-.57.96-1.35,2.1-.82,3.5Z"/>
      <path class="cls-1" d="M477.6,319.49c.5.36.7,1.06.39,1.76s-1.29.48-1.52-.46.57-1.71,1.13-1.3Z"/>
      <path class="cls-1" d="M478.61,323.28c.53.41.8,1.12.62,1.83s.13,1.53.92,2.34,1.69,2.29,1.39,2.66-.36.88.02,1.14,1.28,1.02.91,1.96-1.53.82-1.67-.5-.25-1.68-.92-2.75-1.84-1.85-1.99-4.05-.16-3.32.73-2.64Z"/>
      <path class="cls-1" d="M483.24,335.4c.7.25.79,1.23.25,1.48s-1.39.19-1.6,1.4.17,6.26-.64,6.1-2.05-1.33-1.6-4.02,1.46-3.86,2.28-4.06.88-1.05,1.32-.9Z"/>
      <path class="cls-1" d="M478.96,330.06s.39.02.46.71-1.07.67-1,.11.33-.91.54-.81Z"/>
    </g>
    <g>
      <g>
        <path class="cls-1" d="M389.6,370.63h9.17v60.64c0,2.53-2.06,4.59-4.59,4.59h0c-2.53,0-4.59-2.06-4.59-4.59v-60.64h0Z" transform="translate(-110.82 152.32) rotate(-19.23)"/>
        <path class="cls-1" d="M390.36,374.22c.68-2.2,9.89-13.63,6.32-24.1-3.57-10.47-12.04-13.09-20.52-12.54-8.48.54-9.54,7.08-7.01,20.6,2.53,13.52,7.06,15.71,8.83,17.42,1.77,1.71,3.35,4.71,3.35,4.71l.56-.09,9.51,1.1s-1.71-4.9-1.03-7.1ZM371.66,356.98l-.93-3.48,8.46-2.25.93,3.48-8.46,2.25Z"/>
      </g>
      <rect class="cls-1" x="397.42" y="419.87" width="10.89" height="3.99" rx="2" ry="2" transform="translate(-116.47 156.22) rotate(-19.23)"/>
      <rect class="cls-1" x="393.9" y="409.79" width="10.89" height="3.99" rx="2" ry="2" transform="translate(-113.34 154.5) rotate(-19.23)"/>
      <rect class="cls-1" x="390.84" y="401.02" width="10.89" height="3.99" rx="2" ry="2" transform="translate(-110.62 153) rotate(-19.23)"/>
      <rect class="cls-1" x="399.42" y="425.62" width="10.89" height="3.99" rx="2" ry="2" transform="translate(-118.25 157.2) rotate(-19.23)"/>
      <rect class="cls-1" x="391.31" y="426.21" width="10.4" height="4.39" rx="2.19" ry="2.19" transform="translate(670.42 -87.08) rotate(70.77)"/>
    </g>
    <g>
      <path class="cls-1" d="M502.15,282.96s6.23,1.17,7.11,7.35c.87,6.18-9.96,9.1-12.74,13.28s-2.49,7.41-2.26,9.44-1.8,3.24-3.79-.35c-1.99-3.59-4.28-12.41-2.05-20.43,2.24-8.02,6.95-10.73,13.73-9.28Z"/>
      <path class="cls-1" d="M508.62,296.37s-2.07,1.97-6.54,4.71c-4.47,2.75-5.69,5.07-5.81,7.44s.45,2.48,1.5.59c1.04-1.88,2.21-2.96,5.44-4.76,6.05-3.37,7.2-9.47,5.42-7.99Z"/>
      <path class="cls-1" d="M510.29,286.86c-.55.03-1.09-.25-1.38-.76-2.85-5.08-9.21-4.65-9.48-4.63-.81.07-1.54-.55-1.61-1.37-.07-.82.54-1.54,1.37-1.61.35-.03,8.53-.62,12.34,6.15.41.72.15,1.63-.57,2.04-.21.12-.44.18-.66.19Z"/>
      <path class="cls-1" d="M511,282.03c-.43.02-.84-.2-1.06-.6-2.01-3.77-7.41-3.78-7.47-3.78-.63,0-1.14-.5-1.14-1.13s.49-1.15,1.12-1.15c.28,0,6.83-.01,9.49,4.98.3.55.09,1.24-.47,1.54-.15.08-.32.13-.48.13Z"/>
    </g>
    <path class="cls-1" d="M442.02,240.62h0c0-.49-.05-.99-.13-1.49-.87-5.12-5.72-8.56-10.84-7.7-5.12.87-8.56,5.72-7.7,10.84.08.5.21.98.37,1.45h0c.93,2.92,4.01,6.98,6.78,9.96,2.64,2.84,3.86,6.08,4.26,8.4.26,1.53,1.68,1.1,1.68,1.1,0,0,1.48-.06,1.22-1.59-.39-2.32-.31-5.78,1.25-9.33,1.63-3.73,3.2-8.58,3.12-11.64ZM433.09,243.51c-1.55.26-3.02-.78-3.28-2.33s.78-3.02,2.33-3.28c1.55-.26,3.02.78,3.28,2.33.26,1.55-.78,3.02-2.33,3.28Z"/>
    <g>
      <g>
        <circle class="cls-1" cx="373.22" cy="296.49" r="1.24"/>
        <polygon class="cls-1" points="374.77 289.78 372.61 295.57 374.21 295.94 374.77 289.78"/>
      </g>
      <g>
        <polygon class="cls-1" points="375.51 289.8 375.87 295.97 377.48 295.66 375.51 289.8"/>
        <circle class="cls-1" cx="376.85" cy="296.53" r="1.24"/>
      </g>
      <rect class="cls-1" x="379.1" y="279.66" width="6.64" height="12.4" rx="3.32" ry="3.32" transform="translate(-21.52 31.31) rotate(-4.56)"/>
      <rect class="cls-1" x="376.67" y="280.92" width="2.44" height="10.59" rx="1.22" ry="1.22" transform="translate(-21.56 30.95) rotate(-4.56)"/>
      <g>
        <path class="cls-1" d="M363.89,269.42c-4.19-19.96,12.06-28.15,12.06-28.15,1.41-.97,2.86-1.62,4.27-2.05-.31-5.74-3.87-8.43-5.77-9.46-1.63,1.96-3.74,4.24-6.46,6.87-13.01,12.54-14.88,25.19-8.75,39.55,5.97,13.98,21.62,13.19,21.62,13.19l-.05-5.85s-13.47,2.35-16.92-14.1Z"/>
        <path class="cls-1" d="M379.92,219.51s.54,2.28-3.71,8.02c2.46,1.48,6.31,4.79,6.82,11.12,4.55-.54,8.19.86,8.19.86,4.14-16.01-11.3-19.99-11.3-19.99Z"/>
      </g>
    </g>
    <g>
      <g>
        <path class="cls-1" d="M523.67,277.36c-.29,0-.57-.03-.86-.08-1.91-.28-5.27-1.65-6.39-7.61-.81-4.33-.26-9.28.37-15.03.94-8.56,2-18.26-1.14-28.72-2.95-9.81-5.85-15.54-8.54-20.27-3.56-6.25-3.31-12.38.66-16.39,4.17-4.21,9.93-2.43,12.39-.9h.02c.61.4,14.93,9.81,18.79,33.79,4.54,28.22-1.64,42.95-3.65,46.79-2.25,4.32-7,8.55-11.65,8.42ZM514.29,190.9c-1.16-.03-2.42.28-3.49,1.36-3.67,3.7-1.21,9.12.02,11.28,2.82,4.95,5.85,10.94,8.92,21.16,3.4,11.29,2.23,21.9,1.3,30.42-.59,5.41-1.11,10.07-.41,13.78.33,1.76,1.09,3.91,2.82,4.17,2.43.36,6.22-2.48,8.1-6.09,3.81-7.31,6.66-22.75,3.22-44.14-3.48-21.62-16.32-30.48-16.86-30.85-.22-.13-1.79-1.02-3.6-1.07Z"/>
        <path class="cls-1" d="M526.21,284.35c-1.1-.03-2.14-.37-2.99-1.01-3.3-2.49-3.05-8.13-3.01-8.76l2.84.18c-.08,1.3.11,4.98,1.88,6.31.78.59,2.04.59,3.12,0,1.55-.83,2.35-2.58,2.21-4.8-.32-5.07-5.73-7.54-5.79-7.57l1.16-2.6c.29.13,7.04,3.22,7.47,9.98.21,3.33-1.17,6.13-3.7,7.49-1.02.55-2.13.81-3.19.78Z"/>
        <path class="cls-1" d="M524.96,270.62c-1.78-.05-3.19-1.54-3.13-3.32s1.54-3.19,3.32-3.13,3.19,1.54,3.13,3.32-1.54,3.19-3.32,3.13ZM525.08,266.35c-.57-.02-1.05.44-1.07,1.01s.44,1.05,1.01,1.07,1.05-.44,1.07-1.01-.44-1.05-1.01-1.07Z"/>
        <path class="cls-1" d="M517.66,270.88c-7.85-3.15-7.02-12.47-6.28-20.7.12-1.37.25-2.78.33-4.14.51-8.1-.98-16.08-4.85-25.86-.99-2.51-2.16-5.07-3.28-7.54-3.22-7.06-6-13.16-4.5-17.3.85-2.36,2.24-4,4.12-4.88,2.72-1.27,5.35-.38,5.64-.27l-.73,2.01-.7,2.02c-.91-.3-3.14-.66-4.32,2.59-.9,2.5,1.9,8.65,4.37,14.08,1.15,2.52,2.33,5.12,3.37,7.74,4.11,10.39,5.7,18.93,5.14,27.7-.09,1.41-.22,2.85-.34,4.25-.78,8.69-.94,14.52,3.62,16.35l-1.59,3.96Z"/>
      </g>
      <circle class="cls-1" cx="516.76" cy="195.91" r="1.83"/>
      <g>
        <path class="cls-1" d="M530.63,259.22c-.06,0-.12,0-.17-.02-.48-.11-.78-.59-.67-1.07.03-.13,2.87-12.8,1.77-28.33-1.09-15.4-11.2-29.37-11.31-29.51-.29-.4-.2-.95.19-1.24.4-.29.95-.2,1.24.19.43.59,10.52,14.51,11.65,30.43,1.12,15.8-1.78,28.72-1.81,28.85-.1.42-.48.7-.89.69Z"/>
        <path class="cls-1" d="M517.84,205.31c-.3,0-.59-.17-.75-.46-.24-.43-.09-.97.34-1.21l4.53-2.52c.43-.24.97-.09,1.21.34.24.43.09.97-.34,1.21l-4.53,2.52c-.14.08-.3.12-.46.11Z"/>
        <path class="cls-1" d="M519.72,208.68c-.3,0-.59-.17-.75-.46-.24-.43-.09-.97.34-1.21l4.53-2.52c.43-.24.97-.09,1.21.34.24.43.09.97-.34,1.21l-4.53,2.52c-.14.08-.3.12-.46.11Z"/>
        <path class="cls-1" d="M523.51,216.77c-.3,0-.59-.17-.75-.46-.24-.43-.09-.97.34-1.21l4.53-2.52c.43-.24.97-.09,1.21.34.24.43.09.97-.34,1.21l-4.53,2.52c-.14.08-.3.12-.46.11Z"/>
        <path class="cls-1" d="M525.4,222.16c-.35-.01-.68-.23-.81-.59-.17-.46.07-.97.54-1.14l4.88-1.75c.46-.17.97.07,1.14.54.17.46-.07.97-.54,1.14l-4.88,1.75c-.11.04-.22.06-.33.05Z"/>
        <path class="cls-1" d="M526.67,227.93c-.4-.01-.75-.29-.84-.7-.1-.48.2-.95.68-1.06l5.06-1.1c.48-.11.95.2,1.06.68.1.48-.2.95-.68,1.06l-5.06,1.1c-.07.02-.15.02-.22.02Z"/>
        <path class="cls-1" d="M527.4,233.95c-.46-.01-.84-.38-.86-.85-.02-.49.35-.91.85-.93l5.18-.25c.49-.03.91.36.93.85.02.49-.35.91-.85.93l-5.18.25s-.05,0-.07,0Z"/>
        <path class="cls-1" d="M527.58,244.22c-.46-.01-.84-.38-.86-.85-.02-.49.35-.91.85-.93l5.18-.25c.49-.03.91.35.93.85s-.35.91-.85.93l-5.18.25s-.05,0-.07,0Z"/>
        <path class="cls-1" d="M532.43,248.5l-5.18-.15c-.49-.01-.88-.42-.86-.92s.42-.88.92-.86l5.18.15c.49.01.88.42.86.92s-.42.88-.92.86Z"/>
        <path class="cls-1" d="M532.03,252.64l-5.18-.15c-.49-.01-.88-.42-.86-.92s.42-.88.92-.86l5.18.15c.49.01.88.42.86.92s-.42.88-.92.86Z"/>
        <path class="cls-1" d="M531.08,256.75l-4.35-.13c-.49-.01-.88-.42-.86-.92s.42-.88.92-.86l4.35.13c.49.01.88.42.86.92s-.42.88-.92.86Z"/>
        <path class="cls-1" d="M524.07,211.26c-.3,0-.58-.16-.74-.44l-2.1-3.56c-.25-.42-.11-.97.32-1.22.42-.25.97-.11,1.22.32l2.1,3.56c.25.42.11.97-.32,1.22-.15.09-.31.13-.48.12Z"/>
        <path class="cls-1" d="M526.79,218.48c-.37-.01-.7-.25-.82-.61l-.98-3.03c-.15-.47.1-.97.57-1.12.47-.15.97.1,1.12.57l.98,3.03c.15.47-.1.97-.57,1.12-.1.03-.2.05-.3.04Z"/>
        <path class="cls-1" d="M529.29,230.64c-.42-.01-.79-.33-.85-.76l-.44-3.08c-.07-.49.27-.94.76-1.01.49-.07.94.27,1.01.76l.44,3.08c.07.49-.27.94-.76,1.01-.05,0-.1,0-.15,0Z"/>
        <path class="cls-1" d="M529.6,245.48c-.49-.01-.87-.42-.86-.9l.05-3.46c0-.49.41-.88.9-.88.49,0,.88.41.88.9l-.05,3.46c0,.49-.41.88-.9.88h-.01Z"/>
      </g>
    </g>
    <g>
      <path class="cls-1" d="M457.99,120.98c.61.76,1.21,1.63,1.73,2.61h.01s0,0,0,0c1.05-.25,2.06-.39,3.02-.44-.6-1.42-1.25-2.46-1.59-2.95-.58.08-1.76.29-3.18.77Z"/>
      <path class="cls-1" d="M442.97,122.57c.97.1,2.01.3,3.07.62h0s.01,0,.01,0c.56-.92,1.19-1.73,1.82-2.44-1.42-.58-2.62-.85-3.21-.96-.35.47-1.04,1.45-1.7,2.79Z"/>
      <path class="cls-1" d="M469.74,130.47c-.1.97-.3,2.01-.62,3.07h.01s0,.02,0,.02c.92.56,1.73,1.18,2.44,1.82.58-1.42.85-2.62.97-3.21-.47-.35-1.45-1.04-2.79-1.7Z"/>
      <path class="cls-1" d="M433.48,134.32c.76-.61,1.63-1.21,2.61-1.73h0s.01-.02.01-.02c-.25-1.05-.39-2.06-.44-3.02-1.42.6-2.46,1.25-2.95,1.59.08.58.29,1.76.77,3.18Z"/>
      <path class="cls-1" d="M435.07,149.34c.1-.97.3-2.01.62-3.07h-.01s0-.02,0-.02c-.92-.56-1.73-1.18-2.44-1.82-.58,1.42-.85,2.62-.97,3.21.47.35,1.45,1.04,2.79,1.7Z"/>
      <path class="cls-1" d="M446.82,158.83c-.61-.76-1.21-1.63-1.73-2.61h-.01s0,0,0,0c-1.05.25-2.06.38-3.02.44.6,1.42,1.25,2.46,1.59,2.95.58-.08,1.76-.29,3.18-.77Z"/>
      <path class="cls-1" d="M461.84,157.24c-.97-.1-2.01-.3-3.07-.62h0s-.01,0-.01,0c-.56.92-1.19,1.73-1.82,2.44,1.42.58,2.62.85,3.21.96.35-.47,1.04-1.45,1.7-2.8Z"/>
      <path class="cls-1" d="M471.33,145.49c-.76.61-1.63,1.21-2.61,1.73h0s-.01.02-.01.02c.25,1.04.39,2.06.44,3.02,1.42-.6,2.46-1.25,2.95-1.59-.08-.58-.29-1.76-.77-3.18Z"/>
      <path class="cls-1" d="M452.32,142.71c1.55.04,2.84-1.18,2.88-2.72s-1.18-2.84-2.72-2.88-2.84,1.18-2.88,2.72,1.18,2.84,2.72,2.88Z"/>
      <path class="cls-1" d="M452.21,146.59c3.78.11,6.94-2.87,7.05-6.65.02-.84-.11-1.64-.37-2.39l-.19-.49c-.36-.84-.89-1.6-1.54-2.23-.07-.06-.14-.12-.2-.17-.01,0-.02-.02-.03-.03-.07-.05-.13-.11-.2-.15-.01-.01-.03-.02-.04-.03-.07-.05-.14-.1-.2-.15-.01,0-.03-.02-.04-.03-.06-.04-.11-.07-.16-.11-.01,0-.02-.02-.03-.02-.06-.04-.11-.07-.16-.1-.01,0-.03-.02-.04-.02-.04-.02-.08-.05-.11-.07,0,0-.02,0-.02-.01-.04-.02-.07-.04-.1-.06,0,0-.01,0-.02,0l-1-.45s-.91-.4-2.19-.47c-.05,0-.11,0-.16,0-.03,0-.06,0-.09,0-.68.02-1.25.14-1.59.23,0,0,0,0,0,0-.07.02-.13.03-.18.05,0,0-.01,0-.02,0-.01,0-.02,0-.03.01l-.58.22-.58.22c-.24.11-.79.38-1.41.87-.7.6-1.27,1.33-1.69,2.16l-.22.49c-.3.73-.48,1.53-.5,2.36-.11,3.78,2.87,6.94,6.65,7.05ZM452.53,135.68c2.33.07,4.17,2.02,4.1,4.35-.07,2.33-2.02,4.17-4.35,4.1-2.33-.07-4.17-2.02-4.1-4.35s2.02-4.17,4.35-4.1Z"/>
      <path class="cls-1" d="M468.09,125.11c-1.06-.28-4.25-.97-7.74-.2.01.03.02.06.04.1.04.09.07.18.1.27.08.21.16.42.23.64.03.1.07.21.1.31.06.21.12.42.18.64.02.1.05.19.07.29.07.28.12.57.17.86,0,.02,0,.05.01.07.05.31.09.62.12.94,0,.09.01.19.02.28.02.22.03.45.04.68,0,.11,0,.22,0,.33,0,.22,0,.44-.01.67,0,.1,0,.21-.01.31,0,.04,0,.07,0,.11h.02s0,.02,0,.02c.05,0,.09,0,.14,0,.05,0,.11,0,.16,0,.1,0,.2,0,.3,0,.18,0,.37.02.55.03.05,0,.1,0,.15,0,.31.02.62.06.93.1.07.01.14.02.21.03.24.04.49.08.73.14.08.02.16.03.24.05.6.14,1.2.32,1.78.54.08.03.16.06.25.1.22.09.44.18.66.28.07.03.15.06.22.1.03.02.07.03.1.04.97-3.44.47-6.66.25-7.74Z"/>
      <path class="cls-1" d="M436.72,154.7c1.06.28,4.25.97,7.74.2-.01-.03-.02-.07-.04-.1-.04-.09-.07-.18-.1-.27-.08-.21-.16-.42-.23-.64-.03-.1-.07-.21-.1-.31-.06-.21-.12-.42-.18-.64-.02-.1-.05-.19-.07-.29-.07-.28-.12-.57-.17-.86,0-.02,0-.05-.01-.07-.05-.31-.09-.62-.12-.94,0-.09-.01-.19-.02-.28-.02-.22-.03-.45-.04-.68,0-.11,0-.22,0-.33,0-.22,0-.44.01-.67,0-.1,0-.21.01-.31,0-.04,0-.07,0-.11h-.02s0-.02,0-.02c-.05,0-.1,0-.16,0-.15,0-.3,0-.44,0-.04,0-.08,0-.13,0-.12,0-.25-.01-.37-.02-.16-.01-.33-.02-.49-.04-.11-.01-.22-.03-.33-.04-.17-.02-.34-.04-.52-.07-.1-.02-.2-.04-.31-.06-.17-.03-.35-.06-.52-.1-.1-.02-.21-.05-.31-.08-.17-.04-.33-.08-.5-.13-.12-.03-.23-.07-.35-.11-.15-.05-.3-.09-.45-.14-.14-.05-.28-.11-.43-.16-.12-.05-.24-.09-.36-.14-.22-.09-.45-.19-.67-.3-.04-.02-.07-.03-.11-.05,0,0,0,0,0,0-.97,3.45-.47,6.66-.25,7.74Z"/>
      <path class="cls-1" d="M467.4,147.85s0,0,0,0c-.04.02-.08.03-.12.05-.22.09-.45.18-.67.26-.1.03-.2.06-.29.09-.17.05-.34.11-.51.16-.13.04-.25.06-.38.1-.14.04-.29.08-.43.11-.14.03-.29.06-.44.08-.13.02-.26.05-.38.07-.16.02-.31.04-.47.06-.12.01-.24.03-.36.04-.16.02-.32.02-.48.03-.12,0-.24.02-.37.02-.15,0-.31,0-.47,0-.13,0-.26,0-.39,0-.04,0-.08,0-.12,0-.15,0-.29-.01-.44-.02-.05,0-.11,0-.16,0v.02s-.02,0-.02,0c0,.04,0,.07,0,.11,0,.1,0,.21,0,.31,0,.22-.01.45-.03.67,0,.11-.01.22-.02.33-.02.23-.04.45-.07.67-.01.09-.02.19-.04.28-.05.31-.1.62-.17.93,0,.02-.01.05-.02.07-.06.28-.14.56-.22.84-.03.1-.06.19-.09.29-.07.21-.14.42-.21.62-.04.1-.08.21-.12.31-.08.21-.17.42-.27.62-.04.09-.08.18-.12.26-.01.03-.03.06-.04.09,3.44.97,6.66.47,7.74.25.28-1.06.97-4.25.2-7.74Z"/>
      <path class="cls-1" d="M437.41,131.96s.07-.02.1-.04c.09-.04.18-.07.27-.1.21-.08.42-.16.64-.23.11-.03.21-.07.32-.1.21-.06.41-.12.62-.17.1-.03.2-.05.31-.08.26-.06.53-.11.79-.16.05,0,.09-.02.14-.03.3-.05.61-.09.92-.12.11-.01.22-.02.33-.02.21-.01.41-.03.62-.03.12,0,.25,0,.37,0,.21,0,.42,0,.63.01.11,0,.22,0,.33.01.04,0,.07,0,.11,0v-.02s.02,0,.02,0c0-.04,0-.07,0-.11,0-.11,0-.21,0-.32,0-.22.01-.44.03-.66,0-.11.02-.23.02-.34.02-.22.04-.44.07-.67.01-.1.02-.19.04-.29.05-.31.1-.62.17-.93,0-.03.01-.05.02-.08.06-.28.14-.56.22-.83.03-.1.06-.19.09-.29.07-.21.14-.42.21-.62.04-.1.08-.21.12-.31.08-.21.17-.42.26-.62.04-.09.08-.18.12-.26.01-.03.03-.06.04-.09-3.44-.97-6.66-.47-7.74-.25-.28,1.06-.97,4.25-.2,7.74Z"/>
      <path class="cls-1" d="M447.42,123.68s.06.03.09.04c.09.04.18.08.27.12.2.09.41.19.6.29.1.05.2.1.3.15.19.1.38.21.57.32.09.05.18.1.26.16.24.15.48.31.72.48.02.02.05.03.07.05.26.18.5.38.75.58.07.06.14.12.22.19.17.15.34.3.5.45.08.08.16.15.24.23.16.16.31.32.47.49.07.07.14.15.21.22.02.03.05.05.08.08l.02-.02.02.02s.05-.05.08-.08c.07-.07.15-.14.22-.21.16-.16.32-.31.49-.45.08-.07.17-.15.25-.22.17-.14.35-.28.52-.42.08-.06.15-.12.23-.18.25-.19.51-.37.78-.53.03-.02.05-.03.08-.05.24-.15.49-.29.73-.43.09-.05.18-.1.27-.14.19-.1.39-.19.58-.29.1-.05.2-.09.31-.14.2-.09.41-.17.62-.25.09-.03.18-.07.28-.1.03-.01.06-.03.1-.04-1.75-3.12-4.38-5.04-5.3-5.65-.95.55-3.69,2.32-5.61,5.33Z"/>
      <path class="cls-1" d="M453.85,128.95c.07.1.14.21.21.31.14.22.28.44.41.67.05.09.11.18.16.27.18.32.36.65.52.98.03.06.05.12.08.18.11.23.22.47.33.71h0s.05.02.05.02c.08.03.17.07.25.11.08.03.16.07.25.12l.04.02h0s0,0,0,0c.03-.01.06-.02.09-.03.28-.09.56-.18.84-.25.03,0,.06-.02.09-.02.26-.07.53-.13.79-.19.05-.01.11-.02.16-.04.28-.06.55-.11.82-.16.06,0,.11-.02.17-.03.26-.04.53-.08.79-.11.02,0,.03,0,.05,0,.18-2.16-.16-4.25-1-6.21-2.03.67-3.81,1.81-5.31,3.38.07.09.13.19.19.28Z"/>
      <path class="cls-1" d="M445.35,131.08s.03,0,.05,0c.26.04.52.09.78.15.06.01.11.02.17.04.27.06.54.13.81.2.05.01.1.03.15.04.26.07.52.15.78.24.03,0,.06.02.09.03.27.09.55.19.83.3.03.01.06.02.09.03h0s0,0,0,0l.05-.02c.08-.03.17-.07.25-.1.08-.03.16-.06.25-.09l.05-.02c.12-.23.24-.46.37-.68.03-.06.06-.12.09-.17.19-.33.38-.64.58-.95.06-.09.11-.17.17-.25.15-.22.3-.44.46-.65.07-.1.15-.2.23-.29.07-.09.14-.19.21-.27-1.4-1.66-3.11-2.89-5.1-3.69-.96,1.91-1.42,3.98-1.36,6.15Z"/>
      <path class="cls-1" d="M451.78,131.49s.05,0,.07,0c.11,0,.22-.01.32-.02.16,0,.31,0,.47,0s.32.01.47.03c.11,0,.22.02.32.03.02,0,.05,0,.07,0,.08.01.16.02.24.03-.33-.63-.68-1.23-1.06-1.79-.41.53-.8,1.11-1.16,1.72.08,0,.16-.01.24-.02Z"/>
      <path class="cls-1" d="M457.39,156.13s-.06-.03-.09-.04c-.09-.04-.18-.08-.27-.12-.2-.09-.41-.19-.6-.28-.1-.05-.2-.1-.3-.16-.19-.1-.38-.21-.56-.32-.09-.05-.18-.1-.27-.16-.24-.15-.48-.31-.71-.47-.03-.02-.05-.03-.08-.05-.25-.18-.5-.38-.74-.58-.07-.06-.15-.13-.22-.19-.17-.15-.34-.3-.5-.45-.08-.08-.16-.15-.24-.23-.16-.16-.31-.32-.47-.49-.07-.07-.14-.15-.2-.22-.03-.03-.05-.05-.08-.08l-.02.02-.02-.02s-.05.05-.08.08c-.07.07-.15.14-.22.21-.16.16-.33.31-.49.46-.08.07-.17.15-.25.22-.17.15-.35.29-.53.42-.08.06-.15.12-.23.18-.25.19-.51.37-.78.53-.03.02-.05.03-.08.05-.24.15-.48.29-.73.43-.09.05-.18.1-.28.14-.19.1-.39.19-.58.28-.1.05-.21.09-.31.14-.2.09-.41.17-.62.25-.09.03-.18.07-.28.1-.03.01-.06.03-.1.04,1.75,3.12,4.38,5.04,5.3,5.65.95-.55,3.69-2.32,5.61-5.33Z"/>
      <path class="cls-1" d="M450.96,150.86c-.07-.1-.14-.21-.21-.31-.14-.22-.28-.44-.41-.67-.05-.09-.11-.18-.16-.27-.18-.32-.36-.65-.52-.98-.03-.06-.05-.12-.08-.18-.11-.23-.22-.46-.33-.7l-.05-.02c-.08-.03-.17-.07-.25-.11-.08-.04-.16-.07-.25-.11h0s-.01,0-.01,0l-.04-.02s-.06.02-.09.03c-.28.09-.56.18-.84.25-.03,0-.07.02-.1.03-.26.07-.52.13-.78.19-.06.01-.11.03-.17.04-.27.06-.55.11-.82.15-.06,0-.12.02-.18.03-.26.04-.52.08-.78.1-.02,0-.03,0-.05,0-.18,2.16.16,4.25,1,6.21,2.03-.67,3.81-1.81,5.31-3.38-.07-.09-.13-.19-.19-.28Z"/>
      <path class="cls-1" d="M459.46,148.73s-.03,0-.05,0c-.26-.04-.52-.09-.78-.15-.06-.01-.12-.02-.17-.04-.27-.06-.54-.13-.81-.2-.06-.02-.11-.03-.17-.05-.25-.07-.51-.15-.76-.23-.03-.01-.07-.02-.1-.03-.28-.09-.55-.19-.83-.3-.03-.01-.06-.02-.09-.03l-.04.02h0s0,0,0,0c-.09.04-.17.07-.26.1-.08.03-.16.06-.25.09l-.02-.05c-.15.29-.3.58-.46.86,0,.01-.01.03-.02.04-.19.33-.38.65-.59.96-.06.1-.13.19-.19.28-.14.21-.29.42-.44.62-.08.1-.16.21-.23.31-.07.09-.14.18-.21.27,1.4,1.66,3.11,2.89,5.1,3.69.96-1.91,1.42-3.98,1.36-6.15Z"/>
      <path class="cls-1" d="M451.05,148.24c.33.63.68,1.23,1.06,1.79.41-.53.8-1.11,1.16-1.72-.73.07-1.5.05-2.22-.06Z"/>
      <path class="cls-1" d="M473.96,140.53c-.55-.95-2.32-3.69-5.33-5.61-.01.03-.03.06-.04.1-.04.09-.08.17-.12.26-.09.21-.19.41-.29.61-.05.1-.1.2-.15.29-.1.19-.21.39-.32.57-.05.09-.1.17-.15.26-.15.25-.31.49-.48.72-.02.02-.03.04-.04.06-.18.26-.38.5-.58.75-.06.07-.12.14-.19.22-.15.17-.3.34-.45.5-.08.08-.15.16-.23.24-.16.16-.32.31-.48.46-.08.07-.15.14-.23.21-.03.02-.05.05-.08.07l.02.02-.02.02s.05.05.08.08c.07.07.14.15.21.22.16.16.31.33.46.49.07.08.14.16.21.25.15.18.29.35.43.54.06.07.11.14.17.22.19.26.37.52.54.78.01.02.02.04.03.05.16.25.3.5.45.76.05.09.09.17.14.26.1.2.2.39.29.6.05.1.09.2.13.3.09.21.17.42.25.63.03.09.07.17.1.26.01.03.03.07.04.1,3.12-1.75,5.04-4.38,5.65-5.3Z"/>
      <path class="cls-1" d="M467.38,134.21c-1.91-.96-3.98-1.41-6.15-1.36,0,.01,0,.02,0,.03-.04.26-.1.53-.15.8-.01.05-.02.11-.04.16-.06.27-.13.54-.2.81-.01.05-.03.1-.04.15-.07.26-.15.52-.24.78,0,.03-.02.05-.03.08-.09.28-.2.56-.3.84-.01.03-.02.05-.03.08h0s0,.01,0,.01l.02.05c.04.08.07.17.1.25.03.08.06.16.09.25l.02.05c.23.12.46.24.68.37.06.03.12.06.17.09.33.19.64.38.95.58.09.06.17.12.25.17.22.15.44.3.65.46.1.07.2.15.3.23.09.07.19.14.27.21,1.66-1.4,2.89-3.11,3.69-5.1Z"/>
      <path class="cls-1" d="M463.64,141.16c-.09.07-.19.13-.28.19-.1.07-.21.14-.31.21-.22.14-.44.28-.66.41-.09.05-.18.11-.27.16-.32.18-.65.36-.98.52-.06.03-.12.06-.18.09-.23.11-.46.22-.7.33,0,0,0,0,0,0v.03c-.05.1-.09.18-.13.27-.03.08-.07.16-.11.24l-.02.04h0s0,.01,0,.01c0,.03.02.06.03.09.09.28.18.56.25.84,0,.03.02.07.03.1.07.26.13.52.19.78.01.06.03.11.04.17.06.27.11.55.16.82,0,.06.02.11.03.17.04.27.08.54.11.81,0,.01,0,.02,0,.03,2.16.18,4.25-.16,6.21-1-.68-2.03-1.81-3.81-3.38-5.31Z"/>
      <path class="cls-1" d="M460.8,139.04c.03.36.05.74.04,1.11s-.04.75-.1,1.11c.63-.33,1.23-.68,1.79-1.06-.53-.41-1.11-.8-1.72-1.16Z"/>
      <path class="cls-1" d="M459.77,132.96c-.67.09-1.35.22-2.04.4.28.23.55.49.81.76.26.27.5.56.71.86.22-.68.39-1.35.51-2.01Z"/>
      <path class="cls-1" d="M458.19,146.04c-.27.26-.56.5-.86.71.68.22,1.35.39,2.01.51-.09-.67-.22-1.35-.4-2.04-.23.28-.49.55-.76.81Z"/>
      <path class="cls-1" d="M430.85,139.28c.55.95,2.32,3.69,5.33,5.61.01-.03.03-.06.04-.1.04-.09.08-.17.12-.26.09-.21.19-.41.29-.62.05-.1.1-.19.15-.29.1-.2.21-.39.33-.58.05-.08.1-.17.15-.25.16-.25.32-.49.49-.73.01-.02.02-.03.04-.05.18-.26.38-.51.58-.75.06-.07.12-.14.18-.21.15-.17.3-.34.46-.51.07-.08.15-.16.23-.23.16-.16.32-.31.49-.47.07-.07.15-.14.22-.21.03-.02.05-.05.08-.08l-.02-.02.02-.02s-.05-.05-.08-.08c-.07-.07-.14-.15-.22-.22-.16-.16-.31-.32-.45-.49-.07-.08-.15-.17-.22-.25-.15-.17-.29-.35-.42-.53-.06-.08-.12-.15-.17-.23-.19-.25-.37-.51-.54-.78-.01-.02-.03-.05-.04-.07-.15-.24-.3-.49-.44-.75-.05-.09-.09-.18-.14-.27-.1-.19-.2-.39-.29-.59-.05-.1-.09-.2-.13-.3-.09-.21-.17-.42-.25-.63-.03-.09-.07-.18-.1-.27-.01-.03-.03-.06-.04-.1-3.12,1.75-5.04,4.38-5.65,5.3Z"/>
      <path class="cls-1" d="M443.58,146.94c.04-.27.1-.53.15-.8.01-.05.02-.11.03-.16.06-.27.13-.54.2-.81.01-.05.03-.1.04-.16.07-.26.15-.52.24-.78,0-.03.02-.06.03-.09.09-.28.2-.56.3-.84.01-.03.02-.05.03-.08h0s0-.01,0-.01l-.02-.05c-.03-.08-.07-.16-.1-.24-.03-.08-.06-.17-.09-.25l-.02-.05c-.23-.12-.46-.24-.68-.37-.06-.03-.12-.06-.17-.09-.33-.19-.64-.38-.95-.58-.09-.06-.17-.12-.26-.17-.22-.15-.43-.3-.64-.45-.1-.08-.2-.15-.3-.23-.09-.07-.18-.14-.27-.21-1.66,1.4-2.89,3.11-3.69,5.1,1.91.96,3.98,1.42,6.15,1.36,0,0,0-.02,0-.03Z"/>
      <path class="cls-1" d="M441.17,138.65c.09-.07.19-.13.28-.19.1-.07.21-.14.31-.21.22-.14.44-.28.67-.41.09-.05.18-.11.27-.16.32-.18.65-.36.98-.52.06-.03.12-.06.18-.08.23-.11.46-.22.7-.33,0,0,0,0,0,0l.02-.05c.03-.08.07-.17.11-.25.03-.08.07-.16.11-.24l.02-.05s-.02-.06-.03-.09c-.09-.28-.18-.57-.25-.85,0-.03-.02-.06-.02-.09-.07-.26-.13-.52-.19-.79-.01-.05-.02-.11-.04-.16-.06-.28-.11-.55-.16-.82,0-.06-.02-.11-.03-.17-.04-.27-.08-.54-.11-.8,0-.01,0-.02,0-.03-2.16-.18-4.25.16-6.21,1,.68,2.03,1.81,3.81,3.38,5.31Z"/>
      <path class="cls-1" d="M443.97,139.66c.01-.38.04-.75.1-1.11-.63.33-1.23.68-1.79,1.06.53.41,1.11.8,1.72,1.16-.03-.36-.05-.74-.04-1.11Z"/>
      <path class="cls-1" d="M445.85,134.58c.23-.28.49-.55.76-.81.27-.26.56-.5.86-.71-.68-.22-1.35-.39-2.01-.51.09.67.22,1.35.4,2.04Z"/>
      <path class="cls-1" d="M446.27,145.69c-.26-.27-.5-.56-.71-.86-.22.68-.39,1.35-.51,2.01.67-.09,1.35-.22,2.04-.4-.28-.23-.55-.49-.81-.76Z"/>
    </g>
    <g>
      <path class="cls-1" d="M500.84,254.63c-.4.87-1.05,1.86-2.14,2.81-1.34,1.19-3.17,2.03-4.72,2.6.72,1.35,1.23,2.88,1.27,4.49l-.15.38c-.11.27.02.58.29.7.07.03.12.04.19.04.22,0,.42-.12.51-.33.09-.24.32-.38.56-.37.07,0,.13,0,.2.04.15.06.25.17.32.31.07.15.07.3,0,.44l-1.57,3.9c-.12.3-.46.44-.75.33-.24-.09-.38-.32-.37-.56,0-.06.02-.13.04-.19.11-.27-.02-.58-.29-.7-.27-.11-.58.02-.7.29l-.79,1.99c-.27.67-.64,1.28-1.09,1.82-.5.6-1.11,1.1-1.8,1.49-.22.12-.44.24-.67.33-1.64.71-3.44.72-5.09.07-1.65-.67-2.94-1.93-3.63-3.56-.09-.24-.18-.47-.25-.71-.19-.63-.28-1.27-.28-1.92,0-.13,0-.26,0-.4.05-.7.2-1.39.47-2.07l.8-1.98c.1-.28-.03-.59-.3-.7-.27-.11-.58.02-.7.29h0c-.06.14-.17.25-.31.32-.14.06-.3.07-.44,0-.29-.12-.44-.46-.32-.76l1.57-3.9c.05-.14.16-.25.3-.32.15-.06.3-.06.45,0,.14.06.25.17.31.31.04.08.05.16.05.24,0,.08-.02.13-.04.2-.11.27.02.58.29.7.07.02.12.04.19.04.22,0,.42-.12.51-.34l.06-.14c1.25,0,5.41-.14,9.99-1.36,1.49-.5,3.37-1.3,4.64-2.42,1.97-1.73,2.09-3.5,2.1-3.9v-.03c-.31-2.31-2.22-4.58-4.53-5.41-.18-.07-.36-.12-.55-.16-.08-.02-.16-.05-.24-.07-3.62-.84-8.67-.31-11.45,2.85-.93,1.04-1.8,2.63-1.86,4.9,0,.24,0,.48,0,.72.04.83.17,1.75.45,2.76-.26-.03-.54.02-.79.12-.4.18-.72.5-.88.9l-1.56,3.9c-.34.84.07,1.81.91,2.15.19.08.39.1.57.11l-.22.56c-.31.78-.49,1.58-.55,2.4,0,.16-.02.32-.02.49,0,.54.07,1.07.18,1.6.1.48.25.95.45,1.41.81,1.9,2.31,3.36,4.22,4.13.87.35,1.76.53,2.64.56,1.63.05,3.23-.43,4.55-1.34.58-.39,1.1-.86,1.56-1.4.53-.61.96-1.32,1.27-2.11l.23-.55c.14.13.31.24.49.31.85.34,1.81-.07,2.15-.91l1.57-3.9c.16-.41.16-.86-.02-1.26-.13-.32-.36-.58-.65-.76,1.21-.97,2.85-2.69,3.59-5.29.41-1.46.31-2.93-.24-4.2Z"/>
      <g>
        <path class="cls-1" d="M484.84,266.13c.74.05,2.49.64,1.88,2.28-.68,1.82-5.39,2.8-8.83,1.06s-2.06-4.79-.46-4.72,1.57,2.17-.35,1.82c0,0,.4,1.16,2.28,1.37,1.77.2,3.43-1.93,5.49-1.8Z"/>
        <path class="cls-1" d="M489.33,267.93c-.56-.48-2.25-1.26-2.93.35-.77,1.79,1.96,5.75,5.65,6.87,3.69,1.12,4.8-2.04,3.6-3.1s-2.63.48-1,1.56c0,0-1.09.56-2.59-.59-1.42-1.08-1.15-3.76-2.72-5.09Z"/>
      </g>
    </g>
    <g>
      <rect class="cls-1" x="433.08" y="183.99" width="3.12" height="8.18" rx="1.56" ry="1.56" transform="translate(5.65 -12.55) rotate(1.67)"/>
      <rect class="cls-1" x="437.06" y="184.1" width="3.12" height="8.18" rx="1.56" ry="1.56" transform="translate(5.66 -12.67) rotate(1.67)"/>
      <rect class="cls-1" x="432.38" y="189.92" width="8.54" height="6.68" rx="3.34" ry="3.34" transform="translate(5.8 -12.61) rotate(1.67)"/>
      <path class="cls-1" d="M440.12,190.19s1.26.68,2.01,2.2,3.72,1.58,4.01,2.49-1.4,3.62-1.93,3.87-6.63-.64-6.63-.64c0,0,.61,6.21,1,9.28.39,3.07,1.02,6.99-.78,9.05-2.4,2.75-6.92,2.51-8.24,2.38-.2-.02-.38.14-.39.34h0c0,.19.15.36.34.36l8.3.24c.87.03,1.61.74,1.57,1.61-.04.78-.64,1.55-2.94,1.48l-10.86-.32c-1.19-.03-2.29-.63-2.96-1.62l-3.4-4.96c-1.34-1.95-3.49-3.21-5.85-3.39-.85-.06-1.84-.09-3-.05,0,0,4.86.1,6.44,2.96,1.03,1.86-.52,3.34-1.72,4.15-.31.21-.17.7.21.71l3.94.11c.41.01.79.24.99.6h0c.44.79-.15,1.76-1.05,1.73l-16.01-.47s-5.79-.8-7-8.03c-1.21-7.23,5.34-10.92,8.65-12.01,3.31-1.09,5.15-1.95,6.22-3.66s1.95-3.48,4.39-3.04,2.03,4.57,3.61,4.75.43-4.94,4.42-5.22,3.86,5.86,5.38,8.96c1.52,3.1,2.56,4.37,4.03,3.83s-.97-1.86-.54-13.03l6.7-2.74,1.1-1.95Z"/>
      <path class="cls-1" d="M442.52,213.83c-.08,0-.15,0-.23-.02-.48-.07-1.63-.47-1.99-2.59-.45-2.65-1.5-13.76-1.55-14.23l1.42-.13c.01.12,1.09,11.53,1.53,14.13.17.98.52,1.38.8,1.42.26.04.67-.2.95-.75.97-1.9-.05-9.5-.65-14.05l1.41-.19c.92,6.89,1.59,12.76.51,14.88-.5.97-1.35,1.55-2.21,1.53Z"/>
      <path class="cls-1" d="M401.57,223.65c-.13.41-.58.61-.97.44-1.43-.63-4.51-2.35-5.65-5.88-1.61-5,1.19-8.16,1.31-8.3l1.05.96-.53-.48.53.48c-.1.11-2.36,2.71-1.01,6.91.96,2.98,3.67,4.48,4.88,5.02.33.15.5.52.39.87h0Z"/>
    </g>
  </g>
  <g>
    <path class="cls-1" d="M67.03,699.49h-17.16v-63.69h-16.28v-14.85h49.61v14.85h-16.17v63.69Z"/>
    <path class="cls-1" d="M108.4,615.89v16.39c0,2.71-.09,5.3-.28,7.75-.18,2.46-.46,4.64-.82,6.54h.88c2.86-5.79,7.63-8.69,14.3-8.69,5.57,0,9.94,1.87,13.09,5.61,3.15,3.74,4.73,9.2,4.73,16.39v39.6h-16.72v-34.65c0-8.36-2.09-12.54-6.27-12.54-3.52,0-5.88,1.56-7.09,4.67-1.21,3.12-1.82,7.9-1.82,14.35v28.16h-16.72v-83.6h16.72Z"/>
    <path class="cls-1" d="M175.27,638c7.48,0,13.29,2.4,17.44,7.21,4.14,4.8,6.21,11.57,6.21,20.29v8.58h-31.57c.15,9.02,4.11,13.53,11.88,13.53,3.01,0,5.81-.37,8.42-1.1,2.6-.73,5.33-1.91,8.2-3.52v13.31c-5.06,2.86-11.29,4.29-18.7,4.29-8.73,0-15.31-2.66-19.75-7.98-4.44-5.32-6.65-13-6.65-23.04s2.14-18.1,6.43-23.48c4.29-5.39,10.32-8.09,18.09-8.09ZM175.72,650.54c-2.35,0-4.27.94-5.78,2.81-1.5,1.87-2.33,4.93-2.47,9.19h16.06c0-3.81-.68-6.77-2.03-8.85-1.36-2.09-3.28-3.14-5.78-3.14Z"/>
    <path class="cls-1" d="M261.4,699.49h-33.33v-9.46l8.03-3.63v-52.36l-8.03-3.63v-9.46h33.33v9.46l-7.92,3.63v52.36l7.92,3.63v9.46Z"/>
    <path class="cls-1" d="M302,637.89c5.5,0,9.83,1.85,12.98,5.56,3.15,3.7,4.73,9.19,4.73,16.44v39.6h-16.72v-34.65c0-4.11-.46-7.22-1.38-9.35-.92-2.13-2.66-3.19-5.22-3.19-3.3,0-5.55,1.48-6.76,4.46-1.21,2.97-1.82,7.83-1.82,14.57v28.16h-16.72v-60.5h12.98l1.98,7.7h.88c3.15-5.87,8.18-8.8,15.07-8.8Z"/>
    <path class="cls-1" d="M349.41,700.59c-6.01,0-10.73-2.75-14.14-8.25-3.41-5.5-5.11-13.2-5.11-23.1s1.71-17.69,5.11-23.15c3.41-5.46,8.05-8.2,13.92-8.2,6.23,0,10.96,2.97,14.19,8.91h.55c-.15-2.13-.29-4.2-.44-6.21-.15-2.02-.22-3.8-.22-5.34v-19.36h16.72v83.6h-13.2l-2.64-6.71h-.88c-1.76,2.57-3.68,4.51-5.77,5.83-2.09,1.32-4.79,1.98-8.08,1.98ZM355.02,686.84c3.01,0,5.19-1.28,6.54-3.85,1.36-2.57,2.07-6.6,2.15-12.1v-2.86c0-5.43-.66-9.44-1.98-12.04-1.32-2.6-3.56-3.91-6.71-3.91-5.28,0-7.92,5.68-7.92,17.05s2.64,17.71,7.92,17.71Z"/>
    <path class="cls-1" d="M401.44,615.01c2.86,0,5.08.7,6.66,2.09,1.58,1.39,2.37,3.59,2.37,6.6s-.81,5.19-2.42,6.54c-1.61,1.36-3.81,2.04-6.6,2.04s-4.99-.68-6.6-2.04c-1.61-1.36-2.42-3.54-2.42-6.54s.77-5.3,2.31-6.65c1.54-1.36,3.78-2.04,6.71-2.04ZM409.8,638.99v60.5h-16.72v-60.5h16.72Z"/>
    <path class="cls-1" d="M446.53,637.89c6.45,0,11.5,1.81,15.12,5.45,3.63,3.63,5.45,9.04,5.45,16.22v39.93h-11.99l-2.86-8.03h-.44c-2.05,3.15-4.31,5.46-6.76,6.93-2.46,1.47-5.7,2.2-9.74,2.2-3.45,0-6.33-.86-8.63-2.58-2.31-1.72-4.03-4.03-5.17-6.93-1.14-2.9-1.71-6.14-1.71-9.73,0-6.38,1.89-11.15,5.67-14.3,3.78-3.15,9.26-4.91,16.44-5.28l8.47-.33v-1.98c0-5.72-2.31-8.58-6.93-8.58-1.98,0-4.12.37-6.43,1.1-2.31.73-4.82,1.83-7.54,3.3l-4.62-11.99c3.01-1.69,6.33-3.01,9.96-3.96,3.63-.95,7.54-1.43,11.71-1.43ZM450.39,671.88l-4.29.22c-3.3.15-5.7.95-7.21,2.42-1.5,1.47-2.25,3.52-2.25,6.16,0,4.69,1.83,7.04,5.5,7.04,2.35,0,4.31-.95,5.88-2.86,1.58-1.91,2.37-4.47,2.37-7.7v-5.28Z"/>
    <path class="cls-1" d="M510.78,637.89c5.5,0,9.83,1.85,12.98,5.56,3.15,3.7,4.73,9.19,4.73,16.44v39.6h-16.72v-34.65c0-4.11-.46-7.22-1.38-9.35-.92-2.13-2.66-3.19-5.22-3.19-3.3,0-5.55,1.48-6.76,4.46-1.21,2.97-1.82,7.83-1.82,14.57v28.16h-16.72v-60.5h12.98l1.98,7.7h.88c3.15-5.87,8.18-8.8,15.07-8.8Z"/>
    <path class="cls-1" d="M594.27,634.59c-4.69,0-8.23,2.35-10.61,7.04-2.38,4.69-3.58,10.96-3.58,18.81,0,8.29,1.25,14.57,3.74,18.86,2.49,4.29,6.23,6.44,11.22,6.44,2.71,0,5.35-.42,7.92-1.27,2.57-.84,5.17-1.92,7.81-3.24v15.18c-5.35,2.79-11.4,4.18-18.15,4.18-10.05,0-17.66-3.56-22.83-10.67-5.17-7.11-7.75-16.98-7.75-29.59,0-7.92,1.23-14.92,3.68-21.01,2.46-6.09,6.03-10.85,10.73-14.3,4.69-3.45,10.34-5.17,16.94-5.17,6.97,0,13.64,1.76,20.02,5.28l-4.95,14.08c-2.27-1.39-4.58-2.51-6.93-3.35-2.35-.84-4.77-1.27-7.26-1.27Z"/>
    <path class="cls-1" d="M631.34,615.01c2.86,0,5.08.7,6.66,2.09,1.58,1.39,2.37,3.59,2.37,6.6s-.81,5.19-2.42,6.54c-1.61,1.36-3.81,2.04-6.6,2.04s-4.99-.68-6.6-2.04c-1.61-1.36-2.42-3.54-2.42-6.54s.77-5.3,2.31-6.65c1.54-1.36,3.78-2.04,6.71-2.04ZM639.7,638.99v60.5h-16.72v-60.5h16.72Z"/>
    <path class="cls-1" d="M682.81,637.89c1.61,0,3.37.22,5.28.66l-1.43,17.27c-.73-.22-1.54-.4-2.42-.55-.88-.15-1.91-.22-3.08-.22-3.45,0-6.23,1.14-8.36,3.41-2.13,2.27-3.19,5.76-3.19,10.45v30.58h-16.72v-60.5h12.65l2.53,9.9h.77c1.25-2.79,3.08-5.32,5.5-7.59,2.42-2.27,5.24-3.41,8.47-3.41Z"/>
    <path class="cls-1" d="M716.81,700.59c-8.21,0-14.45-2.49-18.7-7.48-4.25-4.99-6.38-12.83-6.38-23.54,0-9.61,2.18-17.29,6.54-23.04,4.36-5.76,10.76-8.64,19.19-8.64,3.45,0,6.53.37,9.24,1.1,2.71.73,5.24,1.8,7.59,3.19l-4.73,13.09c-1.91-1.03-3.79-1.83-5.67-2.42-1.87-.59-3.72-.88-5.55-.88-3.08,0-5.46,1.48-7.15,4.46-1.69,2.97-2.53,7.31-2.53,13.04,0,11.44,3.3,17.16,9.9,17.16,4.84,0,9.57-1.69,14.19-5.06v14.08c-4.4,3.3-9.72,4.95-15.95,4.95Z"/>
    <path class="cls-1" d="M791.94,638.99v60.5h-12.98l-1.98-7.59h-.88c-3.15,5.79-8.14,8.69-14.96,8.69-5.57,0-9.94-1.89-13.09-5.67-3.15-3.78-4.73-9.26-4.73-16.44v-39.49h16.72v34.43c0,4.25.48,7.46,1.43,9.62.95,2.16,2.53,3.24,4.73,3.24,3.74,0,6.18-1.58,7.32-4.73,1.14-3.15,1.71-7.52,1.71-13.09v-29.48h16.72Z"/>
    <path class="cls-1" d="M813.39,615.01c2.86,0,5.08.7,6.66,2.09,1.58,1.39,2.37,3.59,2.37,6.6s-.81,5.19-2.42,6.54c-1.61,1.36-3.81,2.04-6.6,2.04s-4.99-.68-6.6-2.04c-1.61-1.36-2.42-3.54-2.42-6.54s.77-5.3,2.31-6.65c1.54-1.36,3.78-2.04,6.71-2.04ZM821.75,638.99v60.5h-16.72v-60.5h16.72Z"/>
    <path class="cls-1" d="M858.27,686.51c1.25,0,2.55-.18,3.91-.55,1.36-.37,2.77-.84,4.23-1.43v12.98c-1.91.95-3.94,1.71-6.1,2.25-2.16.55-4.57.83-7.21.83-5.57,0-9.75-1.58-12.54-4.73-2.79-3.15-4.18-8.29-4.18-15.4v-28.05h-6.49v-8.25l7.81-4.73,4.18-12.87h11.22v12.43h12.54v13.42h-12.54v27.61c0,4.33,1.72,6.49,5.17,6.49Z"/>
  </g>
  <g>
    <path class="cls-1" d="M265.74,759.05l1.15-3.82c.24-.82.6-1.25,1.08-1.3.48-.05,1.06-.07,1.73-.07h54.65c1.34,0,1.85.53,1.51,1.58l-1.22,3.82c-.24.77-.62,1.19-1.15,1.26-.53.07-1.32.11-2.38.11h-3.46c-.14,1.01-.31,2.35-.5,4.03-.19,1.68-.4,3.6-.61,5.76-.22,2.16-.42,4.48-.61,6.95-.19,2.47-.36,5-.5,7.6-.05,1.2-.34,2.59-.86,4.18s-1.19,3.13-1.98,4.64-1.62,2.76-2.48,3.74c-.86.98-1.66,1.48-2.38,1.48s-1.2-.23-1.44-.68c-.24-.46-.31-1.34-.22-2.66.1-1.32.31-3.25.65-5.8-1.49.91-3.18,1.7-5.08,2.38-1.9.67-3.9,1.01-6.01,1.01-2.64,0-5.02-.5-7.13-1.51-2.11-1.01-3.79-2.39-5.04-4.14-1.25-1.75-1.87-3.76-1.87-6.01,0-1.06.22-2.12.65-3.2.43-1.08.91-2.03,1.44-2.84.53-.82.91-1.37,1.15-1.66h-9.58c-1.2,0-1.63-.53-1.3-1.58l1.44-4.32c.19-.53.48-.84.86-.94.38-.1.84-.14,1.37-.14.91,0,2.08-.01,3.49-.04,1.42-.02,2.92-.04,4.5-.04s3.06-.01,4.43-.04c1.37-.02,2.44-.04,3.2-.04,1.05,0,2.2.14,3.42.43s2.27.65,3.13,1.08,1.3.89,1.3,1.37c0,.29-.18.86-.54,1.73-.36.86-.78,1.67-1.26,2.41-.48.74-.91,1.12-1.3,1.12-.43,0-1.13-.25-2.09-.76-.96-.5-1.78-.76-2.45-.76-.58,0-1.25.3-2.02.9-.77.6-1.43,1.33-1.98,2.2-.55.86-.83,1.7-.83,2.52,0,1.49.43,2.86,1.3,4.1.86,1.25,1.94,2.24,3.24,2.99,1.3.74,2.59,1.12,3.89,1.12s2.71-.41,4.1-1.22c1.39-.82,2.66-1.75,3.82-2.81,1.15-1.06,2.04-1.92,2.66-2.59.29-2.54.55-5.11.79-7.7s.46-4.97.65-7.13c.19-2.16.33-3.86.43-5.11h-42.26c-1.34,0-1.85-.53-1.51-1.58Z"/>
    <path class="cls-1" d="M317.15,759.05l1.15-3.82c.24-.82.6-1.25,1.08-1.3.48-.05,1.06-.07,1.73-.07h36.36c1.34,0,1.85.53,1.51,1.58l-1.22,3.82c-.24.77-.62,1.19-1.15,1.26-.53.07-1.32.11-2.38.11h-4.32c.38.86.7,1.72.94,2.56.24.84.36,1.65.36,2.41,0,1.54-.41,3.07-1.22,4.61-.82,1.54-1.86,3.02-3.13,4.46-1.27,1.44-2.64,2.77-4.1,4-1.46,1.22-2.86,2.28-4.18,3.17-1.32.89-2.41,1.57-3.28,2.05.43.43,1.09.97,1.98,1.62.89.65,1.84,1.3,2.84,1.94s1.97,1.2,2.88,1.66c.91.46,1.58.68,2.02.68.34,0,.79-.24,1.37-.72.58-.48,1.13-.95,1.66-1.4.53-.46.89-.68,1.08-.68.24,0,.44.18.61.54.17.36.25.78.25,1.26,0,.91-.28,1.92-.83,3.02-.55,1.1-1.26,2.15-2.12,3.13-.86.98-1.75,1.79-2.66,2.41-.91.62-1.73.94-2.45.94-.91,0-2.08-.42-3.49-1.26-1.42-.84-2.93-1.97-4.54-3.38-1.61-1.42-3.22-3.01-4.82-4.79-1.61-1.77-3.11-3.6-4.5-5.47-.72-.96-1.3-1.52-1.73-1.69-.43-.17-.65-.49-.65-.97,0-.38.23-.9.68-1.55.46-.65,1.01-1.32,1.66-2.02.65-.7,1.3-1.28,1.94-1.76.65-.48,1.14-.72,1.48-.72.43,0,.9.23,1.4.68.5.46,1.02.91,1.55,1.37.53.46,1.01.68,1.44.68.67,0,1.52-.4,2.56-1.19,1.03-.79,2.08-1.78,3.13-2.95,1.05-1.18,1.94-2.36,2.66-3.56.72-1.2,1.08-2.18,1.08-2.95s-.32-1.63-.97-2.59c-.65-.96-1.44-1.79-2.38-2.48-.94-.7-1.81-1.04-2.63-1.04h-17.14c-1.34,0-1.85-.53-1.51-1.58Z"/>
    <path class="cls-1" d="M355.23,773.73c0-.43.22-.96.65-1.58.43-.62.95-1.26,1.55-1.91.6-.65,1.21-1.19,1.84-1.62.62-.43,1.1-.65,1.44-.65.48,0,1,.28,1.55.83.55.55,1.2,1.1,1.94,1.66.74.55,1.59.83,2.56.83,1.2,0,2.34-.36,3.42-1.08,1.08-.72,1.98-1.52,2.7-2.41.72-.89,1.08-1.62,1.08-2.2,0-.77-.41-1.6-1.22-2.48-.82-.89-1.74-1.66-2.77-2.3-1.03-.65-1.88-.97-2.56-.97-.48,0-.97.19-1.48.58-.5.38-.95.58-1.33.58s-.58-.22-.58-.65c0-.77.25-1.61.76-2.52.5-.91,1.15-1.78,1.94-2.59.79-.82,1.63-1.49,2.52-2.02.89-.53,1.74-.79,2.56-.79,1.25,0,2.46.36,3.64,1.08,1.18.72,2.23,1.68,3.17,2.88.94,1.2,1.69,2.51,2.27,3.92.58,1.42.86,2.84.86,4.28s-.44,2.98-1.33,4.46c-.89,1.49-2.06,2.87-3.53,4.14-1.46,1.27-3.07,2.29-4.82,3.06-1.75.77-3.49,1.15-5.22,1.15,0,.96.22,1.93.65,2.92.43.98,1.04,1.88,1.84,2.7.79.82,1.74,1.46,2.84,1.94,1.1.48,2.33.72,3.67.72,2.11,0,4.24-.66,6.37-1.98,2.13-1.32,4.02-2.99,5.65-5l1.51-16.27c.24-2.69,1.16-4.79,2.77-6.3,1.61-1.51,3.8-2.27,6.59-2.27h5.4c1.39,0,1.92.53,1.58,1.58l-1.22,3.82c-.24.77-.61,1.19-1.12,1.26-.5.07-1.33.11-2.48.11h-3.24c-.05.38-.2,1.66-.47,3.82-.26,2.16-.55,4.99-.86,8.5-.31,3.5-.61,7.51-.9,12.02-.05,1.2-.34,2.6-.86,4.21-.53,1.61-1.19,3.17-1.98,4.68-.79,1.51-1.62,2.77-2.48,3.78s-1.66,1.51-2.38,1.51-1.2-.26-1.44-.79c-.24-.53-.32-1.22-.25-2.09.07-.86.16-1.8.25-2.81l.58-4.46c-1.34.77-3.04,1.51-5.08,2.23-2.04.72-4.38,1.08-7.02,1.08s-4.94-.46-6.91-1.37c-1.97-.91-3.66-2.12-5.08-3.64-1.42-1.51-2.58-3.22-3.49-5.11-.91-1.9-1.58-3.83-2.02-5.8-.14-.58-.38-.98-.72-1.22-.34-.24-.64-.46-.9-.65-.26-.19-.4-.46-.4-.79Z"/>
    <path class="cls-1" d="M414.63,759.05l1.15-3.82c.24-.82.59-1.25,1.04-1.3.46-.05,1.02-.07,1.69-.07h6.91c-.96-5.62-.79-10.44.5-14.47s3.41-7.13,6.34-9.29c2.93-2.16,6.41-3.24,10.44-3.24,2.21,0,4.73.31,7.56.94,2.83.62,5.7,1.43,8.6,2.41,2.9.98,5.6,2.05,8.1,3.2,2.5,1.15,4.5,2.29,6.01,3.42,1.51,1.13,2.29,2.12,2.34,2.99.05.91-.18,1.91-.68,2.99s-1.14,2.1-1.91,3.06c-.77.96-1.54,1.74-2.3,2.34-.77.6-1.37.9-1.8.9-.29,0-.49-.06-.61-.18-.12-.12-.18-.28-.18-.47,0-.38.07-.82.22-1.3.14-.48.22-.86.22-1.15,0-.48-.6-1.18-1.8-2.09-1.2-.91-2.79-1.9-4.75-2.95-1.97-1.06-4.12-2.06-6.44-3.02-2.33-.96-4.63-1.75-6.91-2.38-2.28-.62-4.33-.94-6.16-.94-2.74,0-4.82.55-6.26,1.66-1.44,1.1-2.38,2.58-2.81,4.43-.43,1.85-.5,3.91-.22,6.19.29,2.28.79,4.6,1.51,6.95h6.98c1.34,0,1.85.53,1.51,1.58l-1.22,3.82c-.24.77-.62,1.19-1.15,1.26-.53.07-1.32.11-2.38.11h-4.61c-.14,1.01-.31,2.35-.5,4.03-.19,1.68-.4,3.6-.61,5.76-.22,2.16-.42,4.48-.61,6.95-.19,2.47-.36,5-.5,7.6-.05,1.2-.34,2.6-.86,4.21-.53,1.61-1.19,3.17-1.98,4.68-.79,1.51-1.62,2.77-2.48,3.78-.86,1.01-1.66,1.51-2.38,1.51s-1.2-.26-1.44-.79c-.24-.53-.34-1.22-.29-2.09.05-.86.14-1.8.29-2.81.19-1.25.4-2.96.61-5.15.22-2.18.46-4.6.72-7.24.26-2.64.51-5.28.76-7.92.24-2.64.47-5.06.68-7.27.22-2.21.37-3.96.47-5.26h-9.36c-1.3,0-1.78-.53-1.44-1.58Z"/>
    <path class="cls-1" d="M444.3,759.33c0-.86.32-1.75.97-2.66.65-.91,1.45-1.77,2.41-2.59.96-.82,1.94-1.48,2.95-1.98s1.87-.76,2.59-.76c.86,0,1.79.32,2.77.97.98.65,1.91,1.52,2.77,2.63.86,1.1,1.56,2.32,2.09,3.64.53,1.32.72,2.68.58,4.07-.1,1.44-.23,3.24-.4,5.4-.17,2.16-.32,4.2-.47,6.12h4.75c1.68,0,3.3.01,4.86.04,1.56.02,2.89.04,4,.04l1.08-11.81c.24-2.69,1.16-4.79,2.77-6.3,1.61-1.51,3.8-2.27,6.59-2.27h5.4c1.39,0,1.92.53,1.58,1.58l-1.22,3.82c-.24.77-.61,1.19-1.12,1.26-.5.07-1.33.11-2.48.11h-3.24c-.05.38-.21,1.66-.47,3.82-.26,2.16-.55,4.99-.86,8.5-.31,3.5-.61,7.51-.9,12.02-.05,1.2-.34,2.6-.86,4.21-.53,1.61-1.19,3.17-1.98,4.68-.79,1.51-1.62,2.77-2.48,3.78-.86,1.01-1.66,1.51-2.38,1.51s-1.2-.26-1.44-.79c-.24-.53-.34-1.22-.29-2.09.05-.86.14-1.8.29-2.81.24-1.77.47-3.64.68-5.58.22-1.94.42-4.04.61-6.3-1.1-.05-2.57-.1-4.39-.14-1.83-.05-3.66-.1-5.51-.14-1.85-.05-3.42-.1-4.72-.14-.29.96-.82,2.09-1.58,3.38-.77,1.3-1.66,2.44-2.66,3.42-1.01.98-2.02,1.48-3.02,1.48-.86,0-1.85-.34-2.95-1.01-1.1-.67-2.05-1.51-2.84-2.52-.79-1.01-1.19-2.02-1.19-3.02s.4-2.14,1.19-3.24c.79-1.1,1.81-2.11,3.06-3.02,1.25-.91,2.57-1.58,3.96-2.02.19-.96.38-2.06.58-3.31.19-1.25.37-2.45.54-3.6.17-1.15.3-2.09.4-2.81.1-.91-.12-1.73-.65-2.45-.53-.72-1.21-1.33-2.05-1.84-.84-.5-1.67-.89-2.48-1.15-.82-.26-1.44-.4-1.87-.4s-.9.24-1.4.72c-.5.48-.9.72-1.19.72-.24,0-.36-.38-.36-1.15Z"/>
    <path class="cls-1" d="M482.1,759.05l1.15-3.82c.24-.82.62-1.25,1.15-1.3.53-.05,1.32-.07,2.38-.07h105.98c1.34,0,1.85.53,1.51,1.58l-1.22,3.82c-.24.77-.62,1.19-1.15,1.26-.53.07-1.32.11-2.38.11h-3.31c-.14,1.01-.31,2.35-.5,4.03-.19,1.68-.4,3.6-.61,5.76-.22,2.16-.42,4.48-.61,6.95-.19,2.47-.36,5-.5,7.6-.05,1.2-.34,2.59-.86,4.18-.53,1.58-1.19,3.13-1.98,4.64s-1.62,2.76-2.48,3.74c-.86.98-1.66,1.48-2.38,1.48s-1.21-.24-1.48-.72c-.26-.48-.32-1.46-.18-2.95.14-1.49.41-3.7.79-6.62-.91.53-2.29,1.15-4.14,1.87-1.85.72-3.88,1.36-6.08,1.91-2.21.55-4.37.83-6.48.83-2.74,0-5.3-.56-7.7-1.69-2.4-1.13-4.57-2.66-6.52-4.61-1.94-1.94-3.59-4.12-4.93-6.52-.67-1.2-1.34-2.44-2.02-3.71-.67-1.27-1.34-2.35-2.02-3.24-.67-.89-1.42-1.33-2.23-1.33-.58,0-1.32.37-2.23,1.12-.91.74-1.9,1.68-2.95,2.81-1.06,1.13-2.06,2.29-3.02,3.49-.96,1.2-1.78,2.26-2.45,3.17l-.14,2.16c-.05,1.2-.34,2.59-.86,4.18-.53,1.58-1.19,3.13-1.98,4.64s-1.62,2.76-2.48,3.74c-.86.98-1.66,1.48-2.38,1.48s-1.2-.24-1.44-.72c-.24-.48-.31-1.39-.22-2.74.1-1.34.31-3.31.65-5.9-1.44.82-3.06,1.49-4.86,2.02-1.8.53-3.8.79-6.01.79s-4.48-.44-6.52-1.33c-2.04-.89-3.7-2.23-4.97-4.03-1.27-1.8-1.91-4.04-1.91-6.73,0-3.02.8-5.7,2.41-8.03,1.61-2.33,3.77-4.15,6.48-5.47,2.71-1.32,5.68-1.98,8.89-1.98,1.97,0,3.74.1,5.33.29,1.58.19,2.76.38,3.53.58l.43-5.11h-32.98c-1.34,0-1.85-.53-1.51-1.58ZM497.29,778.99c0,1.34.4,2.53,1.19,3.56.79,1.03,1.8,1.84,3.02,2.41,1.22.58,2.44.86,3.64.86s2.5-.4,3.74-1.19,2.41-1.7,3.49-2.74c1.08-1.03,1.91-1.93,2.48-2.7l.58-5.83c-1.44-.53-3.05-1.06-4.82-1.58-1.78-.53-3.34-.79-4.68-.79-1.49,0-2.89.38-4.21,1.15-1.32.77-2.39,1.75-3.2,2.95-.82,1.2-1.22,2.5-1.22,3.89ZM523.71,770.06c1.49-1.2,3.08-2.27,4.79-3.2,1.7-.94,3.37-1.4,5-1.4,1.3,0,2.53.31,3.71.94,1.18.62,2.24,1.39,3.2,2.3.96.91,1.8,1.8,2.52,2.66.72.86,1.25,1.51,1.58,1.94.43-.1,1.09-.48,1.98-1.15.89-.67,1.7-1.54,2.45-2.59.74-1.06,1.12-2.14,1.12-3.24,0-1.01-.3-1.94-.9-2.81-.6-.86-1.34-1.56-2.23-2.09-.89-.53-1.76-.79-2.63-.79h-19.58c-.1.96-.24,2.26-.43,3.89-.19,1.63-.38,3.48-.58,5.54ZM547.04,778.92c.72,1.2,1.63,2.38,2.74,3.53,1.1,1.15,2.39,2.09,3.85,2.81,1.46.72,3.04,1.08,4.72,1.08,1.25,0,2.53-.16,3.85-.47,1.32-.31,2.63-.73,3.92-1.26-1.92-.72-3.54-1.92-4.86-3.6-1.32-1.68-1.98-3.31-1.98-4.9,0-2.02.61-3.9,1.84-5.65,1.22-1.75,2.81-3.18,4.75-4.28,1.94-1.1,4-1.66,6.16-1.66,1.25,0,2.36.08,3.35.25.98.17,1.74.35,2.27.54l.43-4.68h-21.74c.48.62.88,1.34,1.19,2.16.31.82.47,1.8.47,2.95,0,1.73-.54,3.47-1.62,5.22-1.08,1.75-2.46,3.32-4.14,4.72-1.68,1.39-3.41,2.47-5.18,3.24ZM565.55,774.89c0,.91.32,1.76.97,2.56.65.79,1.44,1.43,2.38,1.91.94.48,1.84.72,2.7.72,1.15,0,2.12-.37,2.92-1.12.79-.74,1.5-1.57,2.12-2.48l.43-4.97c-.91-.48-1.93-.91-3.06-1.3-1.13-.38-2.15-.58-3.06-.58-.72,0-1.5.25-2.34.76-.84.5-1.56,1.15-2.16,1.94-.6.79-.9,1.65-.9,2.56Z"/>
    <path class="cls-1" d="M584.84,759.05l1.15-3.82c.24-.82.62-1.25,1.15-1.3.53-.05,1.32-.07,2.38-.07h43.78c1.34,0,1.85.53,1.51,1.58l-1.22,3.82c-.24.77-.62,1.19-1.15,1.26-.53.07-1.32.11-2.38.11h-3.46c-.19,1.34-.42,3.26-.68,5.76-.26,2.5-.54,5.35-.83,8.57-.29,3.22-.53,6.55-.72,10.01-.05,1.2-.34,2.59-.86,4.18s-1.19,3.13-1.98,4.64-1.62,2.76-2.48,3.74c-.86.98-1.66,1.48-2.38,1.48s-1.2-.22-1.44-.65c-.24-.43-.31-1.25-.22-2.45.1-1.2.29-2.93.58-5.18-1.39.77-2.95,1.38-4.68,1.84-1.73.46-3.55.68-5.47.68-2.5,0-4.84-.48-7.02-1.44-2.18-.96-3.95-2.36-5.29-4.21-1.34-1.85-2.02-4.09-2.02-6.73,0-2.16.54-4.21,1.62-6.16s2.52-3.67,4.32-5.18c1.8-1.51,3.83-2.7,6.08-3.56,2.26-.86,4.56-1.3,6.91-1.3,1.73,0,3.31.1,4.75.29,1.44.19,2.52.36,3.24.5l.43-4.82h-32.11c-1.34,0-1.85-.53-1.51-1.58ZM598.95,778.77c0,1.54.41,2.9,1.22,4.1.82,1.2,1.84,2.14,3.06,2.81,1.22.67,2.41,1.01,3.56,1.01s2.42-.31,3.67-.94c1.25-.62,2.41-1.37,3.49-2.23,1.08-.86,1.93-1.61,2.56-2.23l.79-7.92c-1.54-.53-3.19-1.04-4.97-1.55-1.78-.5-3.36-.76-4.75-.76-1.25,0-2.54.38-3.89,1.15-1.34.77-2.47,1.74-3.38,2.92-.91,1.18-1.37,2.39-1.37,3.64Z"/>
    <path class="cls-1" d="M618.32,754.29c.1-.29.17-.61.22-.97.05-.36.07-.68.07-.97,0-.91-.53-1.86-1.58-2.84-1.06-.98-2.41-1.92-4.07-2.81-1.66-.89-3.38-1.69-5.18-2.41-1.8-.72-3.48-1.3-5.04-1.73-1.56-.43-2.75-.65-3.56-.65-.29,0-.6.22-.94.65-.34.43-.65.86-.94,1.3-.29.43-.55.65-.79.65-.19,0-.35-.17-.47-.5-.12-.33-.18-.7-.18-1.08,0-.72.29-1.66.86-2.81.58-1.15,1.31-2.3,2.2-3.46.89-1.15,1.82-2.11,2.81-2.88.98-.77,1.88-1.15,2.7-1.15,1.15,0,2.63.53,4.43,1.58,1.8,1.06,3.7,2.44,5.69,4.14,1.99,1.7,3.88,3.54,5.65,5.51,1.78,1.97,3.23,3.88,4.36,5.72,1.13,1.85,1.69,3.42,1.69,4.72h-7.92Z"/>
  </g>
</svg>